<?xml version="1.0" encoding="UTF-8" standalone="no"?>
<svg width="137px" height="129px" viewBox="0 0 137 129" version="1.1" xmlns="http://www.w3.org/2000/svg" xmlns:xlink="http://www.w3.org/1999/xlink" xmlns:sketch="http://www.bohemiancoding.com/sketch/ns">
    <!-- Generator: Sketch 3.3.3 (12081) - http://www.bohemiancoding.com/sketch -->
    <title>no-favorite-slide</title>
    <desc>Created with Sketch.</desc>
    <defs></defs>
    <g id="Page-1" stroke="none" stroke-width="1" fill="none" fill-rule="evenodd" sketch:type="MSPage">
        <g id="Search-Results" sketch:type="MSArtboardGroup" transform="translate(-553.000000, -562.000000)">
            <g id="no-favorite-slide" sketch:type="MSLayerGroup" transform="translate(552.000000, 562.000000)">
                <path d="M35.754,122.906 C35.754,125.819 51.929,128.18 71.881,128.18 C91.833,128.18 108.008,125.819 108.008,122.906 C108.008,119.993 91.833,117.632 71.881,117.632 C51.929,117.632 35.754,119.993 35.754,122.906" id="Fill-1" fill="#A8B5B9" sketch:type="MSShapeGroup"></path>
                <path d="M94.269,58.496 C87.05,52.452 56.448,53.001 48.326,58.496 C35.931,66.883 48.338,105.938 48.338,105.938 C48.373,106.134 50.903,113.672 50.903,113.672 L51.459,115.319 C53.263,120.655 56.216,120.655 58.02,115.319 L58.577,113.672 C58.577,113.672 59.852,110.17 61.025,108.631 C61.073,108.568 61.164,108.507 61.271,108.447 C63.739,108.904 67.168,109.187 70.962,109.187 C75.37,109.187 79.277,108.803 81.763,108.211 C82.019,108.337 82.193,108.476 82.243,108.631 C82.897,110.641 84.691,115.319 84.691,115.319 C86.495,120.655 89.448,120.655 91.253,115.319 L91.809,113.672 L94.269,105.938 C94.269,105.938 105.287,67.721 94.269,58.496" id="Fill-2" fill="#FFFFFF" sketch:type="MSShapeGroup"></path>
                <path d="M87.972,120.321 C86.765,120.321 85.052,119.509 83.744,115.639 C83.687,115.494 82.141,111.461 81.416,109.313 C78.756,109.871 74.995,110.187 70.962,110.187 C67.476,110.187 64.186,109.952 61.619,109.523 C60.775,110.797 59.831,113.151 59.516,114.015 L58.968,115.639 C57.659,119.508 55.946,120.321 54.74,120.321 L54.739,120.321 C53.533,120.321 51.82,119.508 50.512,115.639 L49.955,113.993 C47.916,107.915 47.485,106.577 47.386,106.24 L47.385,106.241 C46.869,104.617 34.899,66.373 47.766,57.668 C51.693,55.011 61.06,53.245 71.629,53.169 C75.784,53.152 89.717,53.381 94.911,57.729 C106.298,67.262 95.687,104.629 95.23,106.215 L92.2,115.639 C90.892,119.509 89.178,120.321 87.972,120.321 M81.763,107.211 C81.915,107.211 82.067,107.246 82.205,107.314 C82.735,107.576 83.059,107.905 83.194,108.322 C83.832,110.284 85.607,114.914 85.624,114.96 C86.467,117.451 87.414,118.321 87.972,118.321 C88.53,118.321 89.476,117.451 90.305,114.999 L90.861,113.353 L93.316,105.635 C93.417,105.285 104.022,67.966 93.627,59.263 C87.1,53.798 56.994,53.84 48.887,59.324 C44.157,62.524 42.701,71.479 44.673,85.22 C46.197,95.828 49.26,105.539 49.291,105.635 L49.322,105.759 C49.403,106.037 50.88,110.463 51.851,113.354 L52.406,114.999 C53.235,117.451 54.181,118.321 54.74,118.321 C55.298,118.321 56.244,117.451 57.073,114.999 L57.629,113.353 C57.691,113.181 58.979,109.665 60.23,108.025 C60.394,107.807 60.613,107.668 60.785,107.573 C60.988,107.459 61.223,107.42 61.454,107.463 C63.973,107.93 67.35,108.187 70.962,108.187 C75.148,108.187 79,107.841 81.531,107.238 L81.763,107.211" id="Fill-3" fill="#4A5861" sketch:type="MSShapeGroup"></path>
                <path d="M84.998,116.124 C86.973,120.363 88.867,120.522 90.87,116.448 C90.185,115.271 85.711,115.084 84.998,116.124" id="Fill-4" fill="#B6BFC3" sketch:type="MSShapeGroup"></path>
                <path d="M88.009,120.406 L87.984,120.406 C86.098,120.386 84.859,118.194 84.091,116.547 C83.942,116.227 83.973,115.851 84.173,115.559 C84.897,114.502 86.801,114.408 87.868,114.451 C88.789,114.484 91.008,114.698 91.734,115.946 C91.903,116.235 91.915,116.589 91.768,116.89 C91.024,118.401 89.827,120.406 88.009,120.406 L88.009,120.406 Z M86.32,116.533 C87.276,118.299 87.881,118.405 88.004,118.406 C88.13,118.428 88.687,118.325 89.595,116.725 C88.803,116.451 87.211,116.357 86.32,116.533 L86.32,116.533 Z" id="Fill-5" fill="#4A5861" sketch:type="MSShapeGroup"></path>
                <path d="M51.856,116.124 C53.831,120.363 55.725,120.522 57.728,116.448 C57.043,115.271 52.569,115.084 51.856,116.124" id="Fill-6" fill="#B6BFC3" sketch:type="MSShapeGroup"></path>
                <path d="M54.868,120.406 L54.842,120.406 C52.956,120.386 51.717,118.194 50.95,116.547 C50.8,116.227 50.831,115.851 51.031,115.559 C51.755,114.502 53.662,114.408 54.727,114.451 C55.648,114.484 57.867,114.698 58.593,115.946 C58.761,116.235 58.774,116.589 58.626,116.89 C57.883,118.401 56.686,120.406 54.868,120.406 L54.868,120.406 Z M53.178,116.533 C54.134,118.298 54.739,118.405 54.863,118.406 L54.865,118.406 C54.986,118.406 55.552,118.312 56.453,116.725 C55.661,116.451 54.068,116.357 53.178,116.533 L53.178,116.533 Z" id="Fill-7" fill="#4A5861" sketch:type="MSShapeGroup"></path>
                <path d="M124.908,74.031 C122.08,70.374 117.909,68.84 114.821,68.497 C108.424,67.786 103.851,71.351 102.479,72.892 C101.107,74.433 99.708,77.91 99.708,79.901 C99.708,83.354 101.533,86.374 104.264,88.073 C105.738,88.99 107.472,89.528 109.336,89.528 L109.416,89.524 L109.42,89.524 C111.719,89.419 115.2,87.664 116.195,86.654 C116.103,86.972 115.029,89.928 111.337,91.078 C108.642,91.918 102.737,91.526 97.989,87.704 C97.871,89.884 96.072,95.367 96.072,95.367 C96.668,95.727 96.668,95.728 96.072,95.367 C96.133,95.422 97.853,96.878 98.887,97.504 C99.405,97.841 101.087,98.784 101.342,98.915 C100.289,98.321 99.53,97.849 98.94,97.454 C99.53,97.849 100.289,98.321 101.342,98.915 L101.375,98.933 C102.328,99.47 104.006,100.119 105.978,100.552 C106.082,100.573 106.184,100.6 106.289,100.62 C106.65,100.694 107.018,100.762 107.395,100.819 L107.623,100.86 L107.718,100.868 C108.955,101.033 110.252,101.081 111.521,100.956 C112.212,100.909 112.91,100.839 113.617,100.711 C115.704,100.333 117.833,99.595 119.859,98.352 C120.359,98.013 120.872,97.723 121.357,97.313 L122.087,96.712 L122.754,96.091 C122.919,95.932 123.04,95.834 123.241,95.624 L123.916,94.866 C124.396,94.33 124.681,93.897 125.06,93.399 C126.439,91.423 127.67,89.126 127.945,86.549 C128.539,81.007 127.136,76.911 124.908,74.031" id="Fill-8" fill="#FFFFFF" sketch:type="MSShapeGroup"></path>
                <path d="M110.052,102.527 C109.236,102.527 108.387,102.47 107.521,102.355 L107.343,102.333 L107.219,102.311 C106.769,102.242 106.374,102.169 105.985,102.088 L105.769,102.042 L105.656,102.017 C103.748,101.598 101.877,100.936 100.648,100.245 C100.329,100.08 98.628,99.125 98.068,98.761 C97.045,98.142 95.477,96.829 95.134,96.538 L94.918,96.326 C94.753,96.128 94.646,95.895 94.599,95.651 C94.571,95.509 94.564,95.362 94.58,95.214 C94.591,95.099 94.617,94.984 94.655,94.873 C95.146,93.376 96.404,89.237 96.491,87.623 C96.521,87.061 96.864,86.563 97.378,86.334 C97.891,86.104 98.491,86.182 98.93,86.535 C100.072,87.456 101.295,88.161 102.519,88.685 C99.8,86.585 98.208,83.378 98.208,79.901 C98.208,77.563 99.71,73.746 101.359,71.894 C103.285,69.73 108.326,66.266 114.987,67.006 C119.361,67.493 123.514,69.775 126.095,73.113 C128.852,76.678 130.007,81.379 129.437,86.709 C129.175,89.156 128.175,91.554 126.291,94.257 L125.967,94.693 C125.702,95.054 125.428,95.427 125.034,95.867 L124.361,96.622 C124.169,96.824 124.052,96.932 123.935,97.04 L123.109,97.81 L122.309,98.472 C121.908,98.812 121.485,99.084 121.112,99.324 C120.975,99.413 120.837,99.501 120.7,99.594 C118.597,100.886 116.323,101.746 113.884,102.187 C113.204,102.31 112.485,102.394 111.622,102.452 C111.117,102.502 110.592,102.527 110.052,102.527 L110.052,102.527 Z M107.829,99.373 L107.927,99.383 C109.127,99.542 110.291,99.569 111.374,99.463 C112.17,99.409 112.783,99.337 113.35,99.235 C115.421,98.86 117.347,98.133 119.075,97.073 C119.173,97.005 119.33,96.903 119.487,96.802 C119.812,96.593 120.119,96.395 120.388,96.168 L121.134,95.554 L121.904,94.832 C121.98,94.762 122.056,94.693 122.157,94.587 L122.796,93.868 C123.107,93.521 123.325,93.222 123.549,92.917 L123.866,92.49 C125.415,90.269 126.248,88.315 126.454,86.39 C126.947,81.78 126.028,77.931 123.722,74.948 C120.619,70.936 115.998,70.137 114.656,69.988 C109.196,69.384 105.037,72.275 103.599,73.889 C102.459,75.169 101.208,78.315 101.208,79.901 C101.208,82.722 102.647,85.301 105.056,86.799 C106.349,87.603 107.829,88.028 109.336,88.028 C111.257,87.938 114.393,86.346 115.126,85.602 C115.607,85.113 116.359,85.012 116.952,85.359 C117.544,85.705 117.826,86.409 117.636,87.069 C117.589,87.231 116.439,91.06 111.784,92.51 C109.285,93.288 103.964,93.227 99.072,90.286 C98.696,91.929 98.154,93.749 97.809,94.856 C98.266,95.223 98.852,95.679 99.332,96.006 C99.486,96.047 99.636,96.114 99.775,96.208 L99.781,96.211 L99.791,96.218 C100.426,96.643 101.175,97.098 102.08,97.609 C102.871,98.054 104.37,98.663 106.3,99.087 L106.562,99.144 C106.927,99.22 107.267,99.283 107.616,99.335 L107.749,99.358 L107.829,99.373 L107.829,99.373 Z" id="Fill-9" fill="#4A5861" sketch:type="MSShapeGroup"></path>
                <path d="M98.308,91.697 C98.181,92.747 97.393,95.147 97.393,95.147 C98.822,96.01 99.57,96.733 101.343,97.775 C101.744,97.98 102.158,98.181 102.614,98.348 C102.983,98.494 103.359,98.644 103.742,98.796 C104.143,98.914 104.551,99.035 104.966,99.158 C105.723,99.407 106.553,99.527 107.395,99.679 C107.503,99.696 107.61,99.714 107.719,99.728 C108.927,99.869 110.207,99.904 111.521,99.816 C111.907,99.777 112.292,99.729 112.67,99.655 C109.678,99.685 103.181,100.794 98.308,91.697" id="Fill-10" fill="#ECEDEB" sketch:type="MSShapeGroup"></path>
                <path d="M109.796,87.167 C105.143,86.748 101.712,82.636 102.132,77.984 C102.311,75.993 103.171,74.229 104.455,72.892 C102.388,74.262 100.937,76.52 100.697,79.181 C100.277,83.833 103.709,87.945 108.361,88.364 C111.023,88.605 113.504,87.581 115.221,85.792 C113.676,86.817 111.787,87.347 109.796,87.167" id="Fill-11" fill="#ECEDEB" sketch:type="MSShapeGroup"></path>
                <path d="M82.142,80.096 C81.508,80.612 79.37,82.274 76.907,84.146 L77.151,84.314 C79.5,83.918 81.726,83.376 83.785,82.739 C84.306,81.743 84.651,80.708 84.765,79.644 C83.901,79.809 83.027,79.961 82.142,80.096" id="Fill-12" fill="#FFFFFF" sketch:type="MSShapeGroup"></path>
                <path d="M69.927,81.039 C68.62,81.963 67.004,83.083 65.385,84.197 C65.713,84.444 66.042,84.691 66.37,84.937 C67.25,84.98 68.142,85.005 69.048,85.005 C70.746,85.005 72.407,84.908 74.024,84.74 C74.265,84.558 74.506,84.378 74.746,84.197 C73.125,83.081 71.507,81.96 70.199,81.036 C70.109,81.037 70.018,81.039 69.927,81.039" id="Fill-13" fill="#FFFFFF" sketch:type="MSShapeGroup"></path>
                <path d="M79.669,80.433 C77.286,80.718 74.837,80.901 72.331,80.987 C73.42,81.746 74.62,82.575 75.81,83.393 C77.274,82.282 78.634,81.237 79.669,80.433" id="Fill-14" fill="#FFFFFF" sketch:type="MSShapeGroup"></path>
                <path d="M63.224,84.146 C61.182,82.594 59.375,81.195 58.452,80.465 C57.122,80.31 55.81,80.129 54.525,79.907 C54.699,81.114 55.161,82.283 55.836,83.395 C57.917,83.911 60.164,84.333 62.541,84.615 C62.766,84.46 62.994,84.304 63.224,84.146" id="Fill-15" fill="#FFFFFF" sketch:type="MSShapeGroup"></path>
                <path d="M67.727,81.037 C65.376,81.01 63.068,80.901 60.812,80.705 C61.796,81.467 63.021,82.406 64.321,83.393 C65.484,82.593 66.658,81.783 67.727,81.037" id="Fill-16" fill="#FFFFFF" sketch:type="MSShapeGroup"></path>
                <path d="M84.765,79.644 C83.901,79.809 83.027,79.961 82.142,80.096 C81.507,80.612 79.37,82.274 76.907,84.146 L77.151,84.314 C79.5,83.918 81.726,83.376 83.785,82.739 C90.077,80.792 94.816,77.991 96.825,75.961 C93.149,77.599 89.098,78.813 84.765,79.644" id="Fill-17" fill="#D0D5D7" sketch:type="MSShapeGroup"></path>
                <path d="M69.927,81.039 C68.62,81.963 67.004,83.083 65.385,84.197 C65.713,84.444 66.041,84.691 66.37,84.937 C67.25,84.98 68.142,85.005 69.048,85.005 C70.746,85.005 72.407,84.907 74.024,84.739 C74.265,84.558 74.506,84.378 74.746,84.197 C73.125,83.081 71.507,81.96 70.199,81.036 C70.109,81.037 70.018,81.038 69.927,81.039" id="Fill-18" fill="#D0D5D7" sketch:type="MSShapeGroup"></path>
                <path d="M72.331,80.987 C73.42,81.746 74.62,82.574 75.81,83.393 C77.274,82.282 78.634,81.237 79.669,80.433 C77.286,80.718 74.837,80.901 72.331,80.987" id="Fill-19" fill="#D0D5D7" sketch:type="MSShapeGroup"></path>
                <path d="M54.525,79.908 C51.614,79.408 48.821,78.737 46.176,77.877 C45.739,78.321 31.476,69.976 31.08,70.393 C39.685,78.141 51.278,82.266 55.836,83.395 C57.917,83.911 60.164,84.333 62.541,84.615 C62.766,84.46 62.994,84.304 63.224,84.146 C61.182,82.594 59.375,81.195 58.452,80.465 C57.122,80.31 55.81,80.128 54.525,79.908" id="Fill-20" fill="#D0D5D7" sketch:type="MSShapeGroup"></path>
                <path d="M60.812,80.705 C61.796,81.467 63.021,82.406 64.321,83.393 C65.484,82.593 66.657,81.783 67.727,81.038 C65.377,81.01 63.068,80.901 60.812,80.705" id="Fill-21" fill="#D0D5D7" sketch:type="MSShapeGroup"></path>
                <path d="M66.37,84.937 C66.041,84.691 65.713,84.444 65.385,84.197 C65.085,84.403 64.786,84.609 64.488,84.814 L64.287,84.952 C65.888,86.16 67.543,87.392 68.974,88.425 C69.315,88.188 69.676,87.933 70.065,87.654 C68.952,86.855 67.669,85.909 66.37,84.937" id="Fill-22" fill="#4A5861" sketch:type="MSShapeGroup"></path>
                <path d="M71.538,88.69 C71.419,88.608 71.284,88.514 71.158,88.425 C70.776,88.701 70.408,88.965 70.065,89.206 C70.344,89.403 70.611,89.589 70.857,89.758 C72.025,90.558 73.244,91.504 74.024,92.044 C74.403,91.819 74.645,91.361 75.046,91.106 C74.271,90.564 73.02,89.706 71.538,88.69" id="Fill-23" fill="#4A5861" sketch:type="MSShapeGroup"></path>
                <path d="M60.812,80.705 C60.018,80.636 59.232,80.556 58.452,80.465 C59.375,81.195 61.182,82.594 63.224,84.146 C63.586,83.898 63.953,83.646 64.321,83.393 C63.021,82.406 61.796,81.467 60.812,80.705" id="Fill-24" fill="#4A5861" sketch:type="MSShapeGroup"></path>
                <path d="M68.927,81.052 C68.524,81.052 68.128,81.042 67.727,81.038 C66.657,81.783 65.484,82.593 64.321,83.393 C63.953,83.646 63.586,83.898 63.224,84.146 C62.994,84.304 62.766,84.46 62.541,84.615 C62.218,84.837 61.899,85.055 61.592,85.266 C60.574,85.964 59.663,86.589 58.939,87.088 C59.256,87.385 59.579,87.674 59.91,87.956 C60.593,87.486 61.403,86.93 62.273,86.333 C62.912,85.895 63.593,85.428 64.287,84.952 L64.488,84.814 C64.786,84.609 65.085,84.403 65.385,84.197 C67.004,83.083 68.62,81.963 69.927,81.039 C69.593,81.043 69.263,81.052 68.927,81.052" id="Fill-25" fill="#4A5861" sketch:type="MSShapeGroup"></path>
                <path d="M78.538,85.266 C78.093,84.96 77.627,84.641 77.151,84.314 L76.907,84.146 C76.79,84.234 76.676,84.322 76.558,84.411 C76.322,84.59 76.083,84.771 75.844,84.952 C76.538,85.428 77.219,85.895 77.858,86.333 C78.531,86.795 79.168,87.232 79.74,87.625 C80.065,87.338 80.381,87.044 80.69,86.742 C80.063,86.311 79.334,85.811 78.538,85.266" id="Fill-26" fill="#4A5861" sketch:type="MSShapeGroup"></path>
                <path d="M70.199,81.036 C71.507,81.96 73.657,83.432 75.278,84.548 C75.636,84.278 75.991,84.01 76.342,83.744 C75.152,82.926 73.42,81.746 72.331,80.987 C71.625,81.011 70.914,81.027 70.199,81.036" id="Fill-27" fill="#4A5861" sketch:type="MSShapeGroup"></path>
                <path d="M79.981,80.219 C78.946,81.023 77.586,82.068 76.122,83.179 C75.771,83.444 75.416,83.713 75.058,83.983 C74.818,84.164 74.577,84.344 74.336,84.525 C72.948,85.566 71.567,86.587 70.378,87.44 C69.988,87.719 69.627,87.974 69.286,88.211 C69.159,88.3 69.024,88.394 68.905,88.476 C67.128,89.695 65.676,90.69 64.989,91.178 C65.401,91.433 65.796,91.668 66.178,91.89 C66.967,91.34 68.206,90.491 69.586,89.543 C69.832,89.375 70.098,89.189 70.378,88.992 C70.72,88.751 71.089,88.487 71.47,88.211 C72.9,87.179 74.556,85.946 76.156,84.738 C76.395,84.557 76.634,84.376 76.87,84.197 C76.988,84.108 77.102,84.02 77.219,83.932 C79.682,82.06 81.82,80.398 82.454,79.882 C81.638,80.007 80.814,80.119 79.981,80.219" id="Fill-28" fill="#4A5861" sketch:type="MSShapeGroup"></path>
                <path d="M28.781,65.608 C22.267,69.106 15.837,73.756 10.137,79.939 C8.317,81.914 6.57,84.043 4.92,86.344 C9.237,84.868 13.212,83.847 16.656,83.198 C18.713,82.81 20.583,82.553 22.207,82.424 L22.222,82.399 L22.267,82.315 C25.13,77.495 28.788,72.747 33.597,68.275 C32.213,67.611 30.069,66.478 28.781,65.608" id="Fill-29" fill="#FFFFFF" sketch:type="MSShapeGroup"></path>
                <path d="M0.967,89.28 L3.701,85.469 C5.334,83.192 7.129,80.99 9.034,78.922 C14.38,73.124 20.785,68.2 28.072,64.287 L28.87,63.858 L29.621,64.365 C30.81,65.168 32.852,66.254 34.246,66.922 L36.23,67.874 L34.618,69.373 C30.229,73.457 26.61,77.94 23.556,83.082 L23.16,83.75 L22.326,83.919 C20.719,84.047 18.905,84.3 16.934,84.672 C13.254,85.366 9.375,86.406 5.405,87.763 L0.967,89.28 L0.967,89.28 Z M28.72,67.35 C22.047,71.034 16.17,75.608 11.24,80.956 C10.484,81.776 9.746,82.619 9.03,83.479 C11.538,82.76 13.997,82.173 16.378,81.724 C18.144,81.391 19.798,81.147 21.308,80.999 C24.07,76.447 27.266,72.389 31.032,68.658 C30.233,68.234 29.42,67.778 28.72,67.35 L28.72,67.35 Z" id="Fill-30" fill="#4A5861" sketch:type="MSShapeGroup"></path>
                <path d="M18.566,81.598 C18.56,81.628 21.488,81.002 22.893,81.884 C22.938,79.527 34.496,69.324 29.814,67.701 C27.762,69.496 20.136,78.067 18.566,81.598" id="Fill-31" fill="#ECEDEB" sketch:type="MSShapeGroup"></path>
                <path d="M49.925,71.4 C49.691,71.402 49.459,71.399 49.226,71.398 C47.838,71.392 45.315,71.218 45.127,71.201 L44.94,71.183 C40.77,70.774 36.826,69.774 33.188,68.091 C29.194,72.193 25.416,76.94 22.222,82.399 L22.214,82.417 C21.784,83.215 21.33,84.07 20.867,84.954 C20.048,86.524 19.199,88.208 18.399,89.977 C17.18,92.823 16.121,95.827 15.266,99.002 L15.266,99.003 L15.334,98.948 C21.964,93.501 28.035,89.957 32.091,88.387 C34.085,87.615 35.599,87.313 36.44,87.51 C38.997,88.11 46.332,84.434 47.771,78.297 L47.835,78.06 C48.141,76.896 48.827,75.147 49.78,73.035 C50.016,72.511 50.273,71.96 50.539,71.397 C50.333,71.401 50.13,71.398 49.925,71.4" id="Fill-32" fill="#FFFFFF" sketch:type="MSShapeGroup"></path>
                <path d="M15.281,100.464 C15.002,100.464 14.726,100.39 14.486,100.235 C13.939,99.882 13.648,99.242 13.818,98.613 C14.657,95.493 15.734,92.389 17.02,89.387 C17.725,87.828 18.521,86.208 19.538,84.26 C20.004,83.369 20.46,82.509 20.893,81.705 C23.951,76.475 27.714,71.563 32.113,67.044 C32.557,66.588 33.241,66.462 33.818,66.729 C37.196,68.293 40.987,69.289 45.086,69.69 L45.279,69.708 C45.503,69.728 47.949,69.892 49.233,69.898 L49.916,69.9 L50.508,69.897 C50.993,69.863 51.515,70.145 51.798,70.58 C52.081,71.016 52.118,71.567 51.896,72.037 C51.634,72.593 51.38,73.136 51.146,73.653 C49.954,76.298 49.476,77.717 49.286,78.442 L49.251,78.569 C48.262,82.773 45.148,85.441 43.378,86.664 C40.742,88.485 37.883,89.389 36.098,88.971 C35.782,88.895 34.7,88.985 32.633,89.786 C28.154,91.519 22.044,95.377 16.286,100.107 C16.001,100.34 15.64,100.464 15.281,100.464 L15.281,100.464 Z M23.516,83.156 C23.067,83.997 22.636,84.81 22.196,85.65 C21.207,87.545 20.435,89.117 19.766,90.595 C19.166,91.997 18.611,93.429 18.107,94.877 C22.971,91.265 27.711,88.474 31.55,86.988 C33.895,86.081 35.606,85.776 36.783,86.05 C37.445,86.206 39.459,85.724 41.673,84.195 C43.088,83.218 45.571,81.108 46.311,77.954 L46.365,77.75 C46.681,76.552 47.295,74.933 48.208,72.875 C46.825,72.825 45.186,72.712 44.991,72.694 L44.87,72.683 C40.756,72.28 36.97,71.343 33.542,69.888 C29.621,74.024 26.251,78.483 23.517,83.156 L23.516,83.156 L23.516,83.156 Z" id="Fill-33" fill="#4A5861" sketch:type="MSShapeGroup"></path>
                <path d="M58.024,72.231 C61.525,72.51 65.295,72.585 69.226,72.585 L69.243,72.585 C65.307,72.585 61.533,72.51 58.03,72.229 L58.024,72.231" id="Fill-34" fill="#6D6F8D" sketch:type="MSShapeGroup"></path>
                <path d="M70.065,80.941 L69.927,81.039 C70.018,81.039 70.109,81.037 70.199,81.036 L70.065,80.941" id="Fill-35" fill="#6D6F8D" sketch:type="MSShapeGroup"></path>
                <path d="M39.486,65.322 C39.201,64.985 38.928,64.636 38.675,64.267 L38.655,64.268 C38.909,64.639 39.183,64.989 39.47,65.328 L39.486,65.322" id="Fill-36" fill="#6D6F8D" sketch:type="MSShapeGroup"></path>
                <path d="M52.732,71.594 C53.604,71.741 54.501,71.867 55.421,71.975 L55.422,71.972 C54.503,71.864 53.608,71.737 52.736,71.59 L52.732,71.594" id="Fill-37" fill="#6D6F8D" sketch:type="MSShapeGroup"></path>
                <path d="M55.422,71.971 L55.421,71.975 C56.271,72.074 57.138,72.16 58.024,72.231 L58.03,72.229 C57.141,72.158 56.273,72.071 55.422,71.971" id="Fill-38" fill="#6D6F8D" sketch:type="MSShapeGroup"></path>
                <path d="M39.55,65.395 L39.486,65.322 L39.476,65.326 L39.534,65.4 L39.55,65.395" id="Fill-39" fill="#6D6F8D" sketch:type="MSShapeGroup"></path>
                <path d="M52.736,71.59 C52.494,71.55 52.249,71.512 52.011,71.468 L52.006,71.472 C52.245,71.516 52.49,71.554 52.732,71.594 L52.736,71.59" id="Fill-40" fill="#6D6F8D" sketch:type="MSShapeGroup"></path>
                <path d="M39.55,65.395 L39.534,65.4 C40.185,66.159 40.913,66.845 41.72,67.453 L41.724,67.439 C40.921,66.833 40.198,66.15 39.55,65.395" id="Fill-41" fill="#6D6F8D" sketch:type="MSShapeGroup"></path>
                <path d="M41.724,67.439 L41.72,67.453 C44.406,69.477 47.917,70.719 52.006,71.472 L52.011,71.468 C47.919,70.713 44.408,69.468 41.724,67.439" id="Fill-42" fill="#6D6F8D" sketch:type="MSShapeGroup"></path>
                <path d="M83.938,71.863 L83.94,71.868 C89.5,71.136 94.181,69.689 97.457,66.901 L97.449,66.87 C94.181,69.672 89.501,71.127 83.938,71.863" id="Fill-43" fill="#CDAC7C" sketch:type="MSShapeGroup"></path>
                <path d="M58.346,67.244 L58.356,67.233 L58.331,67.212 L58.346,67.244" id="Fill-44" fill="#CDAC7C" sketch:type="MSShapeGroup"></path>
                <path d="M58.057,66.913 C58.142,67.01 58.226,67.108 58.32,67.201 C58.246,67.091 58.18,66.978 58.116,66.864 L58.057,66.913" id="Fill-45" fill="#FFFFFF" sketch:type="MSShapeGroup"></path>
                <path d="M69.97,23.93 L61.602,32.298 L61.721,32.417 C64.144,32.185 66.665,32.072 69.26,32.072 C69.498,32.072 69.733,32.076 69.97,32.079 C72.774,32.1 75.491,32.251 78.083,32.553 L78.337,32.298 L69.97,23.93" id="Fill-48" fill="#FFFFFF" sketch:type="MSShapeGroup"></path>
                <path d="M69.226,32.094 C66.65,32.094 64.146,32.205 61.738,32.435 L69.97,40.666 L78.059,32.576 C75.474,32.276 72.765,32.124 69.97,32.1 C69.721,32.098 69.475,32.094 69.226,32.094" id="Fill-49" fill="#FFFFFF" sketch:type="MSShapeGroup"></path>
                <path d="M100.74,45.447 C100.795,45.57 100.854,45.69 100.906,45.815 C101.925,48.237 102.479,51.031 102.479,54.247 C102.479,60.131 100.633,64.139 97.449,66.87 L97.455,66.89 C100.668,64.168 102.531,60.15 102.531,54.237 C102.531,40.275 92.174,34.192 78.083,32.553 L78.06,32.577 C88.723,33.819 97.236,37.616 100.74,45.447" id="Fill-50" fill="#CDAC7C" sketch:type="MSShapeGroup"></path>
                <path d="M70.199,94.422 C64.993,94.422 54.326,85.489 53.532,79.227 C53.464,78.689 53.837,78.195 54.373,78.113 C55.699,77.909 59.547,78.052 63.622,78.203 C66.052,78.293 68.347,78.378 69.928,78.38 C72.82,78.401 76.432,78.245 79.621,78.105 C81.891,78.007 84.035,77.914 85.636,77.896 C85.973,77.906 86.237,78.032 86.429,78.273 C86.621,78.514 86.691,78.831 86.619,79.13 C85.824,82.426 84.306,84.435 81.41,87.437 C81.095,87.763 80.775,88.107 80.447,88.459 C77.973,91.116 74.895,94.422 70.199,94.422 L70.199,94.422 Z M55.757,80.02 C57.422,85.165 66.233,92.422 70.199,92.422 C74.024,92.422 76.659,89.592 78.983,87.096 C79.32,86.735 79.648,86.382 79.97,86.048 C82.292,83.642 83.552,82.086 84.307,79.924 C82.957,79.962 81.366,80.031 79.708,80.103 C76.496,80.244 72.862,80.407 69.919,80.38 C68.309,80.378 65.996,80.293 63.547,80.202 C60.686,80.096 57.521,79.979 55.757,80.02 L55.757,80.02 Z" id="Fill-51" fill="#4A5861" sketch:type="MSShapeGroup"></path>
                <path d="M61.721,32.417 C53.412,33.215 46.292,35.473 41.664,39.871 C46.299,35.479 53.424,33.227 61.738,32.435 L61.721,32.417" id="Fill-52" fill="#CDAC7C" sketch:type="MSShapeGroup"></path>
                <path d="M39.071,9.344 C43.263,5.719 57.777,2.005 70.12,1.571 C81.269,1.179 93.746,4.527 101.452,8.419 C112.431,4.114 135.326,24.554 136.058,28.242 C136.639,31.173 124.412,30.422 110.641,26.386 C110.641,26.386 114.393,40.144 114.234,47.745 C114.059,56.135 113.743,61.52 109.433,66.522 C108.503,67.602 107.495,68.612 106.407,69.551 C106.303,69.64 106.196,69.728 106.089,69.812 C96.901,77.013 80.066,80.21 68.698,80.21 C57.33,80.21 45.137,77.28 41.801,75.962 C26.699,69.993 24.384,59.561 24.362,47.074 C24.352,41.365 25.992,29.177 27.168,23.931 C21.387,31.533 9.831,34.4 4.614,32.094 C0.531,30.29 24.472,0.316 39.071,9.344" id="Fill-53" fill="#FFFFFF" sketch:type="MSShapeGroup"></path>
                <path d="M68.698,81.71 C56.991,81.71 44.49,78.637 41.25,77.356 C26.023,71.338 22.887,60.899 22.862,47.077 C22.854,42.75 23.781,34.621 24.781,28.514 C18.281,33.814 9.017,35.679 4.007,33.466 C3.208,33.113 2.716,32.365 2.658,31.414 C2.401,27.251 11.762,15.643 21.329,9.917 C28.053,5.894 34.118,5.087 38.947,7.554 C44.266,3.898 58.24,0.488 70.067,0.072 C81.518,-0.333 93.99,3.115 101.554,6.795 C105.54,5.56 110.873,6.746 117.42,10.327 C126.842,15.483 136.9,24.776 137.529,27.95 C137.697,28.8 137.419,29.63 136.764,30.228 C133.792,32.944 121.603,30.883 112.741,28.529 C113.825,32.917 115.856,41.971 115.734,47.776 C115.552,56.501 115.205,62.122 110.569,67.501 C109.588,68.641 108.517,69.713 107.386,70.687 C107.266,70.791 107.142,70.892 107.016,70.991 C97.619,78.356 80.566,81.71 68.698,81.71 L68.698,81.71 Z M27.168,22.431 C27.381,22.431 27.597,22.476 27.8,22.57 C28.44,22.868 28.785,23.57 28.631,24.259 C27.53,29.173 25.852,41.349 25.862,47.071 C25.885,60.031 28.652,69.151 42.352,74.566 C45.437,75.786 57.398,78.71 68.698,78.71 C80.067,78.71 96.328,75.556 105.163,68.632 L105.43,68.413 C106.447,67.537 107.412,66.571 108.296,65.543 C112.27,60.932 112.562,56.012 112.735,47.713 C112.887,40.419 109.23,26.916 109.193,26.78 C109.051,26.256 109.202,25.696 109.59,25.315 C109.978,24.934 110.541,24.794 111.063,24.946 C123.53,28.6 132.405,28.975 134.436,28.179 C133.07,25.615 123.877,16.886 114.495,12.18 C109.178,9.512 104.858,8.695 102,9.816 C101.603,9.973 101.158,9.951 100.776,9.758 C93.623,6.145 81.38,2.672 70.173,3.07 C57.313,3.523 43.664,7.355 40.052,10.479 C39.556,10.907 38.839,10.965 38.282,10.62 C33.116,7.424 26.724,10.073 22.271,12.857 C13.221,18.516 6.122,28.233 5.671,30.898 C10.312,32.497 20.673,29.992 25.974,23.023 C26.265,22.64 26.711,22.431 27.168,22.431 L27.168,22.431 Z" id="Fill-54" fill="#4A5861" sketch:type="MSShapeGroup"></path>
                <path d="M37.74,45.405 L37.733,45.407 C37.672,45.533 37.613,45.656 37.56,45.782 L37.571,45.781 C37.624,45.653 37.684,45.53 37.74,45.405" id="Fill-55" fill="#6D6F8D" sketch:type="MSShapeGroup"></path>
                <path d="M37.74,45.405 L37.733,45.407 C37.672,45.533 37.613,45.656 37.56,45.782 L37.571,45.781 C37.624,45.653 37.684,45.53 37.74,45.405" id="Fill-56" fill="#5A6076" sketch:type="MSShapeGroup"></path>
                <path d="M41.664,39.871 C40.015,41.434 38.69,43.275 37.728,45.408 L37.74,45.405 C38.698,43.273 40.02,41.434 41.664,39.871" id="Fill-57" fill="#BCBDBB" sketch:type="MSShapeGroup"></path>
                <path d="M69.623,33.099 C49.1,33.099 36.935,40.589 36.935,54.589 C36.935,69.155 50.182,73.001 69.738,73.001 C89.293,73.001 102.54,69.169 102.54,54.589 C102.54,39.788 90.146,33.099 69.623,33.099" id="Fill-58" fill="#FFFFFF" sketch:type="MSShapeGroup"></path>
                <path d="M69.738,74.001 C39.778,74.001 35.935,63.626 35.935,54.588 C35.935,40.296 48.214,32.099 69.623,32.099 C91.812,32.099 103.54,39.875 103.54,54.588 C103.54,71.794 85.476,74.001 69.738,74.001 M69.623,34.099 C49.189,34.099 37.935,41.376 37.935,54.588 C37.935,66.794 47.446,72.001 69.738,72.001 C92.029,72.001 101.54,66.794 101.54,54.588 C101.54,40.992 90.802,34.099 69.623,34.099" id="Fill-59" fill="#4A5861" sketch:type="MSShapeGroup"></path>
                <path d="M78.338,32.298 L78.083,32.553 L78.338,32.298 L69.97,23.931 L78.338,32.298" id="Fill-60" fill="#FFFFFF" sketch:type="MSShapeGroup"></path>
                <path d="M78.059,32.577 L78.06,32.577 L78.083,32.553 L78.059,32.577" id="Fill-61" fill="#FFFFFF" sketch:type="MSShapeGroup"></path>
                <path id="Fill-62" fill="#6D6F8D" sketch:type="MSShapeGroup"></path>
                <path d="M56.303,45.999 C56.025,45.999 55.739,46.029 55.453,46.094 C54.983,46.197 54.566,46.388 54.155,46.674 C53.393,47.254 53.047,48.111 53.068,48.94 C53.091,49.862 53.574,50.15 54.248,50.15 C54.833,50.15 55.562,49.933 56.259,49.726 C57.759,49.28 59.837,49.745 58.716,47.26 C58.363,46.477 57.398,45.999 56.303,45.999" id="Fill-63" fill="#B1C8CE" sketch:type="MSShapeGroup"></path>
                <path d="M83.383,45.898 C82.341,45.898 81.421,46.338 81.056,47.078 C79.851,49.522 81.943,49.129 83.427,49.627 C84.147,49.869 84.902,50.122 85.499,50.122 C86.132,50.122 86.589,49.838 86.643,48.953 C86.692,48.125 86.377,47.257 85.635,46.65 C85.235,46.351 84.825,46.145 84.359,46.025 C84.03,45.94 83.701,45.898 83.383,45.898" id="Fill-64" fill="#B1C8CE" sketch:type="MSShapeGroup"></path>
                <path d="M70.184,41.78 C83.284,41.78 93.774,43.67 100.74,45.447 C97.343,37.854 89.088,34.173 78.749,32.968 L70.906,40.811 L62.924,32.83 C54.863,33.598 47.954,35.782 43.46,40.041 C41.866,41.556 40.585,43.34 39.656,45.406 C46.568,43.642 56.985,41.78 70.184,41.78" id="Fill-65" fill="#A9C3CA" sketch:type="MSShapeGroup"></path>
                <path d="M100.74,46.447 L100.493,46.416 C93.99,44.757 83.453,42.78 70.184,42.78 C56.8,42.78 46.33,44.735 39.903,46.375 C39.532,46.47 39.137,46.343 38.89,46.05 C38.643,45.756 38.586,45.346 38.744,44.996 C39.709,42.851 41.064,40.94 42.772,39.316 C47.108,35.206 53.856,32.69 62.829,31.835 C63.129,31.806 63.42,31.913 63.631,32.123 L70.905,39.397 L78.042,32.261 C78.258,32.045 78.563,31.943 78.865,31.975 C90.726,33.357 98.393,37.752 101.653,45.039 C101.81,45.389 101.753,45.797 101.505,46.091 C101.313,46.32 101.031,46.447 100.74,46.447 L100.74,46.447 Z M72.334,40.797 C83.443,40.974 92.536,42.491 98.813,43.948 C95.46,38.57 88.847,35.235 79.112,34.019 L72.334,40.797 L72.334,40.797 Z M62.551,33.872 C54.269,34.724 48.079,37.042 44.149,40.767 C43.157,41.708 42.299,42.76 41.585,43.908 C48.066,42.406 57.621,40.843 69.461,40.782 L62.551,33.872 L62.551,33.872 Z" id="Fill-66" fill="#4A5861" sketch:type="MSShapeGroup"></path>
                <path d="M134.522,28.329 C134.214,28.521 133.41,29.101 126.817,28.561 C121.841,28.153 115.547,26.501 110.442,25.156 C115.023,59.204 114.856,62.905 97.996,73.335 C106.404,65.831 111.253,60.28 109.472,42.639 C108.76,35.597 105.938,24.927 109.686,23.076 C112.161,21.679 118.181,24.196 122.953,25.337 C128.561,26.677 131.573,27.655 134.522,28.329" id="Fill-67" fill="#ECEDEB" sketch:type="MSShapeGroup"></path>
                <path d="M71.04,23.647 L79.748,32.355 L71.04,41.064 L62.331,32.355 L71.04,23.647" id="Fill-68" fill="#FFFFFF" sketch:type="MSShapeGroup"></path>
                <path d="M71.04,42.064 C70.784,42.064 70.528,41.966 70.333,41.771 L61.624,33.062 C61.436,32.875 61.331,32.621 61.331,32.355 C61.331,32.09 61.436,31.836 61.624,31.648 L70.333,22.94 C70.723,22.549 71.356,22.549 71.747,22.94 L80.455,31.648 C80.846,32.039 80.846,32.672 80.455,33.062 L71.747,41.771 C71.551,41.966 71.295,42.064 71.04,42.064 L71.04,42.064 Z M63.745,32.355 L71.04,39.65 L78.334,32.355 L71.04,25.061 L63.745,32.355 L63.745,32.355 Z" id="Fill-69" fill="#4A5861" sketch:type="MSShapeGroup"></path>
                <path d="M60.146,55.923 C60.146,57.645 58.75,59.041 57.028,59.041 C55.306,59.041 53.91,57.645 53.91,55.923 C53.91,54.201 55.306,52.806 57.028,52.806 C58.75,52.806 60.146,54.201 60.146,55.923" id="Fill-70" fill="#4A5861" sketch:type="MSShapeGroup"></path>
                <path d="M56.72,56.725 C56.72,56.954 56.534,57.14 56.305,57.14 C56.076,57.14 55.89,56.954 55.89,56.725 C55.89,56.496 56.076,56.311 56.305,56.311 C56.534,56.311 56.72,56.496 56.72,56.725" id="Fill-71" fill="#FFFFFF" sketch:type="MSShapeGroup"></path>
                <path d="M58.903,55.116 C58.903,55.662 58.46,56.105 57.914,56.105 C57.368,56.105 56.925,55.662 56.925,55.116 C56.925,54.57 57.368,54.128 57.914,54.128 C58.46,54.128 58.903,54.57 58.903,55.116" id="Fill-72" fill="#FFFFFF" sketch:type="MSShapeGroup"></path>
                <path d="M86.075,55.43 C86.075,57.152 84.679,58.548 82.957,58.548 C81.236,58.548 79.84,57.152 79.84,55.43 C79.84,53.708 81.236,52.312 82.957,52.312 C84.679,52.312 86.075,53.708 86.075,55.43" id="Fill-73" fill="#4A5861" sketch:type="MSShapeGroup"></path>
                <path d="M83.477,56.232 C83.477,56.461 83.663,56.646 83.892,56.646 C84.121,56.646 84.307,56.461 84.307,56.232 C84.307,56.003 84.121,55.817 83.892,55.817 C83.663,55.817 83.477,56.003 83.477,56.232" id="Fill-74" fill="#FFFFFF" sketch:type="MSShapeGroup"></path>
                <path d="M81.295,54.623 C81.295,55.169 81.737,55.611 82.283,55.611 C82.829,55.611 83.272,55.169 83.272,54.623 C83.272,54.077 82.829,53.634 82.283,53.634 C81.737,53.634 81.295,54.077 81.295,54.623" id="Fill-75" fill="#FFFFFF" sketch:type="MSShapeGroup"></path>
                <path d="M80.557,62.266 C80.557,66.073 76.107,68.331 70.618,68.331 C65.13,68.331 60.68,66.073 60.68,62.266 C60.68,58.459 65.13,54.542 70.618,54.542 C76.107,54.542 80.557,58.459 80.557,62.266" id="Fill-76" fill="#FFFFFF" sketch:type="MSShapeGroup"></path>
                <path d="M74.159,58.748 C74.159,60.007 72.596,61.028 70.667,61.028 C68.739,61.028 67.176,60.007 67.176,58.748 C67.176,57.489 68.739,57.228 70.667,57.228 C72.596,57.228 74.159,57.489 74.159,58.748" id="Fill-77" fill="#4A5861" sketch:type="MSShapeGroup"></path>
                <path d="M70.668,57.805 C69.996,57.805 69.452,57.896 69.452,58.334 C69.452,58.773 69.996,59.128 70.668,59.128 C71.339,59.128 71.883,58.773 71.883,58.334 C71.883,57.896 71.339,57.805 70.668,57.805" id="Fill-78" fill="#CDCCCB" sketch:type="MSShapeGroup"></path>
                <path d="M70.619,66.332 C69.772,66.332 69.084,65.644 69.084,64.798 C69.084,63.952 69.772,63.263 70.619,63.263 C71.465,63.263 72.153,63.952 72.153,64.798 C72.153,65.644 71.465,66.332 70.619,66.332 L70.619,66.332 Z M70.619,64.332 C70.362,64.332 70.153,64.542 70.153,64.798 C70.153,65.054 70.362,65.263 70.619,65.263 C70.875,65.263 71.084,65.054 71.084,64.798 C71.084,64.542 70.875,64.332 70.619,64.332 L70.619,64.332 Z" id="Fill-79" fill="#4A5861" sketch:type="MSShapeGroup"></path>
                <path d="M99.153,119.376 L47.907,124.085 L44.946,91.855 L96.192,87.146 L99.153,119.376" id="Fill-80" fill="#BDDBE6" sketch:type="MSShapeGroup"></path>
                <path d="M47.907,125.585 C47.558,125.585 47.218,125.463 46.948,125.238 C46.642,124.984 46.449,124.618 46.413,124.222 L43.452,91.992 C43.415,91.596 43.538,91.201 43.792,90.896 C44.046,90.589 44.412,90.397 44.808,90.361 L96.055,85.652 C96.452,85.616 96.845,85.738 97.151,85.993 C97.457,86.247 97.649,86.613 97.686,87.009 L100.646,119.239 C100.722,120.064 100.115,120.794 99.29,120.87 L48.044,125.579 L47.907,125.585 L47.907,125.585 Z M46.576,93.211 L49.263,122.454 L97.522,118.02 L94.836,88.777 L46.576,93.211 L46.576,93.211 Z" id="Fill-81" fill="#4A5861" sketch:type="MSShapeGroup"></path>
                <path d="M45.148,89.135 C44.981,89.135 44.811,89.093 44.655,89.004 C44.175,88.731 44.007,88.12 44.28,87.64 C46.097,84.447 46.608,78.864 46.613,78.808 C46.662,78.258 47.145,77.856 47.697,77.9 C48.247,77.948 48.654,78.434 48.605,78.984 C48.583,79.23 48.048,85.061 46.019,88.629 C45.834,88.953 45.496,89.135 45.148,89.135" id="Fill-82" fill="#4A5861" sketch:type="MSShapeGroup"></path>
                <path d="M99.302,86.327 C98.532,86.327 98.237,85.21 95.858,76.217 C95.717,75.683 96.035,75.136 96.569,74.995 C97.104,74.853 97.65,75.171 97.792,75.706 C98.737,79.278 99.833,83.271 100.23,84.492 C100.361,84.634 100.45,84.818 100.475,85.03 C100.536,85.551 100.182,86.181 99.666,86.279 C99.53,86.305 99.412,86.327 99.302,86.327" id="Fill-83" fill="#4A5861" sketch:type="MSShapeGroup"></path>
                <path d="M75.051,95.799 C73.655,95.969 72.371,96.764 71.448,97.867 C70.288,97.017 68.851,96.553 67.455,96.723 C62.911,97.276 60.23,100.7 60.782,105.241 C61.583,111.825 71.639,116.487 72.784,116.997 C73.107,117.142 73.455,117.19 73.794,117.149 C74.132,117.108 74.459,116.978 74.738,116.759 C75.727,115.99 84.372,109.053 83.571,102.469 C83.019,97.927 79.595,95.246 75.051,95.799" id="Fill-84" fill="#E3656B" sketch:type="MSShapeGroup"></path>
                <path d="M73.562,118.663 C73.083,118.663 72.608,118.562 72.17,118.366 C70.177,117.477 60.175,112.669 59.293,105.422 C58.643,100.074 61.925,95.885 67.274,95.234 C68.595,95.072 69.96,95.332 71.217,95.97 C72.286,95.049 73.548,94.471 74.87,94.31 C80.222,93.659 84.409,96.94 85.06,102.288 C85.942,109.539 77.384,116.601 75.66,117.943 C75.174,118.322 74.591,118.564 73.975,118.638 C73.837,118.655 73.699,118.663 73.562,118.663 L73.562,118.663 Z M68.03,98.189 C67.897,98.189 67.766,98.196 67.636,98.212 C63.926,98.664 61.82,101.352 62.272,105.06 C62.841,109.739 69.531,113.904 73.395,115.627 L73.613,115.66 L73.815,115.577 C77.155,112.978 82.652,107.332 82.082,102.65 C81.631,98.941 78.939,96.841 75.233,97.288 C74.281,97.404 73.321,97.965 72.599,98.83 C72.091,99.436 71.2,99.546 70.562,99.077 C69.777,98.502 68.875,98.189 68.03,98.189 L68.03,98.189 Z" id="Fill-85" fill="#49575F" sketch:type="MSShapeGroup"></path>
                <path d="M54.111,99.385 C54.111,99.385 58.083,95.071 59.325,96.199 C59.988,96.801 61.485,99.875 59.317,100.924 C57.15,101.974 54.722,100.502 54.111,99.385" id="Fill-86" fill="#B6BFC3" sketch:type="MSShapeGroup"></path>
                <path d="M57.716,102.287 C55.738,102.287 53.906,101.094 53.233,99.864 C53.028,99.488 53.085,99.023 53.376,98.707 C55.111,96.824 58.279,93.899 59.997,95.459 C60.634,96.037 61.651,97.906 61.412,99.571 C61.265,100.591 60.691,101.37 59.753,101.824 C59.085,102.148 58.392,102.287 57.716,102.287 L57.716,102.287 Z M55.456,99.431 C56.212,100.057 57.629,100.631 58.882,100.024 C59.214,99.863 59.379,99.644 59.431,99.292 C59.555,98.459 58.999,97.362 58.72,97.015 C58.165,97.088 56.757,98.14 55.456,99.431 L55.456,99.431 Z" id="Fill-87" fill="#4A5861" sketch:type="MSShapeGroup"></path>
                <path d="M55.422,87.344 C55.422,87.344 57.926,94.217 58.532,95.101 C59.137,95.985 53.951,99.315 53.951,99.315 C53.951,99.315 48.4,93.579 47.152,87.988" id="Fill-88" fill="#FFFFFF" sketch:type="MSShapeGroup"></path>
                <path d="M53.952,100.315 C53.688,100.315 53.427,100.211 53.232,100.01 C52.998,99.768 47.47,94.005 46.176,88.206 C46.056,87.667 46.396,87.133 46.935,87.012 C47.472,86.894 48.008,87.231 48.128,87.771 C49.072,91.997 52.71,96.423 54.113,98.01 C55.663,96.959 57.059,95.834 57.49,95.284 C56.708,93.743 55.022,89.169 54.482,87.686 C54.293,87.168 54.56,86.593 55.079,86.404 C55.597,86.213 56.171,86.482 56.361,87.001 C57.568,90.313 59.018,94.036 59.357,94.536 C59.557,94.827 59.626,95.189 59.552,95.555 C59.292,96.84 56.656,98.766 54.492,100.156 C54.326,100.263 54.138,100.315 53.952,100.315" id="Fill-89" fill="#4A5861" sketch:type="MSShapeGroup"></path>
                <path d="M88.479,95.67 C88.479,95.67 84.506,91.356 83.265,92.484 C82.602,93.086 81.105,96.159 83.273,97.209 C85.44,98.259 87.868,96.787 88.479,95.67" id="Fill-90" fill="#B6BFC3" sketch:type="MSShapeGroup"></path>
                <path d="M84.874,98.572 C84.198,98.572 83.506,98.433 82.836,98.109 C81.899,97.655 81.325,96.875 81.178,95.856 C80.938,94.192 81.955,92.323 82.592,91.744 C84.312,90.183 87.479,93.108 89.214,94.992 C89.504,95.307 89.562,95.772 89.356,96.149 C88.684,97.379 86.853,98.572 84.874,98.572 L84.874,98.572 Z M83.869,93.299 C83.591,93.647 83.034,94.743 83.159,95.577 C83.211,95.929 83.376,96.148 83.709,96.309 C84.962,96.915 86.378,96.342 87.134,95.716 C85.833,94.425 84.425,93.373 83.869,93.299 L83.869,93.299 Z" id="Fill-91" fill="#4A5861" sketch:type="MSShapeGroup"></path>
                <path d="M86.866,85.305 C86.865,85.305 84.737,90.374 84.131,91.259 C83.526,92.143 88.712,95.473 88.712,95.473 C88.712,95.473 94.263,89.736 95.511,84.146" id="Fill-92" fill="#FFFFFF" sketch:type="MSShapeGroup"></path>
                <path d="M88.712,96.473 C88.526,96.473 88.338,96.421 88.172,96.314 C86.007,94.924 83.372,92.997 83.111,91.713 C83.038,91.347 83.106,90.985 83.306,90.694 C83.706,90.111 85.136,86.842 85.944,84.918 C86.157,84.408 86.743,84.168 87.253,84.383 C87.762,84.597 88.001,85.183 87.788,85.692 C87.462,86.468 85.941,90.067 85.18,91.451 C85.619,92.004 87.008,93.123 88.55,94.168 C89.954,92.581 93.592,88.155 94.535,83.928 C94.656,83.389 95.194,83.053 95.729,83.17 C96.268,83.29 96.608,83.825 96.487,84.364 C95.193,90.163 89.666,95.926 89.431,96.168 C89.237,96.369 88.976,96.473 88.712,96.473" id="Fill-93" fill="#4A5861" sketch:type="MSShapeGroup"></path>
            </g>
        </g>
    </g>
</svg>