<?xml version="1.0" encoding="UTF-8" standalone="no"?>
<svg width="125px" height="125px" viewBox="0 0 125 125" version="1.1" xmlns="http://www.w3.org/2000/svg" xmlns:xlink="http://www.w3.org/1999/xlink" xmlns:sketch="http://www.bohemiancoding.com/sketch/ns">
    <!-- Generator: Sketch 3.3.3 (12081) - http://www.bohemiancoding.com/sketch -->
    <title>slide-library-guide</title>
    <desc>Created with Sketch.</desc>
    <defs></defs>
    <g id="Page-1" stroke="none" stroke-width="1" fill="none" fill-rule="evenodd" sketch:type="MSPage">
        <g id="Search-Results" sketch:type="MSArtboardGroup" transform="translate(-772.000000, -375.000000)">
            <g id="slide-library-guide" sketch:type="MSLayerGroup" transform="translate(772.000000, 375.000000)">
                <path d="M115.673,58.22 C115.673,86.141 93.038,108.776 65.117,108.776 C37.196,108.776 14.561,86.141 14.561,58.22 C14.561,30.299 37.196,7.664 65.117,7.664 C93.038,7.664 115.673,30.299 115.673,58.22" id="Fill-1" fill="#C0E1ED" sketch:type="MSShapeGroup"></path>
                <path d="M65.364,47.733 L58.237,54.86 L58.338,54.962 C60.402,54.764 62.549,54.668 64.759,54.668 C64.962,54.668 65.162,54.671 65.364,54.673 C67.752,54.692 70.067,54.821 72.275,55.078 L72.491,54.86 L65.364,47.733" id="Fill-2" fill="#FFFFFF" sketch:type="MSShapeGroup"></path>
                <path d="M64.73,54.687 C62.536,54.687 60.403,54.781 58.352,54.977 L65.364,61.988 L72.255,55.097 C70.053,54.841 67.745,54.712 65.364,54.692 C65.153,54.69 64.943,54.687 64.73,54.687" id="Fill-3" fill="#FFFFFF" sketch:type="MSShapeGroup"></path>
                <path d="M65.087,114.912 C33.667,114.912 8.105,89.349 8.105,57.929 C8.105,26.508 33.667,0.946 65.087,0.946 C96.508,0.946 122.07,26.508 122.07,57.929 C122.07,89.349 96.508,114.912 65.087,114.912 M65.087,3.946 C35.321,3.946 11.105,28.163 11.105,57.929 C11.105,87.695 35.321,111.912 65.087,111.912 C94.854,111.912 119.07,87.695 119.07,57.929 C119.07,28.163 94.854,3.946 65.087,3.946" id="Fill-4" fill="#4A5861" sketch:type="MSShapeGroup"></path>
                <path d="M78.717,94.551 C75.452,94.587 69.55,94.994 65.327,94.964 C61.779,94.958 53.913,94.465 52.208,94.726 C52.814,99.508 61.459,106.924 65.559,106.924 C69.688,106.924 72.255,103.557 74.495,101.235 C76.827,98.818 78.07,97.237 78.717,94.551" id="Fill-5" fill="#FFFFFF" sketch:type="MSShapeGroup"></path>
                <path d="M112.159,90.407 C109.75,87.292 106.197,85.986 103.567,85.694 C98.119,85.088 94.223,88.125 93.054,89.437 C91.886,90.75 90.694,93.711 90.694,95.407 C90.694,98.348 92.249,100.921 94.575,102.368 C95.831,103.149 97.308,103.607 98.895,103.607 L98.964,103.604 L98.967,103.604 C100.925,103.515 103.89,102.02 104.738,101.159 C104.659,101.431 103.744,103.948 100.6,104.927 C98.304,105.643 93.076,105.034 89.032,101.778 C88.932,103.635 87.862,107.854 87.597,108.581 C87.561,108.681 87.597,108.581 87.597,108.581 C88.105,108.888 88.105,108.888 87.597,108.581 C87.649,108.628 89.115,109.868 89.995,110.401 C90.437,110.689 91.869,111.492 92.086,111.603 C91.189,111.097 90.543,110.695 90.04,110.359 C90.543,110.695 91.189,111.097 92.086,111.603 L92.114,111.619 C92.926,112.076 94.356,112.628 96.035,112.997 L96.3,113.055 C96.608,113.118 96.921,113.176 97.242,113.225 L97.436,113.26 L97.518,113.267 C98.571,113.407 99.675,113.448 100.757,113.341 C101.345,113.302 101.939,113.242 102.542,113.133 C104.32,112.811 106.133,112.182 107.859,111.124 C108.284,110.835 108.721,110.588 109.134,110.238 L109.756,109.727 L110.324,109.198 C110.464,109.062 110.568,108.978 110.739,108.8 L111.314,108.154 C111.723,107.698 111.966,107.329 112.289,106.904 C113.463,105.221 114.512,103.265 114.746,101.07 C115.252,96.35 114.057,92.86 112.159,90.407" id="Fill-6" fill="#6D6F8D" sketch:type="MSShapeGroup"></path>
                <path d="M99.508,114.903 C98.804,114.903 98.069,114.853 97.32,114.753 L97.15,114.733 L97.032,114.711 C96.67,114.655 96.331,114.593 95.997,114.524 L95.803,114.482 C94.068,114.101 92.45,113.528 91.385,112.929 C91.086,112.773 89.657,111.971 89.176,111.658 C88.422,111.202 87.329,110.312 86.841,109.905 C86.301,109.599 86.003,108.998 86.1,108.389 L86.101,108.384 L86.101,108.382 L86.102,108.375 L86.102,108.373 L86.103,108.371 L86.104,108.364 L86.104,108.363 L86.105,108.361 L86.105,108.357 L86.105,108.355 L86.106,108.352 L86.107,108.349 L86.107,108.346 L86.108,108.343 L86.109,108.337 L86.109,108.335 L86.11,108.333 L86.11,108.33 L86.111,108.327 L86.112,108.323 L86.112,108.321 L86.113,108.316 L86.114,108.313 L86.114,108.312 L86.115,108.309 L86.115,108.307 L86.116,108.304 L86.117,108.3 L86.117,108.297 L86.118,108.295 L86.17,108.116 L86.172,108.112 L86.177,108.097 L86.184,108.078 C86.447,107.312 87.445,103.359 87.534,101.697 C87.564,101.135 87.906,100.637 88.42,100.408 C88.934,100.178 89.534,100.256 89.973,100.609 C90.466,101.007 90.973,101.358 91.486,101.667 C90.021,99.944 89.194,97.745 89.194,95.407 C89.194,93.371 90.5,90.05 91.934,88.439 C93.604,86.564 97.961,83.563 103.734,84.203 C107.518,84.624 111.111,86.6 113.346,89.49 L113.346,89.489 C115.73,92.572 116.73,96.632 116.238,101.23 C116.011,103.353 115.147,105.429 113.519,107.763 L113.24,108.139 C112.999,108.467 112.763,108.785 112.432,109.155 L111.86,109.797 C111.686,109.98 111.584,110.074 111.483,110.167 L110.778,110.825 L110.087,111.397 C109.735,111.694 109.368,111.931 109.043,112.14 L108.699,112.366 C106.877,113.485 104.914,114.228 102.808,114.609 C102.22,114.715 101.6,114.788 100.857,114.838 C100.424,114.881 99.973,114.903 99.508,114.903 M97.634,111.771 L97.707,111.779 C98.731,111.915 99.704,111.938 100.609,111.849 C101.284,111.802 101.799,111.743 102.275,111.657 C104.012,111.342 105.627,110.733 107.074,109.845 C107.151,109.791 107.284,109.704 107.419,109.618 C107.702,109.436 107.947,109.278 108.165,109.093 L109.453,107.959 L109.657,107.762 L110.194,107.157 C110.454,106.866 110.635,106.617 110.822,106.363 L111.095,105.996 C112.386,104.144 113.084,102.512 113.254,100.911 C113.668,97.043 112.901,93.818 110.973,91.325 C108.383,87.976 104.523,87.31 103.401,87.185 C97.708,86.557 94.209,90.395 94.175,90.435 C93.231,91.495 92.194,94.097 92.194,95.407 C92.194,97.733 93.38,99.859 95.367,101.094 C96.433,101.757 97.653,102.107 98.895,102.107 C100.445,102.035 103.08,100.705 103.668,100.107 C104.15,99.618 104.902,99.517 105.494,99.864 C106.086,100.21 106.369,100.915 106.179,101.574 C106.138,101.717 105.125,105.089 101.046,106.36 C98.819,107.054 94.305,106.775 90.169,104.372 C89.912,105.693 89.571,107.099 89.314,108.052 C89.672,108.337 90.104,108.671 90.469,108.921 C90.61,108.963 90.747,109.027 90.875,109.113 C91.412,109.473 92.046,109.858 92.814,110.292 L92.823,110.297 L92.826,110.298 C93.457,110.653 94.737,111.176 96.357,111.532 L96.481,111.56 L96.602,111.586 C96.885,111.644 97.171,111.697 97.465,111.741 L97.634,111.771" id="Fill-7" fill="#4A5861" sketch:type="MSShapeGroup"></path>
                <path d="M89.817,106.022 C89.643,106.782 89.464,107.494 89.314,108.052 C89.672,108.337 90.104,108.671 90.469,108.921 C90.61,108.963 90.747,109.027 90.875,109.113 C91.412,109.473 92.046,109.858 92.814,110.292 L92.823,110.297 L92.826,110.298 C93.201,110.509 93.804,110.779 94.572,111.038 C92.957,110.139 91.307,108.608 89.817,106.022" id="Fill-8" fill="#606385" sketch:type="MSShapeGroup"></path>
                <path d="M89.684,105.788 C89.682,105.799 89.68,105.811 89.678,105.822 C89.513,106.803 89.341,107.755 89.165,108.671 C90.117,109.291 90.77,109.858 92.087,110.632 C92.428,110.807 92.781,110.977 93.17,111.12 C93.484,111.244 93.804,111.372 94.131,111.502 C94.472,111.602 94.82,111.705 95.173,111.81 C95.818,112.022 96.524,112.124 97.242,112.254 C97.334,112.268 97.425,112.284 97.518,112.296 C98.169,112.371 98.846,112.411 99.538,112.411 C99.939,112.411 100.346,112.398 100.757,112.37 C101.085,112.337 101.413,112.296 101.735,112.233 C101.215,112.239 100.569,112.282 99.836,112.282 C98.34,112.282 96.48,112.1 94.572,111.038 C93.804,110.779 93.201,110.509 92.826,110.298 L92.823,110.297 L92.814,110.292 C92.046,109.858 91.412,109.473 90.875,109.113 C90.747,109.027 90.61,108.963 90.469,108.921 C90.104,108.671 89.672,108.337 89.314,108.052 C89.464,107.494 89.643,106.782 89.817,106.022 C89.773,105.945 89.728,105.867 89.684,105.788" id="Fill-9" fill="#4E576F" sketch:type="MSShapeGroup"></path>
                <path d="M93.036,92.34 C92.551,93.426 92.194,94.639 92.194,95.407 C92.194,97.733 93.38,99.859 95.367,101.094 C96.433,101.757 97.653,102.107 98.895,102.107 C99.525,102.078 100.334,101.84 101.113,101.529 C100.73,101.593 100.337,101.626 99.938,101.626 C99.723,101.626 99.506,101.616 99.287,101.597 C95.324,101.239 92.401,97.737 92.759,93.774 C92.804,93.278 92.898,92.799 93.036,92.34" id="Fill-10" fill="#606385" sketch:type="MSShapeGroup"></path>
                <path d="M94.394,89.821 C94.203,89.937 94.008,90.052 93.812,90.165 C92.553,91.332 91.703,92.949 91.537,94.794 C91.179,98.757 94.102,102.259 98.065,102.616 C98.284,102.636 98.502,102.646 98.718,102.646 C100.735,102.646 102.587,101.801 103.908,100.425 C103.076,100.977 102.127,101.36 101.113,101.529 C100.334,101.84 99.525,102.078 98.895,102.107 C97.653,102.107 96.433,101.757 95.367,101.094 C93.38,99.859 92.194,97.733 92.194,95.407 C92.194,94.639 92.551,93.426 93.036,92.34 C93.319,91.401 93.788,90.549 94.394,89.821" id="Fill-11" fill="#4E576F" sketch:type="MSShapeGroup"></path>
                <path d="M75.732,95.573 C75.192,96.013 73.37,97.429 71.273,99.023 L71.481,99.166 C73.482,98.829 75.378,98.367 77.132,97.824 C77.575,96.976 77.869,96.095 77.967,95.188 C77.231,95.329 76.486,95.458 75.732,95.573" id="Fill-12" fill="#FFFFFF" sketch:type="MSShapeGroup"></path>
                <path d="M65.327,96.377 C64.214,97.164 62.838,98.117 61.459,99.066 C61.738,99.277 62.018,99.487 62.298,99.697 C63.047,99.733 63.807,99.755 64.579,99.755 C66.025,99.755 67.44,99.672 68.818,99.529 C69.023,99.375 69.228,99.22 69.432,99.066 C68.052,98.116 66.673,97.161 65.559,96.374 L65.327,96.377" id="Fill-13" fill="#FFFFFF" sketch:type="MSShapeGroup"></path>
                <path d="M73.626,95.86 C71.596,96.103 69.51,96.259 67.375,96.332 C68.303,96.979 69.325,97.685 70.338,98.381 C71.585,97.436 72.744,96.545 73.626,95.86" id="Fill-14" fill="#FFFFFF" sketch:type="MSShapeGroup"></path>
                <path d="M59.618,99.023 C57.879,97.701 56.339,96.51 55.553,95.888 C54.421,95.756 53.303,95.601 52.208,95.413 C52.357,96.441 52.75,97.436 53.325,98.384 C55.098,98.823 57.011,99.182 59.036,99.423 C59.228,99.291 59.422,99.158 59.618,99.023" id="Fill-15" fill="#FFFFFF" sketch:type="MSShapeGroup"></path>
                <path d="M63.454,96.375 C61.451,96.352 59.485,96.26 57.564,96.092 C58.402,96.741 59.445,97.541 60.553,98.381 C61.543,97.7 62.543,97.01 63.454,96.375" id="Fill-16" fill="#FFFFFF" sketch:type="MSShapeGroup"></path>
                <path d="M62.298,99.697 C62.018,99.487 61.738,99.277 61.459,99.066 C61.204,99.242 60.948,99.418 60.695,99.592 L60.524,99.709 C61.887,100.739 63.297,101.788 64.516,102.668 C64.806,102.466 65.113,102.249 65.445,102.011 C64.497,101.331 63.405,100.525 62.298,99.697" id="Fill-17" fill="#4A5861" sketch:type="MSShapeGroup"></path>
                <path d="M66.7,102.894 C66.598,102.824 66.484,102.744 66.376,102.668 C66.051,102.903 65.737,103.128 65.445,103.333 C65.683,103.501 65.91,103.659 66.12,103.803 C67.114,104.485 68.153,105.29 68.818,105.751 C69.14,105.559 69.346,105.168 69.688,104.952 C69.028,104.49 67.962,103.759 66.7,102.894" id="Fill-18" fill="#4A5861" sketch:type="MSShapeGroup"></path>
                <path d="M57.564,96.092 C56.888,96.033 56.218,95.965 55.553,95.888 C56.339,96.51 57.879,97.701 59.618,99.023 C59.927,98.812 60.239,98.597 60.553,98.382 C59.445,97.541 58.402,96.741 57.564,96.092" id="Fill-19" fill="#4A5861" sketch:type="MSShapeGroup"></path>
                <path d="M64.476,96.387 C64.133,96.387 63.795,96.379 63.454,96.375 C62.543,97.01 61.543,97.7 60.553,98.382 C60.239,98.597 59.927,98.812 59.618,99.023 C59.422,99.158 59.228,99.291 59.036,99.423 C58.761,99.611 58.49,99.797 58.228,99.977 C57.361,100.571 56.585,101.104 55.969,101.529 C56.238,101.782 56.513,102.028 56.795,102.269 C57.377,101.868 58.067,101.395 58.808,100.886 C59.353,100.513 59.932,100.115 60.524,99.709 L60.695,99.592 C60.948,99.418 61.204,99.242 61.459,99.066 C62.838,98.117 64.215,97.164 65.327,96.377 C65.043,96.38 64.762,96.387 64.476,96.387" id="Fill-20" fill="#4A5861" sketch:type="MSShapeGroup"></path>
                <path d="M72.663,99.977 C72.283,99.717 71.886,99.445 71.481,99.166 L71.273,99.023 C71.173,99.099 71.076,99.173 70.976,99.249 C70.775,99.401 70.571,99.555 70.367,99.709 C70.959,100.115 71.539,100.513 72.083,100.886 C72.656,101.28 73.198,101.652 73.686,101.987 C73.963,101.742 74.232,101.491 74.495,101.235 C73.961,100.867 73.34,100.441 72.663,99.977" id="Fill-21" fill="#4A5861" sketch:type="MSShapeGroup"></path>
                <path d="M65.559,96.374 C66.673,97.161 68.052,98.116 69.432,99.066 C69.737,98.837 70.04,98.608 70.338,98.382 C69.325,97.684 68.303,96.979 67.375,96.332 C66.774,96.353 66.168,96.367 65.559,96.374" id="Fill-22" fill="#4A5861" sketch:type="MSShapeGroup"></path>
                <path d="M73.626,95.861 C72.744,96.545 71.585,97.436 70.338,98.382 C70.04,98.608 69.737,98.837 69.432,99.066 C69.228,99.221 69.023,99.374 68.818,99.529 C67.635,100.415 66.458,101.285 65.445,102.011 C65.113,102.249 64.806,102.466 64.516,102.668 C64.407,102.744 64.293,102.824 64.192,102.893 C62.678,103.932 61.44,104.78 60.856,105.195 C61.206,105.412 61.543,105.612 61.868,105.801 C62.541,105.333 63.595,104.61 64.771,103.803 C64.981,103.659 65.208,103.501 65.445,103.333 C65.737,103.128 66.051,102.903 66.375,102.668 C67.594,101.789 69.004,100.739 70.367,99.709 C70.571,99.555 70.775,99.401 70.976,99.249 C71.076,99.173 71.173,99.099 71.273,99.023 C73.37,97.429 75.192,96.013 75.732,95.573 C75.037,95.68 74.335,95.776 73.626,95.861" id="Fill-23" fill="#4A5861" sketch:type="MSShapeGroup"></path>
                <path d="M29.923,82.225 C23.703,83.213 17.229,85.151 10.911,88.528 C8.893,89.606 6.892,90.829 4.92,92.217 C8.806,92.24 12.29,92.533 15.241,92.976 C17.005,93.24 18.581,93.557 19.924,93.909 L19.943,93.892 L20.002,93.838 C23.656,90.763 27.928,87.969 33.05,85.718 C32.123,84.797 30.715,83.285 29.923,82.225" id="Fill-24" fill="#6D6F8D" sketch:type="MSShapeGroup"></path>
                <path d="M20.373,95.486 L19.544,95.36 C18.225,95.015 16.703,94.712 15.019,94.46 C11.877,93.988 8.476,93.738 4.911,93.717 L0.221,93.69 L4.056,90.991 C6.016,89.611 8.085,88.337 10.204,87.205 C16.151,84.026 22.706,81.853 29.688,80.743 L30.583,80.601 L31.125,81.327 C31.851,82.298 33.179,83.733 34.107,84.655 L35.669,86.206 L33.653,87.092 C28.999,89.137 24.849,91.719 20.968,94.985 L20.373,95.486 M9.765,90.887 C11.734,91.016 13.64,91.219 15.464,91.493 C16.942,91.714 18.31,91.974 19.544,92.268 C22.953,89.464 26.562,87.15 30.512,85.238 C30.086,84.773 29.666,84.295 29.296,83.849 C22.968,84.944 17.025,86.961 11.618,89.851 C10.995,90.184 10.376,90.529 9.765,90.887" id="Fill-25" fill="#4A5861" sketch:type="MSShapeGroup"></path>
                <path d="M29.062,84.704 C26.12,86.152 19.94,89.699 17.602,91.854 C18.281,91.983 18.929,92.122 19.544,92.268 C19.656,92.176 19.768,92.084 19.881,91.993 C22.867,89.548 26.11,87.358 29.581,85.44 C29.402,85.198 29.229,84.952 29.062,84.704" id="Fill-26" fill="#606385" sketch:type="MSShapeGroup"></path>
                <path d="M17.602,91.854 C17.463,91.983 17.337,92.106 17.226,92.224 C17.218,92.237 18.127,92.357 19.046,92.689 C19.322,92.455 19.601,92.223 19.881,91.993 C19.768,92.084 19.656,92.176 19.544,92.268 C18.929,92.122 18.281,91.983 17.602,91.854" id="Fill-27" fill="#4E576F" sketch:type="MSShapeGroup"></path>
                <path d="M45.308,92.807 C45.119,92.743 44.933,92.676 44.746,92.61 C43.632,92.216 41.65,91.369 41.504,91.303 L41.359,91.236 C38.119,89.739 35.227,87.829 32.772,85.456 C28.41,87.637 24.041,90.397 19.943,93.892 L19.931,93.904 C19.361,94.426 18.757,94.987 18.137,95.568 C17.038,96.601 15.883,97.718 14.744,98.917 C12.966,100.865 11.273,102.984 9.695,105.299 L9.765,105.274 C16.624,102.75 22.5,101.601 26.203,101.474 C28.023,101.412 29.326,101.593 29.947,101.988 C31.836,103.186 38.766,102.285 41.643,97.751 L41.761,97.579 C42.333,96.728 43.375,95.514 44.733,94.082 C45.07,93.727 45.431,93.356 45.803,92.977 C45.636,92.922 45.473,92.863 45.308,92.807" id="Fill-28" fill="#6D6F8D" sketch:type="MSShapeGroup"></path>
                <path d="M9.746,106.776 C9.287,106.776 8.834,106.577 8.547,106.209 C8.146,105.695 8.088,104.993 8.455,104.454 C10.012,102.17 11.754,99.967 13.636,97.905 C14.953,96.519 16.248,95.285 17.109,94.476 C17.736,93.889 18.344,93.324 18.919,92.798 C22.864,89.43 27.283,86.523 32.102,84.114 C32.672,83.829 33.358,83.935 33.815,84.378 C36.076,86.564 38.826,88.414 41.988,89.875 L42.136,89.942 C42.32,90.025 44.22,90.833 45.246,91.196 L46.27,91.552 C46.763,91.713 47.138,92.118 47.261,92.622 C47.383,93.127 47.237,93.659 46.873,94.029 C46.507,94.401 46.151,94.766 45.82,95.115 C44.13,96.897 43.357,97.894 43.005,98.416 L42.944,98.506 C40.931,101.672 37.621,102.969 35.823,103.465 C33.136,104.206 30.513,104.124 29.144,103.254 C29.138,103.251 28.545,102.898 26.254,102.974 C22.188,103.112 16.218,104.498 10.283,106.682 C10.109,106.746 9.927,106.776 9.746,106.776 M20.916,95.034 C20.322,95.581 19.749,96.113 19.162,96.663 C18.329,97.446 17.076,98.641 15.831,99.95 C15.122,100.727 14.432,101.528 13.764,102.35 C18.438,100.933 22.792,100.09 26.152,99.976 C28.338,99.899 29.843,100.146 30.751,100.721 C31.147,100.972 32.806,101.187 35.026,100.573 C36.407,100.192 38.938,99.215 40.376,96.948 L40.49,96.78 C41.044,95.957 41.924,94.898 43.128,93.6 C42.105,93.194 41.024,92.732 40.885,92.669 L40.738,92.602 C37.619,91.161 34.861,89.37 32.519,87.269 C28.276,89.473 24.377,92.083 20.916,95.034" id="Fill-29" fill="#4A5861" sketch:type="MSShapeGroup"></path>
                <path d="M55.189,88.874 C58.171,89.112 61.382,89.176 64.73,89.176 L64.745,89.176 C61.392,89.175 58.178,89.112 55.194,88.873 L55.189,88.874" id="Fill-30" fill="#6D6F8D" sketch:type="MSShapeGroup"></path>
                <path d="M65.445,96.293 L65.327,96.377 L65.559,96.374 L65.445,96.293" id="Fill-31" fill="#6D6F8D" sketch:type="MSShapeGroup"></path>
                <path d="M39.399,82.99 C39.156,82.702 38.924,82.405 38.708,82.091 L38.691,82.091 C38.907,82.407 39.141,82.706 39.385,82.995 L39.399,82.99" id="Fill-32" fill="#6D6F8D" sketch:type="MSShapeGroup"></path>
                <path d="M50.681,88.332 C51.424,88.456 52.188,88.564 52.972,88.656 L52.972,88.654 C52.19,88.561 51.427,88.453 50.685,88.328 L50.681,88.332" id="Fill-33" fill="#6D6F8D" sketch:type="MSShapeGroup"></path>
                <path d="M52.972,88.653 L52.972,88.656 C53.696,88.74 54.434,88.814 55.189,88.874 L55.194,88.873 C54.437,88.812 53.698,88.738 52.972,88.653" id="Fill-34" fill="#6D6F8D" sketch:type="MSShapeGroup"></path>
                <path d="M39.454,83.052 L39.399,82.99 L39.39,82.993 L39.439,83.056 L39.454,83.052" id="Fill-35" fill="#6D6F8D" sketch:type="MSShapeGroup"></path>
                <path d="M50.685,88.328 C50.479,88.294 50.27,88.262 50.067,88.224 L50.063,88.228 C50.266,88.265 50.475,88.297 50.681,88.332 L50.685,88.328" id="Fill-36" fill="#6D6F8D" sketch:type="MSShapeGroup"></path>
                <path d="M39.454,83.052 L39.439,83.056 C39.994,83.702 40.614,84.286 41.302,84.805 L41.305,84.793 C40.621,84.276 40.005,83.695 39.454,83.052" id="Fill-37" fill="#6D6F8D" sketch:type="MSShapeGroup"></path>
                <path d="M82.876,95.568 C81.706,95.9 80.499,96.197 79.258,96.459 C79.197,96.701 79.124,96.943 79.041,97.185 C80.438,96.679 81.724,96.13 82.876,95.568" id="Fill-38" fill="#8D9DB6" sketch:type="MSShapeGroup"></path>
                <path d="M71.273,99.023 L71.273,99.023 L71.481,99.166 L71.273,99.023 M74.909,98.447 C73.808,98.724 72.663,98.967 71.481,99.166 C72.663,98.967 73.808,98.724 74.909,98.447 M74.808,96.304 L74.808,96.304 C74.593,96.472 74.35,96.661 74.086,96.865 C74.35,96.661 74.593,96.472 74.808,96.304" id="Fill-39" fill="#ABA8BA" sketch:type="MSShapeGroup"></path>
                <path d="M76.252,96.063 C75.769,96.149 75.288,96.229 74.808,96.304 C74.593,96.472 74.35,96.661 74.086,96.865 C73.301,97.474 72.322,98.226 71.273,99.023 L71.481,99.166 C72.663,98.967 73.808,98.724 74.909,98.447 C75.305,97.948 75.606,97.504 75.803,97.129 C75.99,96.771 76.14,96.415 76.252,96.063" id="Fill-40" fill="#ABA8BA" sketch:type="MSShapeGroup"></path>
                <path d="M74.808,96.304 L74.808,96.304 C73.953,96.972 72.675,97.958 71.273,99.023 C72.322,98.226 73.301,97.474 74.086,96.865 C74.35,96.661 74.593,96.472 74.808,96.304" id="Fill-41" fill="#4D576C" sketch:type="MSShapeGroup"></path>
                <path d="M67.003,99.679 C66.206,99.728 65.397,99.755 64.579,99.755 C64.067,99.755 63.561,99.746 63.06,99.728 C63.561,99.746 64.067,99.755 64.578,99.755 C65.397,99.755 66.206,99.728 67.003,99.679 M69.432,99.066 C69.395,99.094 69.357,99.123 69.32,99.151 C69.357,99.123 69.395,99.095 69.432,99.066" id="Fill-42" fill="#ABA8BA" sketch:type="MSShapeGroup"></path>
                <path d="M66.624,97.122 C65.822,97.154 65.039,97.17 64.281,97.17 L64.198,97.17 C63.341,97.768 62.401,98.418 61.459,99.066 C61.738,99.277 62.018,99.487 62.298,99.697 C62.551,99.709 62.805,99.72 63.06,99.728 C63.561,99.746 64.067,99.755 64.579,99.755 C65.397,99.755 66.206,99.728 67.003,99.679 C67.614,99.642 68.219,99.591 68.818,99.529 C68.985,99.403 69.153,99.277 69.32,99.151 C69.357,99.123 69.395,99.094 69.432,99.066 C69.292,98.97 69.152,98.873 69.012,98.777 C68.187,98.208 67.372,97.644 66.624,97.122" id="Fill-43" fill="#ABA8BA" sketch:type="MSShapeGroup"></path>
                <path d="M66.624,97.122 L66.624,97.122 C67.372,97.644 68.187,98.208 69.012,98.777 C69.152,98.873 69.292,98.97 69.432,99.066 C68.465,98.401 67.499,97.733 66.624,97.122" id="Fill-44" fill="#4D576C" sketch:type="MSShapeGroup"></path>
                <path d="M72.657,96.61 L72.657,96.61 C71.96,97.146 71.169,97.752 70.338,98.381 C70.09,98.211 69.841,98.04 69.594,97.869 C69.841,98.04 70.09,98.211 70.338,98.382 C71.169,97.752 71.96,97.146 72.657,96.61" id="Fill-45" fill="#ABA8BA" sketch:type="MSShapeGroup"></path>
                <path d="M72.657,96.61 C71.196,96.796 69.763,96.935 68.376,97.028 C68.775,97.304 69.183,97.586 69.594,97.869 C69.841,98.04 70.09,98.211 70.338,98.381 C71.169,97.752 71.96,97.146 72.657,96.61" id="Fill-46" fill="#ABA8BA" sketch:type="MSShapeGroup"></path>
                <path d="M41.635,93.742 C41.932,93.899 42.226,94.051 42.52,94.2 C42.563,94.155 42.606,94.108 42.65,94.062 C42.279,93.951 41.939,93.844 41.635,93.742" id="Fill-47" fill="#636587" sketch:type="MSShapeGroup"></path>
                <path d="M45.553,95.398 C45.5,95.455 45.448,95.51 45.398,95.565 C47.661,96.566 49.724,97.314 51.352,97.824 C51.193,97.454 51.062,97.083 50.956,96.711 C49.074,96.354 47.264,95.915 45.553,95.398" id="Fill-48" fill="#8D9DB6" sketch:type="MSShapeGroup"></path>
                <path d="M59.618,99.023 C59.57,99.056 59.522,99.089 59.474,99.122 C59.522,99.089 59.57,99.056 59.618,99.023 M56.086,98.978 C57.039,99.153 58.024,99.302 59.036,99.423 C58.024,99.302 57.039,99.153 56.086,98.978" id="Fill-49" fill="#ABA8BA" sketch:type="MSShapeGroup"></path>
                <path d="M54.016,96.413 C54.167,96.807 54.365,97.206 54.608,97.606 L54.692,97.766 C54.794,97.991 55.069,98.38 55.481,98.863 C55.681,98.902 55.883,98.941 56.086,98.978 C57.039,99.153 58.024,99.302 59.036,99.423 C59.181,99.323 59.327,99.223 59.474,99.122 C59.522,99.089 59.57,99.056 59.618,99.023 C58.49,98.166 57.445,97.363 56.636,96.735 C55.749,96.639 54.873,96.531 54.016,96.413" id="Fill-50" fill="#ABA8BA" sketch:type="MSShapeGroup"></path>
                <path d="M45.527,95.391 C45.475,95.445 45.423,95.499 45.371,95.553 C45.38,95.557 45.388,95.56 45.398,95.565 C45.448,95.51 45.5,95.455 45.553,95.398 C45.544,95.396 45.536,95.393 45.527,95.391" id="Fill-51" fill="#4D576C" sketch:type="MSShapeGroup"></path>
                <path d="M58.645,96.926 C59.237,97.38 59.883,97.874 60.553,98.382 C61.157,97.966 61.764,97.547 62.353,97.14 C61.764,97.547 61.157,97.966 60.553,98.381 C59.883,97.874 59.237,97.38 58.645,96.926" id="Fill-52" fill="#ABA8BA" sketch:type="MSShapeGroup"></path>
                <path d="M58.645,96.926 C59.237,97.38 59.883,97.874 60.553,98.381 C61.157,97.966 61.764,97.547 62.353,97.14 C61.114,97.101 59.873,97.028 58.645,96.926" id="Fill-53" fill="#ABA8BA" sketch:type="MSShapeGroup"></path>
                <path d="M41.305,84.793 L41.302,84.805 C43.59,86.528 46.58,87.587 50.063,88.228 L50.067,88.224 C46.582,87.581 43.591,86.521 41.305,84.793" id="Fill-54" fill="#6D6F8D" sketch:type="MSShapeGroup"></path>
                <path d="M91.574,66.06 C91.62,66.165 91.67,66.267 91.715,66.374 C92.582,68.437 93.054,70.817 93.054,73.556 C93.054,78.568 91.482,81.982 88.77,84.307 L88.775,84.325 C91.512,82.006 93.099,78.584 93.099,73.548 C93.099,61.655 84.277,56.473 72.275,55.077 L72.255,55.098 C81.337,56.156 88.589,59.39 91.574,66.06" id="Fill-55" fill="#CDAC7C" sketch:type="MSShapeGroup"></path>
                <path d="M58.338,54.962 C51.26,55.641 45.196,57.565 41.254,61.311 C45.202,57.57 51.271,55.651 58.352,54.977 L58.338,54.962" id="Fill-56" fill="#CDAC7C" sketch:type="MSShapeGroup"></path>
                <path d="M77.262,88.561 L77.263,88.565 C82,87.942 85.987,86.709 88.777,84.334 L88.77,84.307 C85.987,86.695 82,87.933 77.262,88.561" id="Fill-57" fill="#CDAC7C" sketch:type="MSShapeGroup"></path>
                <path d="M40.184,35.938 C43.755,32.849 54.979,29.057 65.492,28.688 C74.988,28.354 85.616,31.205 92.18,34.521 C101.531,30.854 121.95,44.35 122.573,47.492 C123.068,49.988 111.736,53.262 100.006,49.824 C100.006,49.824 103.203,61.544 103.068,68.017 C102.918,75.164 102.649,79.751 98.978,84.011 C98.186,84.931 97.328,85.792 96.4,86.591 L96.401,86.591 C96.312,86.667 96.221,86.742 96.129,86.814 C88.304,92.947 73.964,95.67 64.281,95.67 C54.598,95.67 44.212,93.175 41.37,92.052 C28.507,86.968 26.535,78.082 26.516,67.446 C26.507,62.583 27.905,52.202 28.906,47.733 C22.977,43.197 20.767,24.186 23.656,22.688 C27.031,20.938 37.846,27.938 40.184,35.938" id="Fill-58" fill="#6D6F8D" sketch:type="MSShapeGroup"></path>
                <path d="M64.281,97.17 C54.479,97.17 44.001,94.705 40.819,93.447 C27.733,88.275 25.038,79.313 25.016,67.449 C25.007,62.563 26.302,52.999 27.256,48.286 C22.328,43.518 20.502,31.207 20.973,25.832 C21.189,23.371 21.822,21.949 22.966,21.356 C24.342,20.641 26.341,20.807 28.747,21.837 C33.137,23.713 38.535,28.304 40.906,33.583 C45.826,30.562 55.866,27.525 65.439,27.189 C75.183,26.841 85.804,29.765 92.28,32.898 C98.569,30.941 107.572,35.045 112.484,37.733 C116.241,39.788 123.491,44.412 124.044,47.2 C124.147,47.718 124.154,48.738 123.046,49.751 C120.382,52.187 111.452,53.954 102.086,51.903 C103.028,55.753 104.669,63.211 104.567,68.048 C104.411,75.556 104.033,80.443 100.114,84.99 C99.273,85.967 98.353,86.889 97.38,87.727 C97.273,87.819 97.164,87.909 97.053,87.996 C89.01,94.299 74.426,97.17 64.281,97.17 M24.427,23.985 C24.099,24.487 23.628,26.742 24.083,31.114 C24.683,36.89 26.733,44.182 29.818,46.542 C30.282,46.898 30.498,47.491 30.37,48.061 C29.434,52.239 28.007,62.584 28.016,67.443 C28.043,82.207 33.357,87.271 41.921,90.657 C44.538,91.691 54.687,94.17 64.281,94.17 C73.928,94.17 87.72,91.499 95.204,85.633 L95.425,85.453 C96.282,84.712 97.097,83.898 97.841,83.033 C101.176,79.162 101.421,75.003 101.568,67.986 C101.697,61.8 98.591,50.334 98.559,50.219 C98.416,49.695 98.568,49.134 98.956,48.753 C99.344,48.373 99.906,48.233 100.428,48.385 C110.798,51.424 119.562,48.926 120.991,47.585 C120.034,46.158 114.134,41.475 106.6,38.172 C100.625,35.554 95.7,34.753 92.727,35.917 C92.331,36.075 91.885,36.053 91.503,35.86 C85.437,32.795 75.064,29.85 65.545,30.187 C54.941,30.56 44.199,34.448 41.166,37.072 C40.779,37.407 40.25,37.521 39.76,37.376 C39.27,37.232 38.888,36.849 38.744,36.358 C37.284,31.362 31.914,26.453 27.567,24.595 C25.83,23.852 24.816,23.85 24.427,23.985" id="Fill-59" fill="#4A5861" sketch:type="MSShapeGroup"></path>
                <path d="M55.463,84.626 L55.471,84.617 L55.45,84.599 L55.463,84.626" id="Fill-60" fill="#CDAC7C" sketch:type="MSShapeGroup"></path>
                <path d="M55.217,84.345 L55.441,84.59 C55.378,84.496 55.322,84.4 55.267,84.303 L55.217,84.345" id="Fill-61" fill="#FFFFFF" sketch:type="MSShapeGroup"></path>
                <path d="M37.911,66.025 L37.905,66.026 C37.854,66.133 37.804,66.238 37.758,66.346 L37.767,66.345 C37.813,66.236 37.864,66.131 37.911,66.025" id="Fill-62" fill="#6D6F8D" sketch:type="MSShapeGroup"></path>
                <path d="M41.254,61.311 C39.849,62.642 38.72,64.21 37.902,66.027 L37.912,66.025 C38.728,64.209 39.853,62.642 41.254,61.311" id="Fill-63" fill="#BCBDBB" sketch:type="MSShapeGroup"></path>
                <path d="M65.068,55.542 C47.587,55.542 37.226,61.922 37.226,73.847 C37.226,86.254 48.509,89.53 65.166,89.53 C81.823,89.53 93.107,86.266 93.107,73.847 C93.107,61.24 82.55,55.542 65.068,55.542" id="Fill-64" fill="#D7BC92" sketch:type="MSShapeGroup"></path>
                <path d="M65.166,91.03 C51.459,91.03 35.726,89.077 35.726,73.847 C35.726,61.261 46.42,54.042 65.068,54.042 C89.483,54.042 94.607,64.812 94.607,73.847 C94.607,89.077 78.874,91.03 65.166,91.03 M65.068,57.043 C55.23,57.043 38.726,59.226 38.726,73.847 C38.726,83.788 46.633,88.03 65.166,88.03 C83.7,88.03 91.607,83.788 91.607,73.847 C91.607,62.696 82.678,57.043 65.068,57.043" id="Fill-65" fill="#4A5861" sketch:type="MSShapeGroup"></path>
                <path d="M72.491,54.86 L72.275,55.077 L72.492,54.86 L65.364,47.733 L72.491,54.86" id="Fill-66" fill="#FFFFFF" sketch:type="MSShapeGroup"></path>
                <path d="M72.254,55.098 L72.255,55.098 L72.275,55.077 L72.254,55.098" id="Fill-67" fill="#FFFFFF" sketch:type="MSShapeGroup"></path>
                <path d="M100.925,107.02 L101.101,106.958 L100.925,107.02" id="Fill-68" fill="#6D6F8D" sketch:type="MSShapeGroup"></path>
                <path d="M101.281,106.891 L101.101,106.958 L101.281,106.891" id="Fill-69" fill="#5E607D" sketch:type="MSShapeGroup"></path>
                <path d="M53.581,66.322 C53.282,66.322 52.988,66.368 52.683,66.458 C52.232,66.613 51.871,66.882 51.607,67.213 C52.682,66.957 53.843,66.838 55.013,66.838 C55.117,66.838 55.221,66.839 55.323,66.841 C54.928,66.575 54.43,66.392 53.888,66.338 C53.784,66.327 53.683,66.322 53.581,66.322" id="Fill-70" fill="#FDF7F0" sketch:type="MSShapeGroup"></path>
                <path d="M77.088,66.322 C76.986,66.322 76.885,66.327 76.782,66.338 C76.214,66.395 75.696,66.592 75.293,66.878 C75.658,66.851 76.032,66.838 76.414,66.838 C77.257,66.838 78.095,66.9 78.9,67.03 C78.657,66.783 78.351,66.583 77.986,66.458 C77.681,66.368 77.387,66.322 77.088,66.322" id="Fill-71" fill="#FDF7F0" sketch:type="MSShapeGroup"></path>
                <path d="M88.238,92.051 L88.238,92.052 C85.107,93.446 81.656,94.481 77.967,95.188 C77.869,96.095 77.575,96.976 77.132,97.824 C76.496,99.04 75.125,100.587 73.686,101.987 C73.048,102.668 71.793,103.801 71.004,104.294 C70.003,104.911 68.589,106.005 67.567,106.458 C66.565,106.902 64.317,107.15 63.04,106.461 C62.683,106.268 60.76,105.263 60.856,105.196 C59.555,104.391 58.123,103.401 56.795,102.269 C56.795,102.269 56.403,102.011 55.969,101.529 C54.936,100.56 53.704,99.223 53.325,98.384 C52.75,97.436 52.356,96.44 52.208,95.413 C49.729,94.987 47.35,94.415 45.097,93.683 C44.725,94.062 44.364,94.433 44.027,94.789 C42.668,96.22 41.627,97.435 41.054,98.286 C41.522,102.511 41.944,104.979 42.742,108.46 C45.007,109.666 50.84,111.477 53.281,112.169 C53.408,112.205 59.857,113.118 63.41,113.118 C68.142,113.118 72.763,112.645 77.237,111.765 C79.755,111.226 83.799,110.159 85.081,109.75 C85.925,109.481 86.763,109.2 87.593,108.901 C87.801,107.839 88.005,106.725 88.2,105.572 C88.953,101.106 89.541,96.093 89.5,91.469 C89.087,91.672 88.663,91.862 88.238,92.051" id="Fill-72" fill="#6D6F8D" sketch:type="MSShapeGroup"></path>
                <path d="M63.41,114.618 C59.842,114.618 53.245,113.717 52.874,113.613 C50.702,112.997 44.526,111.109 42.038,109.784 C41.653,109.58 41.377,109.219 41.28,108.795 C40.443,105.143 40.026,102.629 39.563,98.451 C39.524,98.099 39.611,97.743 39.809,97.449 C40.416,96.548 41.468,95.306 42.938,93.756 C43.282,93.394 43.649,93.015 44.028,92.631 C44.427,92.226 45.021,92.081 45.56,92.257 C47.695,92.95 50.017,93.515 52.462,93.934 C53.104,94.045 53.601,94.556 53.693,95.199 C53.806,95.981 54.113,96.791 54.608,97.606 L54.692,97.766 C54.891,98.205 55.745,99.263 56.995,100.435 L57.084,100.526 C57.369,100.843 57.627,101.021 57.629,101.022 L57.768,101.127 C58.891,102.085 60.196,103.025 61.644,103.92 C61.742,103.98 61.831,104.051 61.911,104.13 C62.102,104.248 62.543,104.498 63.529,105.021 L63.753,105.141 C64.507,105.549 66.259,105.397 66.959,105.086 C67.504,104.845 68.304,104.298 69.01,103.816 C69.441,103.522 69.855,103.24 70.217,103.017 C70.834,102.632 71.981,101.613 72.591,100.961 C74.195,99.398 75.318,98.055 75.803,97.129 C76.176,96.415 76.402,95.708 76.476,95.027 C76.546,94.372 77.037,93.839 77.684,93.715 C81.337,93.014 84.682,91.994 87.627,90.682 L87.629,90.681 C88.036,90.499 88.442,90.318 88.837,90.123 C89.299,89.896 89.847,89.921 90.287,90.191 C90.726,90.462 90.996,90.939 91,91.456 C91.037,95.58 90.592,100.413 89.678,105.822 C89.481,106.988 89.275,108.115 89.065,109.189 C88.963,109.707 88.598,110.133 88.101,110.312 C87.254,110.617 86.398,110.905 85.536,111.179 C84.236,111.594 80.141,112.678 77.55,113.232 C72.87,114.153 68.12,114.618 63.41,114.618 M53.616,110.705 C54.303,110.812 60.19,111.618 63.41,111.618 C67.926,111.618 72.481,111.172 76.947,110.293 C79.391,109.77 83.409,108.709 84.625,108.321 C85.181,108.144 85.733,107.962 86.282,107.772 C86.432,106.98 86.578,106.162 86.72,105.322 C87.437,101.078 87.856,97.215 87.97,93.8 C85.319,94.907 82.396,95.798 79.258,96.459 C79.084,97.148 78.817,97.837 78.461,98.519 C77.656,100.058 75.989,101.839 74.732,103.062 C74.134,103.704 72.78,104.953 71.798,105.566 C71.464,105.772 71.091,106.028 70.703,106.293 C69.851,106.875 68.97,107.477 68.174,107.829 C66.9,108.394 64.16,108.77 62.328,107.781 L62.12,107.67 C60.933,107.039 60.249,106.675 59.858,106.342 C58.388,105.42 57.051,104.452 55.88,103.46 C55.7,103.333 55.317,103.038 54.898,102.581 C54.187,101.912 52.605,100.34 52,99.091 C51.532,98.307 51.183,97.51 50.956,96.711 C49.065,96.353 47.246,95.91 45.527,95.391 C45.386,95.537 45.248,95.681 45.114,95.822 C43.809,97.198 43.049,98.107 42.609,98.691 C43.003,102.143 43.378,104.429 44.047,107.43 C46.348,108.484 50.961,109.949 53.616,110.705" id="Fill-73" fill="#4A5861" sketch:type="MSShapeGroup"></path>
                <path d="M65.546,62.936 C76.704,62.936 85.64,64.547 91.574,66.06 C88.68,59.593 81.648,56.457 72.842,55.431 L66.161,62.112 L59.363,55.314 C52.497,55.968 46.612,57.828 42.784,61.455 C41.426,62.746 40.335,64.265 39.543,66.026 C45.431,64.523 54.304,62.936 65.546,62.936" id="Fill-74" fill="#A9C3CA" sketch:type="MSShapeGroup"></path>
                <path d="M91.574,67.56 C91.45,67.56 91.326,67.545 91.203,67.514 C85.698,66.11 76.778,64.436 65.546,64.436 C54.213,64.436 45.352,66.091 39.914,67.479 C39.356,67.62 38.766,67.432 38.396,66.991 C38.025,66.551 37.939,65.936 38.175,65.411 C39.031,63.506 40.234,61.81 41.75,60.368 C45.553,56.765 51.431,54.563 59.221,53.821 C59.665,53.781 60.107,53.937 60.423,54.253 L66.161,59.991 L71.782,54.37 C72.106,54.046 72.559,53.888 73.016,53.941 C83.361,55.147 90.066,59.018 92.943,65.447 C93.178,65.973 93.092,66.586 92.721,67.026 C92.432,67.369 92.01,67.56 91.574,67.56 M68.909,61.485 C76.815,61.715 83.456,62.724 88.416,63.782 C85.484,60.21 80.448,57.939 73.385,57.01 L68.909,61.485 M58.806,56.878 C52.051,57.613 47.01,59.518 43.815,62.544 C43.415,62.924 43.041,63.327 42.696,63.75 C47.861,62.653 54.897,61.611 63.384,61.456 L58.806,56.878" id="Fill-75" fill="#4A5861" sketch:type="MSShapeGroup"></path>
                <path d="M66.275,47.492 L73.693,54.909 L66.275,62.327 L58.857,54.909 L66.275,47.492" id="Fill-76" fill="#FFFFFF" sketch:type="MSShapeGroup"></path>
                <path d="M66.275,63.827 C65.892,63.827 65.508,63.68 65.215,63.387 L57.797,55.97 C57.516,55.688 57.357,55.307 57.357,54.909 C57.357,54.511 57.516,54.13 57.797,53.849 L65.215,46.431 C65.801,45.845 66.75,45.845 67.336,46.431 L74.753,53.849 C75.339,54.434 75.339,55.384 74.753,55.97 L67.336,63.387 C67.043,63.68 66.659,63.827 66.275,63.827 L66.275,63.827 Z M60.979,54.909 L66.275,60.206 L71.572,54.909 L66.275,49.613 L60.979,54.909 L60.979,54.909 Z" id="Fill-77" fill="#4A5861" sketch:type="MSShapeGroup"></path>
                <path d="M105.395,46.653 C102.979,46.653 100.823,46.802 99.75,47.407 C96.558,48.983 98.405,57.67 99.011,63.669 C100.415,77.568 96.986,82.656 90.795,88.4 C92.418,87.572 93.906,86.651 95.204,85.633 L95.425,85.453 C96.282,84.712 97.097,83.898 97.841,83.033 C101.176,79.162 101.421,75.003 101.568,67.986 C101.697,61.8 98.591,50.334 98.559,50.219 C98.416,49.695 98.568,49.134 98.956,48.753 C99.24,48.474 99.619,48.325 100.007,48.325 C100.147,48.325 100.289,48.344 100.428,48.385 C104.03,49.44 107.439,49.828 110.414,49.828 C116.002,49.828 120.058,48.46 120.991,47.585 C120.976,47.562 120.959,47.538 120.941,47.513 C119.905,47.464 118.851,47.312 117.651,47.161 C116.189,46.976 114.509,46.791 112.381,46.791 L112.372,46.791 C111.336,46.791 110.175,46.757 108.983,46.722 C107.788,46.687 106.562,46.653 105.395,46.653" id="Fill-78" fill="#606385" sketch:type="MSShapeGroup"></path>
                <path d="M122.573,47.492 C122.25,47.518 121.932,47.53 121.615,47.53 C121.391,47.53 121.166,47.524 120.941,47.513 C120.959,47.538 120.976,47.562 120.991,47.585 C120.058,48.46 116.002,49.828 110.414,49.828 C107.439,49.828 104.03,49.44 100.428,48.385 C100.289,48.344 100.147,48.325 100.007,48.325 C99.619,48.325 99.24,48.474 98.956,48.753 C98.568,49.134 98.416,49.695 98.559,50.219 C98.591,50.334 101.697,61.8 101.568,67.986 C101.421,75.003 101.176,79.162 97.841,83.033 C97.097,83.898 96.282,84.712 95.425,85.453 L95.204,85.633 C93.906,86.651 92.418,87.572 90.795,88.4 C90.293,88.865 89.773,89.335 89.236,89.814 L89.245,89.814 C97.817,89.814 107.439,76.454 100.006,49.824 C103.033,50.622 106.459,51.026 109.686,51.026 C111.095,51.026 112.467,50.949 113.75,50.794 C119.612,50.087 122.31,47.655 122.573,47.492" id="Fill-79" fill="#4E576F" sketch:type="MSShapeGroup"></path>
                <path d="M56.996,74.132 C56.996,75.599 55.807,76.788 54.34,76.788 C52.874,76.788 51.685,75.599 51.685,74.132 C51.685,72.665 52.874,71.476 54.34,71.476 C55.807,71.476 56.996,72.665 56.996,74.132" id="Fill-80" fill="#4A5861" sketch:type="MSShapeGroup"></path>
                <path d="M54.078,74.815 C54.078,75.01 53.919,75.168 53.724,75.168 C53.529,75.168 53.371,75.01 53.371,74.815 C53.371,74.62 53.529,74.462 53.724,74.462 C53.919,74.462 54.078,74.62 54.078,74.815" id="Fill-81" fill="#FFFFFF" sketch:type="MSShapeGroup"></path>
                <path d="M55.937,73.444 C55.937,73.91 55.56,74.287 55.095,74.287 C54.63,74.287 54.253,73.91 54.253,73.444 C54.253,72.979 54.63,72.602 55.095,72.602 C55.56,72.602 55.937,72.979 55.937,73.444" id="Fill-82" fill="#FFFFFF" sketch:type="MSShapeGroup"></path>
                <path d="M79.082,73.712 C79.082,75.178 77.893,76.367 76.427,76.367 C74.96,76.367 73.771,75.178 73.771,73.712 C73.771,72.245 74.96,71.056 76.427,71.056 C77.893,71.056 79.082,72.245 79.082,73.712" id="Fill-83" fill="#4A5861" sketch:type="MSShapeGroup"></path>
                <path d="M76.87,74.395 C76.87,74.59 77.028,74.748 77.223,74.748 C77.418,74.748 77.576,74.59 77.576,74.395 C77.576,74.2 77.418,74.041 77.223,74.041 C77.028,74.041 76.87,74.2 76.87,74.395" id="Fill-84" fill="#FFFFFF" sketch:type="MSShapeGroup"></path>
                <path d="M75.01,73.024 C75.01,73.489 75.387,73.866 75.852,73.866 C76.317,73.866 76.694,73.489 76.694,73.024 C76.694,72.559 76.317,72.182 75.852,72.182 C75.387,72.182 75.01,72.559 75.01,73.024" id="Fill-85" fill="#FFFFFF" sketch:type="MSShapeGroup"></path>
                <path d="M74.382,80.386 C74.382,83.629 70.592,85.552 65.917,85.552 C61.241,85.552 57.451,83.629 57.451,80.386 C57.451,77.143 61.241,73.808 65.917,73.808 C70.592,73.808 74.382,77.143 74.382,80.386" id="Fill-86" fill="#FFFFFF" sketch:type="MSShapeGroup"></path>
                <path d="M68.932,77.39 C68.932,78.462 67.601,79.332 65.958,79.332 C64.316,79.332 62.984,78.462 62.984,77.39 C62.984,76.317 64.316,76.095 65.958,76.095 C67.601,76.095 68.932,76.317 68.932,77.39" id="Fill-87" fill="#4A5861" sketch:type="MSShapeGroup"></path>
                <path d="M65.958,76.587 C65.387,76.587 64.923,76.664 64.923,77.038 C64.923,77.411 65.387,77.714 65.958,77.714 C66.53,77.714 66.994,77.411 66.994,77.038 C66.994,76.664 66.53,76.587 65.958,76.587" id="Fill-88" fill="#CDCCCB" sketch:type="MSShapeGroup"></path>
                <path d="M65.993,82.71 C65.441,82.71 64.993,82.262 64.993,81.71 L64.993,79.031 C64.993,78.479 65.441,78.031 65.993,78.031 C66.545,78.031 66.993,78.479 66.993,79.031 L66.993,81.71 C66.993,82.262 66.545,82.71 65.993,82.71" id="Fill-89" fill="#4A5861" sketch:type="MSShapeGroup"></path>
                <path d="M65.993,83.543 C64.168,83.543 61.637,83.008 60.511,81.499 C60.18,81.057 60.271,80.43 60.714,80.1 C61.158,79.769 61.783,79.86 62.113,80.303 C62.65,81.021 64.282,81.543 65.993,81.543 C67.674,81.543 69.303,81.021 69.783,80.331 C70.099,79.877 70.722,79.765 71.175,80.08 C71.628,80.394 71.741,81.018 71.426,81.471 C70.365,82.998 67.924,83.543 65.993,83.543" id="Fill-90" fill="#4A5861" sketch:type="MSShapeGroup"></path>
                <path d="M51.607,67.213 C48.638,67.922 46.333,69.685 46.333,72.919 C46.333,73.496 46.386,74.042 46.489,74.555 L54.137,69.55 C53.945,69.52 53.752,69.497 53.563,69.491 C52.231,69.448 50.768,69.402 51.195,67.999 C51.281,67.717 51.419,67.449 51.607,67.213 M55.323,66.841 C55.824,67.178 56.159,67.648 56.212,68.157 C56.213,68.168 56.214,68.179 56.215,68.19 L57.839,67.127 L58.444,67.632 L55.139,71.599 C56.216,71.938 56.996,72.944 56.996,74.132 C56.996,75.599 55.807,76.788 54.34,76.788 C53.323,76.788 52.439,76.216 51.993,75.375 L49.248,78.671 C49.248,78.671 48.817,78.322 47.613,77.15 C47.611,77.148 47.609,77.146 47.607,77.144 C48.911,78.92 51.129,79.894 53.84,79.894 C55.305,79.894 56.537,79.719 57.569,79.385 C58.011,77.484 59.664,75.674 61.936,74.656 C62.087,74.113 62.201,73.533 62.283,72.919 C62.853,68.656 59.578,66.921 55.323,66.841" id="Fill-91" fill="#E3CEAE" sketch:type="MSShapeGroup"></path>
                <path d="M55.013,66.838 C53.843,66.838 52.682,66.957 51.607,67.213 C51.419,67.449 51.281,67.717 51.195,67.999 C50.768,69.402 52.231,69.448 53.563,69.491 C53.752,69.497 53.945,69.52 54.137,69.55 L56.215,68.19 C56.214,68.179 56.213,68.168 56.212,68.157 C56.159,67.648 55.824,67.178 55.323,66.841 C55.221,66.839 55.117,66.838 55.013,66.838" id="Fill-92" fill="#FEFAF4" sketch:type="MSShapeGroup"></path>
                <path d="M53.724,75.168 C53.529,75.168 53.371,75.01 53.371,74.815 C53.371,74.62 53.529,74.462 53.724,74.462 C53.919,74.462 54.078,74.62 54.078,74.815 C54.078,75.01 53.919,75.168 53.724,75.168 M55.095,74.287 C54.63,74.287 54.253,73.91 54.253,73.444 C54.253,72.979 54.63,72.602 55.095,72.602 C55.56,72.602 55.937,72.979 55.937,73.444 C55.937,73.91 55.56,74.287 55.095,74.287 M55.139,71.599 L51.993,75.375 C52.439,76.216 53.323,76.788 54.34,76.788 C55.807,76.788 56.996,75.599 56.996,74.132 C56.996,72.944 56.216,71.938 55.139,71.599" id="Fill-93" fill="#767A81" sketch:type="MSShapeGroup"></path>
                <path d="M53.724,74.462 C53.529,74.462 53.371,74.62 53.371,74.815 C53.371,75.01 53.529,75.168 53.724,75.168 C53.919,75.168 54.078,75.01 54.078,74.815 C54.078,74.62 53.919,74.462 53.724,74.462" id="Fill-94" fill="#FFFFFF" sketch:type="MSShapeGroup"></path>
                <path d="M55.095,72.602 C54.63,72.602 54.253,72.979 54.253,73.444 C54.253,73.91 54.63,74.287 55.095,74.287 C55.56,74.287 55.937,73.91 55.937,73.444 C55.937,72.979 55.56,72.602 55.095,72.602" id="Fill-95" fill="#FFFFFF" sketch:type="MSShapeGroup"></path>
                <path d="M61.936,74.656 C59.664,75.674 58.011,77.484 57.569,79.385 C59.975,78.605 61.292,76.961 61.936,74.656" id="Fill-96" fill="#FFFFFF" sketch:type="MSShapeGroup"></path>
                <path d="M78.9,67.03 C79.127,67.261 79.3,67.534 79.414,67.825 L80.2,67.311 C79.78,67.195 79.345,67.102 78.9,67.03 M75.293,66.878 C71.442,67.155 68.61,68.931 69.144,72.919 C69.211,73.426 69.301,73.909 69.416,74.368 L76.84,69.509 C76.315,69.564 75.777,69.712 75.343,69.712 C74.732,69.712 74.327,69.419 74.457,68.157 C74.508,67.666 74.822,67.211 75.293,66.878" id="Fill-97" fill="#E3CEAE" sketch:type="MSShapeGroup"></path>
                <path d="M76.414,66.838 C76.032,66.838 75.658,66.851 75.293,66.878 C74.822,67.211 74.508,67.666 74.457,68.157 C74.327,69.419 74.732,69.712 75.343,69.712 C75.777,69.712 76.315,69.564 76.84,69.509 L79.414,67.825 C79.3,67.534 79.127,67.261 78.9,67.03 C78.095,66.9 77.257,66.838 76.414,66.838" id="Fill-98" fill="#FEFAF4" sketch:type="MSShapeGroup"></path>
                <path d="M81.142,67.619 L77.851,71.47 C78.591,71.941 79.082,72.769 79.082,73.712 C79.082,75.178 77.893,76.367 76.427,76.367 C75.633,76.367 74.921,76.019 74.434,75.468 L73.08,77.052 C73.696,77.815 74.118,78.656 74.293,79.513 C75.231,79.764 76.322,79.894 77.587,79.894 C81.992,79.894 85.094,77.323 85.094,72.919 C85.094,70.184 83.446,68.502 81.142,67.619" id="Fill-99" fill="#E3CEAE" sketch:type="MSShapeGroup"></path>
                <path d="M77.223,74.748 C77.028,74.748 76.87,74.59 76.87,74.395 C76.87,74.2 77.028,74.041 77.223,74.041 C77.418,74.041 77.576,74.2 77.576,74.395 C77.576,74.59 77.418,74.748 77.223,74.748 M77.851,71.47 L76.675,72.845 C76.688,72.903 76.694,72.963 76.694,73.024 C76.694,73.489 76.317,73.866 75.852,73.866 C75.836,73.866 75.82,73.866 75.804,73.865 L74.434,75.468 C74.921,76.019 75.633,76.367 76.427,76.367 C77.893,76.367 79.082,75.178 79.082,73.712 C79.082,72.769 78.591,71.941 77.851,71.47" id="Fill-100" fill="#767A81" sketch:type="MSShapeGroup"></path>
                <path d="M77.223,74.041 C77.028,74.041 76.87,74.2 76.87,74.395 C76.87,74.59 77.028,74.748 77.223,74.748 C77.418,74.748 77.576,74.59 77.576,74.395 C77.576,74.2 77.418,74.041 77.223,74.041" id="Fill-101" fill="#FFFFFF" sketch:type="MSShapeGroup"></path>
                <path d="M76.675,72.845 L75.804,73.865 C75.82,73.866 75.836,73.866 75.852,73.866 C76.317,73.866 76.694,73.489 76.694,73.024 C76.694,72.963 76.688,72.903 76.675,72.845" id="Fill-102" fill="#FFFFFF" sketch:type="MSShapeGroup"></path>
                <path d="M70.523,76.963 C71.349,78.179 72.561,79.05 74.293,79.513 C74.118,78.656 73.696,77.815 73.08,77.052 L72.255,78.018 C72.255,78.018 71.616,77.965 70.523,76.963" id="Fill-103" fill="#FFFFFF" sketch:type="MSShapeGroup"></path>
                <path d="M46.489,74.555 L46.133,74.788 C46.133,74.788 46.407,75.975 47.607,77.144 C47.07,76.413 46.687,75.546 46.489,74.555" id="Fill-104" fill="#E3CEAE" sketch:type="MSShapeGroup"></path>
                <path d="M57.839,67.127 L56.215,68.19 C56.335,69.424 55.932,69.712 55.326,69.712 C54.977,69.712 54.56,69.616 54.137,69.55 L46.489,74.555 C46.687,75.546 47.07,76.413 47.607,77.144 C47.609,77.146 47.611,77.148 47.613,77.15 C48.817,78.322 49.248,78.671 49.248,78.671 L51.993,75.375 C51.796,75.004 51.685,74.581 51.685,74.132 C51.685,72.665 52.874,71.476 54.34,71.476 C54.619,71.476 54.887,71.519 55.139,71.599 L58.444,67.632 L57.839,67.127" id="Fill-105" fill="#EBDBC1" sketch:type="MSShapeGroup"></path>
                <path d="M56.215,68.19 L54.137,69.55 C54.56,69.616 54.977,69.712 55.326,69.712 C55.932,69.712 56.335,69.424 56.215,68.19" id="Fill-106" fill="#FFFBF7" sketch:type="MSShapeGroup"></path>
                <path d="M54.34,71.476 C52.874,71.476 51.685,72.665 51.685,74.132 C51.685,74.581 51.796,75.004 51.993,75.375 L55.139,71.599 C54.887,71.519 54.619,71.476 54.34,71.476" id="Fill-107" fill="#96989D" sketch:type="MSShapeGroup"></path>
                <path d="M69.416,74.368 L69.331,74.423 C69.368,74.437 69.404,74.451 69.44,74.465 C69.432,74.433 69.424,74.4 69.416,74.368 M80.585,67.059 L80.2,67.311 C80.524,67.4 80.839,67.502 81.142,67.619 L81.189,67.563 L80.585,67.059" id="Fill-108" fill="#E3CEAE" sketch:type="MSShapeGroup"></path>
                <path d="M69.331,74.423 L68.879,74.719 C68.879,74.719 69.134,75.616 70.338,76.788 C70.402,76.849 70.463,76.907 70.523,76.963 C70.036,76.245 69.684,75.408 69.44,74.465 C69.404,74.451 69.368,74.437 69.331,74.423" id="Fill-109" fill="#FFFFFF" sketch:type="MSShapeGroup"></path>
                <path d="M80.2,67.311 L79.414,67.825 C79.436,67.883 79.456,67.94 79.474,67.999 C79.901,69.402 78.438,69.448 77.106,69.491 C77.018,69.493 76.929,69.5 76.84,69.509 L69.416,74.368 C69.424,74.4 69.432,74.433 69.44,74.465 C70.941,75.046 72.206,75.97 73.08,77.052 L74.434,75.468 C74.021,74.999 73.771,74.385 73.771,73.712 C73.771,72.245 74.96,71.056 76.427,71.056 C76.951,71.056 77.439,71.208 77.851,71.47 L81.142,67.619 C80.839,67.502 80.524,67.4 80.2,67.311" id="Fill-110" fill="#EBDBC1" sketch:type="MSShapeGroup"></path>
                <path d="M79.414,67.825 L76.84,69.509 C76.929,69.5 77.018,69.493 77.106,69.491 C78.438,69.448 79.901,69.402 79.474,67.999 C79.456,67.94 79.436,67.883 79.414,67.825" id="Fill-111" fill="#FFFBF7" sketch:type="MSShapeGroup"></path>
                <path d="M76.427,71.056 C74.96,71.056 73.771,72.245 73.771,73.712 C73.771,74.385 74.021,74.999 74.434,75.468 L75.804,73.865 C75.361,73.84 75.01,73.473 75.01,73.024 C75.01,72.559 75.387,72.182 75.852,72.182 C76.256,72.182 76.593,72.466 76.675,72.845 L77.851,71.47 C77.439,71.208 76.951,71.056 76.427,71.056" id="Fill-112" fill="#96989D" sketch:type="MSShapeGroup"></path>
                <path d="M75.852,72.182 C75.387,72.182 75.01,72.559 75.01,73.024 C75.01,73.473 75.361,73.84 75.804,73.865 L76.675,72.845 C76.593,72.466 76.256,72.182 75.852,72.182" id="Fill-113" fill="#FFFFFF" sketch:type="MSShapeGroup"></path>
                <path d="M69.44,74.465 C69.684,75.408 70.036,76.245 70.523,76.963 C71.616,77.965 72.255,78.018 72.255,78.018 L73.08,77.052 C72.206,75.97 70.941,75.046 69.44,74.465" id="Fill-114" fill="#FFFFFF" sketch:type="MSShapeGroup"></path>
                <path d="M53.84,80.644 C48.824,80.644 45.583,77.612 45.583,72.919 C45.583,68.706 49.196,66.088 55.013,66.088 C58.137,66.088 60.5,66.901 61.846,68.439 C62.878,69.619 63.275,71.16 63.026,73.019 C62.331,78.221 59.412,80.644 53.84,80.644 L53.84,80.644 Z M55.013,67.588 C53.153,67.588 47.083,67.973 47.083,72.919 C47.083,76.759 49.672,79.144 53.84,79.144 C58.644,79.144 60.947,77.252 61.54,72.82 L61.54,72.819 C61.729,71.408 61.452,70.267 60.717,69.427 C59.679,68.242 57.653,67.588 55.013,67.588 L55.013,67.588 Z" id="Fill-115" fill="#4A5861" sketch:type="MSShapeGroup"></path>
                <path d="M77.587,80.644 C72.015,80.644 69.096,78.221 68.4,73.019 L68.4,73.018 C68.152,71.16 68.549,69.619 69.581,68.439 C70.928,66.901 73.29,66.088 76.414,66.088 C82.231,66.088 85.844,68.706 85.844,72.919 C85.844,77.612 82.603,80.644 77.587,80.644 L77.587,80.644 Z M69.887,72.819 C70.48,77.252 72.783,79.144 77.587,79.144 C81.755,79.144 84.344,76.759 84.344,72.919 C84.344,67.973 78.274,67.588 76.414,67.588 C73.773,67.588 71.748,68.242 70.71,69.427 C69.976,70.267 69.698,71.408 69.887,72.82 L69.887,72.819 L69.887,72.819 Z" id="Fill-116" fill="#4A5861" sketch:type="MSShapeGroup"></path>
                <path d="M62.156,70.248 C62.044,70.248 61.929,70.223 61.822,70.17 C61.451,69.985 61.3,69.535 61.485,69.164 C61.688,68.757 62.197,68.265 64.352,68.059 C64.4,68.054 69.102,67.623 70.188,69.043 C70.439,69.372 70.377,69.843 70.047,70.094 C69.719,70.346 69.248,70.283 68.996,69.954 C68.385,69.355 63.633,69.328 62.779,69.916 C62.637,70.128 62.4,70.248 62.156,70.248" id="Fill-117" fill="#4A5861" sketch:type="MSShapeGroup"></path>
                <path d="M53.964,92.165 L53.964,115.949 L64.745,123.135 L64.745,99.352 L53.964,92.165" id="Fill-118" fill="#62B664" sketch:type="MSShapeGroup"></path>
                <path d="M64.745,124.635 C64.454,124.635 64.164,124.551 63.913,124.383 L53.131,117.197 C52.714,116.918 52.463,116.45 52.463,115.949 L52.463,92.165 C52.463,91.612 52.768,91.104 53.255,90.843 C53.744,90.581 54.335,90.61 54.795,90.917 L65.577,98.104 C65.994,98.382 66.245,98.851 66.245,99.352 L66.245,123.135 C66.245,123.688 65.94,124.197 65.453,124.457 C65.231,124.577 64.987,124.635 64.745,124.635 L64.745,124.635 Z M55.463,115.146 L63.245,120.332 L63.245,100.155 L55.463,94.968 L55.463,115.146 L55.463,115.146 Z" id="Fill-119" fill="#49575F" sketch:type="MSShapeGroup"></path>
                <path d="M75.526,92.165 L75.526,115.949 L64.745,123.135 L64.745,99.352 L75.526,92.165" id="Fill-120" fill="#5FBCA7" sketch:type="MSShapeGroup"></path>
                <path d="M64.745,124.635 C64.502,124.635 64.259,124.577 64.037,124.457 C63.549,124.197 63.245,123.688 63.245,123.135 L63.245,99.352 C63.245,98.851 63.495,98.382 63.913,98.104 L74.693,90.917 C75.154,90.61 75.745,90.581 76.233,90.843 C76.721,91.104 77.025,91.612 77.025,92.165 L77.025,115.949 C77.025,116.45 76.775,116.918 76.357,117.197 L65.577,124.383 C65.326,124.551 65.036,124.635 64.745,124.635 L64.745,124.635 Z M66.245,100.155 L66.245,120.332 L74.025,115.146 L74.025,94.968 L66.245,100.155 L66.245,100.155 Z" id="Fill-121" fill="#49575F" sketch:type="MSShapeGroup"></path>
                <path d="M54.991,94.014 L54.991,115.369 L63.742,121.375 L63.742,99.755 L54.991,94.014" id="Fill-122" fill="#EDCE46" sketch:type="MSShapeGroup"></path>
                <path d="M74.619,93.75 L74.763,115.369 L65.559,121.539 L65.559,99.755 L74.619,93.75" id="Fill-123" fill="#35A067" sketch:type="MSShapeGroup"></path>
                <path d="M47.617,106.708 C50.075,111.068 54.992,113.708 56.375,112.219 C58.655,109.762 54.549,106.375 51.314,102.664" id="Fill-124" fill="#6D6F8D" sketch:type="MSShapeGroup"></path>
                <path d="M55.241,113.637 C55.094,113.637 54.938,113.628 54.773,113.609 C52.449,113.335 48.812,110.863 46.746,107.2 C46.475,106.719 46.644,106.109 47.125,105.837 C47.606,105.567 48.217,105.736 48.488,106.217 C50.164,109.189 53.211,111.411 55.007,111.623 C55.377,111.666 55.581,111.605 55.642,111.539 C56.808,110.282 55.165,108.328 52.32,105.259 C51.733,104.625 51.133,103.978 50.56,103.321 C50.198,102.905 50.241,102.273 50.657,101.91 C51.074,101.547 51.706,101.591 52.068,102.007 C52.627,102.649 53.213,103.281 53.787,103.899 C56.655,106.993 59.62,110.192 57.107,112.899 C56.781,113.25 56.203,113.637 55.241,113.637" id="Fill-125" fill="#4A5861" sketch:type="MSShapeGroup"></path>
                <path d="M51.863,111.206 C51.863,111.206 54.994,107.314 56.113,108.202 C56.711,108.677 58.157,111.203 56.375,112.219 C54.592,113.234 52.445,112.12 51.863,111.206" id="Fill-126" fill="#A4A5A5" sketch:type="MSShapeGroup"></path>
                <path d="M54.814,113.624 C53.18,113.624 51.646,112.727 51.019,111.742 C50.789,111.38 50.815,110.913 51.083,110.579 C52.796,108.451 55.165,106.174 56.735,107.419 C57.414,107.958 58.335,109.529 58.226,110.961 C58.156,111.874 57.674,112.629 56.869,113.088 C56.206,113.465 55.501,113.624 54.814,113.624 L54.814,113.624 Z M53.238,111.134 C53.882,111.537 54.953,111.878 55.88,111.35 C56.105,111.221 56.206,111.07 56.23,110.828 C56.288,110.219 55.85,109.425 55.596,109.102 C55.124,109.275 54.148,110.123 53.238,111.134 L53.238,111.134 Z" id="Fill-127" fill="#4A5861" sketch:type="MSShapeGroup"></path>
                <path d="M83.042,105.704 C79.936,109.629 74.669,111.473 73.534,109.787 C71.663,107.006 76.246,104.298 80.017,101.134" id="Fill-128" fill="#6D6F8D" sketch:type="MSShapeGroup"></path>
                <path d="M75.065,111.412 L74.9,111.409 C73.644,111.36 73.013,110.803 72.705,110.345 C70.643,107.281 74.069,104.581 77.383,101.971 C78.045,101.448 78.723,100.915 79.375,100.368 C79.799,100.012 80.429,100.069 80.784,100.492 C81.139,100.915 81.084,101.545 80.66,101.9 C79.992,102.461 79.299,103.007 78.621,103.542 C75.334,106.131 73.407,107.807 74.364,109.228 C74.415,109.303 74.605,109.396 74.977,109.41 C76.756,109.47 80.141,107.758 82.257,105.083 C82.6,104.65 83.229,104.577 83.662,104.92 C84.095,105.263 84.169,105.892 83.826,106.325 C81.277,109.546 77.421,111.412 75.065,111.412" id="Fill-129" fill="#4A5861" sketch:type="MSShapeGroup"></path>
                <path d="M78.149,109.487 C78.149,109.487 75.66,105.156 74.416,105.86 C73.752,106.236 71.931,108.507 73.534,109.787 C75.137,111.066 77.431,110.3 78.149,109.487" id="Fill-130" fill="#A4A5A5" sketch:type="MSShapeGroup"></path>
                <path d="M75.58,111.473 C74.665,111.473 73.718,111.213 72.91,110.568 C72.187,109.991 71.829,109.17 71.901,108.258 C72.015,106.827 73.169,105.417 73.924,104.99 C75.665,104.004 77.655,106.62 79.016,108.989 C79.229,109.361 79.182,109.828 78.898,110.149 C78.241,110.894 76.945,111.473 75.58,111.473 L75.58,111.473 Z M74.787,106.828 C74.488,107.105 73.93,107.824 73.893,108.435 C73.878,108.678 73.955,108.843 74.158,109.005 C74.99,109.67 76.102,109.5 76.801,109.203 C76.059,108.062 75.226,107.072 74.787,106.828 L74.787,106.828 Z" id="Fill-131" fill="#4A5861" sketch:type="MSShapeGroup"></path>
            </g>
        </g>
    </g>
</svg>