<svg width="114" height="38" viewBox="0 0 114 38" version="1.1" xmlns="http://www.w3.org/2000/svg" xmlns:xlink="http://www.w3.org/1999/xlink">
<g id="Canvas" fill="none">
<g id="download-ios">
<g id="Group">
<g id="Group_2">
<g id="Group_3">
<g id="Vector">
<path d="M 104.628 0.0001235L 9.05792 0.0001235C 8.70955 0.0001235 8.36537 0.0001235 8.01793 0.00202349C 7.72708 0.00392349 7.43856 0.00944297 7.14493 0.0140885C 6.50702 0.0215951 5.87061 0.0777157 5.24123 0.181962C 4.61273 0.288479 4.00393 0.489292 3.4354 0.77761C 2.86757 1.06837 2.34872 1.44618 1.89769 1.89733C 1.44428 2.34722 1.06634 2.86723 0.77838 3.43736C 0.489629 4.00636 0.289408 4.6161 0.184632 5.24551C 0.0788601 5.87413 0.0219434 6.51 0.0143925 7.14741C 0.00557648 7.43868 0.00464548 7.73091 0 8.02222L 0 29.9807C 0.00464548 30.2757 0.00557648 30.5614 0.0143925 30.8565C 0.0219457 31.4939 0.0788625 32.1297 0.184632 32.7583C 0.289118 33.3881 0.489351 33.9982 0.77838 34.5674C 1.06621 35.1357 1.44421 35.6536 1.89769 36.101C 2.34701 36.5541 2.86619 36.9322 3.4354 37.2207C 4.00392 37.5098 4.61266 37.7118 5.24123 37.82C 5.87071 37.9234 6.50706 37.9795 7.14493 37.9879C 7.43856 37.9944 7.72708 37.9981 8.01793 37.9981C 8.36536 38 8.70957 38 9.05792 38L 104.628 38C 104.969 38 105.316 38 105.657 37.9981C 105.947 37.9981 106.244 37.9944 106.533 37.9879C 107.17 37.98 107.805 37.9238 108.433 37.82C 109.064 37.7111 109.675 37.5091 110.246 37.2207C 110.815 36.932 111.333 36.554 111.782 36.101C 112.235 35.6518 112.614 35.1343 112.905 34.5674C 113.192 33.9977 113.39 33.3877 113.493 32.7583C 113.599 32.1296 113.658 31.4939 113.669 30.8565C 113.673 30.5614 113.673 30.2757 113.673 29.9807C 113.68 29.6356 113.68 29.2923 113.68 28.9416L 113.68 9.05942C 113.68 8.71152 113.68 8.3664 113.673 8.02222C 113.673 7.73091 113.673 7.43868 113.669 7.14737C 113.658 6.5099 113.599 5.87418 113.493 5.24547C 113.39 4.61643 113.192 4.00674 112.905 3.43733C 112.319 2.29455 111.389 1.36434 110.246 0.777525C 109.675 0.489911 109.064 0.289151 108.433 0.181877C 107.805 0.0771709 107.17 0.0210308 106.533 0.0139555C 106.244 0.00931947 105.947 0.00375249 105.657 0.00189999C 105.316 0 104.969 0 104.628 0L 104.628 0.0001235Z" fill="#A6A6A6"/>
</g>
<g id="Vector_2">
<path d="M 7.19321 36.3374C 6.90376 36.3374 6.62131 36.3337 6.33413 36.3272C 5.73923 36.3195 5.14571 36.2677 4.55846 36.1723C 4.01087 36.078 3.4804 35.9025 2.98456 35.6518C 2.49326 35.4031 2.04516 35.077 1.65741 34.686C 1.26406 34.2996 0.93657 33.8515 0.687931 33.3593C 0.436551 32.864 0.262582 32.3331 0.172082 31.785C 0.0743509 31.1961 0.0214741 30.6007 0.013908 30.0038C 0.00788499 29.8034 -1.92613e-08 29.1363 -1.92613e-08 29.1363L -1.92613e-08 7.19085C -1.92613e-08 7.19085 0.00839799 6.53401 0.0139555 6.34104C 0.0212 5.74509 0.0737694 5.15055 0.171208 4.56258C 0.261875 4.01302 0.435979 3.48055 0.687494 2.98359C 0.93522 2.49179 1.26089 2.04331 1.65187 1.65554C 2.04242 1.26409 2.49196 0.936321 2.98409 0.684197C 3.4788 0.434238 4.00826 0.260045 4.55474 0.167456C 5.14393 0.0710941 5.7395 0.0189962 6.33647 0.0115995L 7.19367 0L 104.823 0L 105.691 0.012065C 106.282 0.0190942 106.873 0.0707273 107.456 0.166525C 108.008 0.260275 108.543 0.435683 109.044 0.686981C 110.03 1.19508 110.832 1.99895 111.338 2.98591C 111.585 3.47944 111.757 4.00757 111.846 4.55238C 111.945 5.14518 112 5.74438 112.012 6.34522C 112.014 6.61426 112.014 6.90325 112.014 7.19085C 112.022 7.5471 112.022 7.88618 112.022 8.22805L 112.022 28.1102C 112.022 28.4554 112.022 28.7921 112.014 29.1317C 112.014 29.4406 112.014 29.7236 112.011 30.0149C 112 30.605 111.945 31.1935 111.848 31.7757C 111.76 32.3277 111.587 32.8628 111.335 33.3622C 111.085 33.849 110.759 34.2932 110.37 34.6786C 109.982 35.0717 109.533 35.3997 109.041 35.65C 108.542 35.9027 108.008 36.0787 107.456 36.1723C 106.869 36.2682 106.276 36.32 105.681 36.3272C 105.402 36.3337 105.111 36.3374 104.828 36.3374L 103.798 36.3393L 7.19321 36.3374Z" transform="translate(0.829102 0.831787)" fill="black"/>
</g>
</g>
<g id="&#60;Group&#62;">
<g id="&#60;Group&#62;_2">
<g id="&#60;Group&#62;_3">
<g id="&#60;Path&#62;">
<path d="M 14.0574 6.01127C 14.0676 5.21835 14.2782 4.44089 14.6697 3.75123C 15.0611 3.06158 15.6206 2.48214 16.2961 2.06683C 15.867 1.45393 15.3008 0.949533 14.6426 0.59371C 13.9845 0.237886 13.2524 0.0404348 12.5045 0.0170367C 10.9093 -0.15041 9.36272 0.971623 8.5498 0.971623C 7.72114 0.971623 6.46952 0.0336617 5.12173 0.0613921C 4.24994 0.0895577 3.40032 0.343068 2.65564 0.797222C 1.91095 1.25138 1.29661 1.89068 0.87247 2.65286C -0.964824 5.83385 0.405632 10.5088 2.16561 13.0801C 3.04616 14.3392 4.07527 15.7456 5.42184 15.6957C 6.73955 15.6411 7.23168 14.8555 8.82226 14.8555C 10.3981 14.8555 10.8598 15.6957 12.2337 15.664C 13.6477 15.6411 14.5385 14.3993 15.3882 13.1283C 16.0209 12.2312 16.5077 11.2397 16.8307 10.1905C 16.0092 9.84303 15.3082 9.26146 14.815 8.51828C 14.3219 7.7751 14.0584 6.90319 14.0574 6.01127L 14.0574 6.01127Z" transform="translate(9.47314 13.2744)" fill="white"/>
</g>
<g id="&#60;Path&#62;_2">
<path d="M 3.08422 3.31608C 3.85517 2.39058 4.23498 1.20102 4.14301 1.49017e-07C 2.96517 0.123709 1.87718 0.686638 1.09582 1.57662C 0.713785 2.01141 0.421189 2.51722 0.234756 3.06515C 0.0483237 3.61308 -0.0282887 4.19238 0.00929755 4.76993C 0.598428 4.776 1.18126 4.64831 1.71388 4.39648C 2.24651 4.14464 2.71505 3.77524 3.08422 3.31608Z" transform="translate(17.8516 8.28467)" fill="white"/>
</g>
</g>
</g>
<g id="Group_4">
<g id="Vector_3">
<path d="M 7.48123 8.60845L 2.98451 8.60845L 1.90463 11.7971L -9.6716e-07 11.7971L 4.25922 1.94244e-07L 6.23806 1.94244e-07L 10.4973 11.7971L 8.56017 11.7971L 7.48123 8.60845ZM 3.45023 7.13706L 7.01462 7.13706L 5.25749 1.96217L 5.20832 1.96217L 3.45023 7.13706Z" transform="translate(32.7065 17.1746)" fill="white"/>
</g>
<g id="Vector_4">
<path d="M 8.10191 4.39255C 8.10191 7.06534 6.67134 8.78257 4.51251 8.78257C 3.96564 8.81118 3.42177 8.6852 2.94317 8.41907C 2.46457 8.15294 2.07058 7.75741 1.80633 7.27777L 1.76547 7.27777L 1.76547 11.5379L 2.55126e-08 11.5379L 2.55126e-08 0.0915797L 1.70891 0.0915797L 1.70891 1.52214L 1.74138 1.52214C 2.01779 1.0448 2.41843 0.651321 2.90068 0.383569C 3.38292 0.115816 3.92874 -0.0161931 4.48004 0.00158619C 6.66296 0.00159569 8.10191 1.72717 8.10191 4.39255ZM 6.28726 4.39255C 6.28726 2.6512 5.38736 1.50637 4.01432 1.50637C 2.6654 1.50637 1.75807 2.67531 1.75807 4.39255C 1.75807 6.12555 2.6654 7.28614 4.01432 7.28614C 5.38737 7.28614 6.28726 6.14967 6.28726 4.39255Z" transform="translate(44.3003 20.2786)" fill="white"/>
</g>
<g id="Vector_5">
<path d="M 8.1019 4.39254C 8.1019 7.06534 6.67134 8.78256 4.51251 8.78256C 3.96564 8.81117 3.42177 8.68519 2.94317 8.41906C 2.46457 8.15293 2.07058 7.7574 1.80633 7.27777L 1.76547 7.27777L 1.76547 11.5379L -3.59496e-08 11.5379L -3.59496e-08 0.0915707L 1.70887 0.0915707L 1.70887 1.52213L 1.74134 1.52213C 2.01775 1.04479 2.41839 0.651314 2.90064 0.383563C 3.38289 0.115812 3.92871 -0.0161957 4.48002 0.00158622C 6.66299 0.00158622 8.1019 1.72716 8.1019 4.39254ZM 6.28726 4.39254C 6.28726 2.65119 5.38736 1.50636 4.01432 1.50636C 2.6654 1.50636 1.75807 2.67531 1.75807 4.39254C 1.75807 6.12554 2.6654 7.28613 4.01432 7.28613C 5.38737 7.28613 6.28727 6.14966 6.28727 4.39254L 6.28726 4.39254Z" transform="translate(53.7671 20.2786)" fill="white"/>
</g>
<g id="Vector_6">
<path d="M 1.80725 8.70681C 1.93806 9.87668 3.07454 10.6448 4.62755 10.6448C 6.11563 10.6448 7.18623 9.87664 7.18623 8.8218C 7.18623 7.90613 6.54053 7.35786 5.01163 6.98212L 3.48274 6.6138C 1.31649 6.09056 0.310817 5.07748 0.310817 3.43354C 0.310817 1.39809 2.08465 3.27025e-07 4.60343 3.27025e-07C 7.09622 3.27025e-07 8.80512 1.39809 8.86264 3.43354L 7.08045 3.43354C 6.97377 2.25624 6.00057 1.54561 4.57836 1.54561C 3.15615 1.54561 2.18296 2.2646 2.18296 3.31108C 2.18296 4.14511 2.80454 4.63588 4.32509 5.01158L 5.62483 5.33072C 8.04528 5.90313 9.05095 6.87541 9.05095 8.60097C 9.05095 10.808 7.29289 12.1904 4.49671 12.1904C 1.88051 12.1904 0.114112 10.8405 -2.05261e-06 8.70672L 1.80725 8.70681Z" transform="translate(66.3179 16.9778)" fill="white"/>
</g>
<g id="Vector_7">
<path d="M 3.0244 8.2916e-07L 3.0244 2.03545L 4.65999 2.03545L 4.65999 3.43354L 3.0244 3.43354L 3.0244 8.17517C 3.0244 8.91179 3.35189 9.25505 4.07088 9.25505C 4.26505 9.25166 4.45891 9.23803 4.65164 9.2142L 4.65164 10.6039C 4.32838 10.6643 3.99982 10.6917 3.67103 10.6856C 1.92968 10.6856 1.25058 10.0315 1.25058 8.36347L 1.25058 3.43354L 5.1721e-07 3.43354L 5.1721e-07 2.03545L 1.25055 2.03545L 1.25055 8.2916e-07L 3.0244 8.2916e-07Z" transform="translate(76.1548 18.3347)" fill="white"/>
</g>
<g id="Vector_8">
<path d="M 2.31933e-06 4.40672C 2.31933e-06 1.70053 1.59384 3.89067e-07 4.07924 3.89067e-07C 6.57298 3.89067e-07 8.1594 1.70049 8.1594 4.40672C 8.1594 7.12034 6.58133 8.81344 4.07924 8.81344C 1.57803 8.81344 2.31933e-06 7.12033 2.31933e-06 4.40672ZM 6.36052 4.40672C 6.36052 2.55033 5.50979 1.45468 4.07923 1.45468C 2.64867 1.45468 1.79887 2.55868 1.79887 4.40672C 1.79887 6.27053 2.64867 7.35784 4.07923 7.35784C 5.50979 7.35784 6.36048 6.27053 6.36048 4.40672L 6.36052 4.40672Z" transform="translate(81.7622 20.2646)" fill="white"/>
</g>
<g id="Vector_9">
<path d="M 7.64219e-06 0.0914983L 1.68384 0.0914983L 1.68384 1.55544L 1.72469 1.55544C 1.83861 1.09822 2.10647 0.694159 2.48323 0.411169C 2.85998 0.128179 3.32267 -0.0164852 3.79353 0.00149386C 3.99699 0.000783485 4.19988 0.0228806 4.39841 0.0673682L 4.39841 1.71873C 4.14156 1.64024 3.87362 1.60421 3.60516 1.61204C 3.34869 1.60164 3.093 1.64686 2.85564 1.7446C 2.61829 1.84234 2.4049 1.99029 2.23013 2.17829C 2.05535 2.36628 1.92333 2.58987 1.84313 2.83371C 1.76292 3.07754 1.73643 3.33585 1.76547 3.59089L 1.76547 8.69249L 3.94286e-07 8.69249L 7.64219e-06 0.0914983Z" transform="translate(91.3774 20.2791)" fill="white"/>
</g>
<g id="Vector_10">
<path d="M 7.75862 6.18055C 7.52112 7.74191 6.00056 8.81345 4.05511 8.81345C 1.55302 8.81345 -1.85778e-06 7.13703 -1.85778e-06 4.44754C -1.85778e-06 1.7497 1.56137 8.2916e-07 3.98089 8.2916e-07C 6.36052 8.2916e-07 7.85696 1.63466 7.85696 4.24251L 7.85696 4.8474L 1.78218 4.8474L 1.78218 4.95408C 1.75414 5.27062 1.79377 5.5895 1.89843 5.88955C 2.0031 6.1896 2.17042 6.46394 2.38925 6.69436C 2.60809 6.92478 2.87345 7.106 3.1677 7.22599C 3.46196 7.34598 3.77838 7.40199 4.09594 7.3903C 4.51314 7.42939 4.93182 7.33277 5.28969 7.1148C 5.64757 6.89683 5.92552 6.56917 6.08221 6.18054L 7.75862 6.18055ZM 1.79052 3.61351L 6.09055 3.61351C 6.1064 3.3289 6.06325 3.04408 5.96381 2.77693C 5.86437 2.50978 5.71077 2.26607 5.51268 2.0611C 5.31458 1.85612 5.07626 1.6943 4.81266 1.58579C 4.54907 1.47729 4.26588 1.42444 3.98089 1.43056C 3.69339 1.42885 3.4084 1.48408 3.14236 1.59309C 2.87632 1.70209 2.63451 1.86271 2.43086 2.06566C 2.22722 2.26861 2.06579 2.50988 1.95589 2.77555C 1.84598 3.04122 1.78978 3.32602 1.79052 3.61352L 1.79052 3.61351Z" transform="translate(96.1567 20.2646)" fill="white"/>
</g>
</g>
</g>
</g>
<g id="&#60;Group&#62;_4">
<g id="Group_5">
<g id="Vector_11">
<path d="M 2.0475 0.00643223C 2.41763 -0.0201289 2.78905 0.0357879 3.13495 0.170149C 3.48086 0.30451 3.79263 0.513965 4.04779 0.783408C 4.30294 1.05285 4.49512 1.37556 4.61045 1.72827C 4.72578 2.08098 4.7614 2.45488 4.71473 2.82302C 4.71473 4.63395 3.73598 5.67491 2.0475 5.67491L 1.2594e-06 5.67491L 1.2594e-06 0.00643223L 2.0475 0.00643223ZM 0.880411 4.87327L 1.94916 4.87327C 2.21364 4.88908 2.47832 4.84571 2.72393 4.74633C 2.96954 4.64694 3.18991 4.49404 3.36897 4.29876C 3.54804 4.10347 3.68131 3.87071 3.75908 3.61743C 3.83685 3.36414 3.85716 3.0967 3.81853 2.83457C 3.85435 2.57348 3.83198 2.3077 3.75302 2.05627C 3.67406 1.80484 3.54046 1.57399 3.3618 1.38025C 3.18314 1.18652 2.96384 1.0347 2.71962 0.93568C 2.47539 0.836656 2.21229 0.792877 1.94916 0.807479L 0.880411 0.807479L 0.880411 4.87327Z" transform="translate(33.8872 8.2876)" fill="white"/>
</g>
<g id="Vector_12">
<path d="M 0.00954226 2.21955C -0.0173513 1.93843 0.0148089 1.65479 0.103957 1.38683C 0.193105 1.11886 0.337272 0.872488 0.527216 0.663506C 0.717161 0.454523 0.948689 0.287546 1.20695 0.173285C 1.4652 0.0590235 1.74449 2.02164e-07 2.02689 2.02164e-07C 2.3093 2.02164e-07 2.58859 0.0590235 2.84685 0.173285C 3.1051 0.287546 3.33663 0.454523 3.52657 0.663506C 3.71652 0.872488 3.86069 1.11886 3.94983 1.38683C 4.03898 1.65479 4.07114 1.93843 4.04425 2.21955C 4.07165 2.50096 4.03987 2.78499 3.95096 3.05339C 3.86205 3.32179 3.71797 3.56862 3.52797 3.77801C 3.33798 3.9874 3.10628 4.15473 2.84777 4.26924C 2.58925 4.38374 2.30964 4.4429 2.02689 4.4429C 1.74415 4.4429 1.46454 4.38374 1.20602 4.26924C 0.947506 4.15473 0.715807 3.9874 0.525814 3.77801C 0.335821 3.56862 0.191739 3.32179 0.102826 3.05339C 0.0139141 2.78499 -0.0178617 2.50096 0.00954226 2.21955L 0.00954226 2.21955ZM 3.17588 2.21955C 3.17588 1.29229 2.75933 0.750031 2.02829 0.750031C 1.29445 0.750031 0.881639 1.29229 0.881639 2.21956C 0.881639 3.15425 1.29448 3.69233 2.02829 3.69233C 2.75935 3.69232 3.17589 3.15053 3.17589 2.21955L 3.17588 2.21955Z" transform="translate(39.5869 9.60229)" fill="white"/>
</g>
<g id="Vector_13">
<path d="M 4.75369 4.27777L 3.87792 4.27777L 2.99379 1.12719L 2.927 1.12719L 2.04658 4.27777L 1.17915 4.27777L -1.1156e-06 3.83849e-07L 0.856299 3.83849e-07L 1.6226 3.26419L 1.68569 3.26419L 2.56518 3.83849e-07L 3.37509 3.83849e-07L 4.25458 3.26419L 4.32138 3.26419L 5.08397 3.83849e-07L 5.9282 3.83849e-07L 4.75369 4.27777Z" transform="translate(44.2407 9.68481)" fill="white"/>
</g>
<g id="Vector_14">
<path d="M 8.0875e-06 0.086785L 0.812694 0.086785L 0.812694 0.766346L 0.875783 0.766346C 0.982804 0.522272 1.16331 0.317669 1.39213 0.181054C 1.62096 0.0444388 1.88671 -0.0173816 2.15234 0.00421061C 2.36048 -0.0114386 2.56948 0.0199451 2.76385 0.0960361C 2.95822 0.172127 3.13297 0.290976 3.27517 0.443777C 3.41737 0.596578 3.52337 0.779415 3.58531 0.978743C 3.64725 1.17807 3.66355 1.38878 3.633 1.59527L 3.633 4.36451L 2.78877 4.36451L 2.78877 1.80727C 2.78877 1.11982 2.49004 0.777946 1.86567 0.777946C 1.72435 0.771364 1.58328 0.795416 1.45213 0.848454C 1.32097 0.901493 1.20284 0.982263 1.10582 1.08523C 1.0088 1.18819 0.935194 1.31092 0.890043 1.44499C 0.844892 1.57907 0.829265 1.72132 0.844233 1.862L 0.844233 4.36455L 8.39597e-07 4.36455L 8.0875e-06 0.086785Z" transform="translate(51.1611 9.5979)" fill="white"/>
</g>
<g id="Vector_15">
<path d="M -8.80185e-07 2.60924e-07L 0.844235 2.60924e-07L 0.844235 5.94768L -8.80185e-07 5.94768L -8.80185e-07 2.60924e-07Z" transform="translate(56.1392 8.01514)" fill="white"/>
</g>
<g id="Vector_16">
<path d="M 0.00951792 2.21963C -0.017355 1.93849 0.014825 1.65484 0.103994 1.38686C 0.193164 1.11889 0.337355 0.872505 0.527319 0.663518C 0.717283 0.45453 0.948828 0.287551 1.2071 0.173288C 1.46538 0.0590246 1.74468 3.7932e-07 2.02711 3.7932e-07C 2.30953 3.7932e-07 2.58883 0.0590246 2.84711 0.173288C 3.10538 0.287551 3.33692 0.45453 3.52689 0.663518C 3.71685 0.872505 3.86104 1.11889 3.95021 1.38686C 4.03938 1.65484 4.07156 1.93849 4.04469 2.21963C 4.07205 2.50105 4.04025 2.78509 3.95131 3.05348C 3.86237 3.32188 3.71826 3.5687 3.52825 3.77809C 3.33824 3.98748 3.10653 4.1548 2.848 4.2693C 2.58947 4.3838 2.30985 4.44295 2.02711 4.44295C 1.74436 4.44295 1.46473 4.3838 1.2062 4.2693C 0.947677 4.1548 0.715964 3.98748 0.525953 3.77809C 0.335942 3.5687 0.191836 3.32188 0.102896 3.05348C 0.0139562 2.78509 -0.0178513 2.50105 0.00951792 2.21963L 0.00951792 2.21963ZM 3.17586 2.21963C 3.17586 1.29237 2.7593 0.750111 2.02826 0.750111C 1.29443 0.750111 0.881618 1.29237 0.881618 2.21964C 0.881618 3.15433 1.29446 3.69241 2.02826 3.69241C 2.75931 3.6924 3.17586 3.15061 3.17586 2.21963L 3.17586 2.21963Z" transform="translate(58.147 9.60229)" fill="white"/>
</g>
<g id="Vector_17">
<path d="M 1.70471e-06 3.15057C 1.70471e-06 2.38055 0.573341 1.93664 1.59105 1.87355L 2.7498 1.80675L 2.7498 1.43752C 2.7498 0.985708 2.45107 0.730585 1.87402 0.730585C 1.40274 0.730585 1.07618 0.903608 0.982469 1.20605L 0.165138 1.20605C 0.251417 0.471284 0.942581 -2.91656e-07 1.91298 -2.91656e-07C 2.98544 -2.91656e-07 3.59032 0.533899 3.59032 1.43752L 3.59032 4.36033L 2.77763 4.36033L 2.77763 3.75917L 2.71083 3.75917C 2.57525 3.97481 2.38487 4.1506 2.15913 4.2686C 1.93339 4.3866 1.68037 4.44258 1.42592 4.43081C 1.24634 4.44949 1.06484 4.43033 0.893117 4.37457C 0.721394 4.31881 0.563264 4.22768 0.428918 4.10706C 0.294572 3.98644 0.186996 3.839 0.11312 3.67426C 0.0392433 3.50952 0.000709236 3.33112 1.70471e-06 3.15057L 1.70471e-06 3.15057ZM 2.7498 2.78504L 2.7498 2.4274L 1.70517 2.4942C 1.11606 2.53362 0.848869 2.73401 0.848869 3.11113C 0.848869 3.49614 1.18285 3.72019 1.64212 3.72019C 1.77668 3.73381 1.9126 3.72022 2.04181 3.68024C 2.17101 3.64025 2.29086 3.57468 2.3942 3.48743C 2.49755 3.40019 2.58229 3.29304 2.64338 3.17237C 2.70447 3.0517 2.74066 2.91998 2.7498 2.78504L 2.7498 2.78504Z" transform="translate(63.0811 9.60229)" fill="white"/>
</g>
<g id="Vector_18">
<path d="M -1.99462e-07 3.80696C -1.99462e-07 2.45526 0.694876 1.59896 1.77568 1.59896C 2.04302 1.58664 2.30835 1.65067 2.54065 1.78357C 2.77295 1.91647 2.96262 2.11275 3.08749 2.34946L 3.15058 2.34946L 3.15058 2.60924e-07L 3.99481 2.60924e-07L 3.99481 5.94768L 3.18584 5.94768L 3.18584 5.27183L 3.11904 5.27183C 2.98451 5.50694 2.78823 5.70078 2.55144 5.83233C 2.31465 5.96389 2.04638 6.02816 1.77568 6.01818C 0.687454 6.01823 -1.99462e-07 5.16191 -1.99462e-07 3.80696ZM 0.872096 3.80696C 0.872096 4.71428 1.29979 5.26026 2.01507 5.26026C 2.72662 5.26026 3.16638 4.70641 3.16638 3.81068C 3.16638 2.91912 2.722 2.35738 2.01507 2.35738C 1.30439 2.35738 0.872067 2.90706 0.872067 3.80696L 0.872096 3.80696Z" transform="translate(67.7808 8.01514)" fill="white"/>
</g>
<g id="Vector_19">
<path d="M 0.0095461 2.21955C -0.0173475 1.93843 0.0148091 1.65479 0.103957 1.38683C 0.193105 1.11886 0.337276 0.872488 0.52722 0.663506C 0.717164 0.454523 0.948686 0.287546 1.20694 0.173285C 1.4652 0.0590235 1.74449 2.02164e-07 2.0269 2.02164e-07C 2.3093 2.02164e-07 2.58859 0.0590235 2.84685 0.173285C 3.1051 0.287546 3.33662 0.454523 3.52657 0.663506C 3.71651 0.872488 3.86068 1.11886 3.94983 1.38683C 4.03898 1.65479 4.07114 1.93843 4.04425 2.21955C 4.07165 2.50096 4.03987 2.78499 3.95096 3.05339C 3.86205 3.32179 3.71797 3.56862 3.52797 3.77801C 3.33798 3.9874 3.10628 4.15473 2.84777 4.26924C 2.58925 4.38374 2.30964 4.4429 2.0269 4.4429C 1.74416 4.4429 1.46454 4.38374 1.20602 4.26924C 0.947506 4.15473 0.715807 3.9874 0.525814 3.77801C 0.335821 3.56862 0.191739 3.32179 0.102827 3.05339C 0.0139143 2.78499 -0.0178579 2.50096 0.0095461 2.21955L 0.0095461 2.21955ZM 3.17589 2.21955C 3.17589 1.29229 2.75933 0.750031 2.02829 0.750031C 1.29445 0.750031 0.881643 1.29229 0.881643 2.21956C 0.881643 3.15425 1.29448 3.69233 2.02829 3.69233C 2.75934 3.69232 3.17589 3.15053 3.17589 2.21955Z" transform="translate(75.2588 9.60229)" fill="white"/>
</g>
<g id="Vector_20">
<path d="M -1.09008e-06 0.086785L 0.812692 0.086785L 0.812692 0.766346L 0.875785 0.766346C 0.982806 0.522272 1.16331 0.317669 1.39213 0.181054C 1.62096 0.0444388 1.88671 -0.0173816 2.15234 0.00421061C 2.36049 -0.0114386 2.56948 0.0199451 2.76385 0.0960361C 2.95822 0.172127 3.13297 0.290976 3.27517 0.443777C 3.41737 0.596578 3.52337 0.779415 3.58531 0.978743C 3.64725 1.17807 3.66355 1.38878 3.633 1.59527L 3.633 4.36451L 2.78877 4.36451L 2.78877 1.80727C 2.78877 1.11982 2.49004 0.777946 1.86567 0.777946C 1.72435 0.771364 1.58328 0.795416 1.45212 0.848454C 1.32097 0.901493 1.20284 0.982263 1.10582 1.08523C 1.0088 1.18819 0.935192 1.31092 0.890041 1.44499C 0.84489 1.57907 0.829266 1.72132 0.844234 1.862L 0.844234 4.36455L -1.09008e-06 4.36455L -1.09008e-06 0.086785Z" transform="translate(80.436 9.5979)" fill="white"/>
</g>
<g id="Vector_21">
<path d="M 1.52426 4.45311e-07L 1.52426 1.08452L 2.45107 1.08452L 2.45107 1.79563L 1.52426 1.79563L 1.52426 3.99528C 1.52426 4.44337 1.70888 4.63958 2.12914 4.63958C 2.23673 4.63924 2.34422 4.63274 2.45107 4.6201L 2.45107 5.32332C 2.29946 5.35044 2.14585 5.36487 1.99184 5.36646C 1.05297 5.36646 0.679097 5.03618 0.679097 4.21143L 0.679097 1.79559L -2.45153e-06 1.79559L -2.45153e-06 1.08448L 0.679097 1.08448L 0.679097 4.45311e-07L 1.52426 4.45311e-07Z" transform="translate(87.3145 8.61987)" fill="white"/>
</g>
<g id="Vector_22">
<path d="M 2.59533e-06 2.60924e-07L 0.836816 2.60924e-07L 0.836816 2.35737L 0.903606 2.35737C 1.01583 2.11102 1.20129 1.90526 1.4347 1.76813C 1.66811 1.631 1.93813 1.56917 2.20795 1.59106C 2.41501 1.5798 2.62201 1.61437 2.81417 1.69231C 3.00634 1.77025 3.17894 1.88963 3.31965 2.04196C 3.46036 2.19428 3.56573 2.37577 3.62822 2.5735C 3.69072 2.77123 3.7088 2.98031 3.68119 3.18583L 3.68119 5.94769L 2.83611 5.94769L 2.83611 3.3941C 2.83611 2.71083 2.51786 2.36478 1.92137 2.36478C 1.77627 2.35288 1.63032 2.37283 1.49373 2.42323C 1.35714 2.47363 1.23322 2.55327 1.13062 2.65657C 1.02803 2.75987 0.949248 2.88434 0.899786 3.02127C 0.850324 3.1582 0.831378 3.30428 0.844274 3.4493L 0.844274 5.94767L 3.88348e-05 5.94767L 2.59533e-06 2.60924e-07Z" transform="translate(90.9189 8.01514)" fill="white"/>
</g>
<g id="Vector_23">
<path d="M 3.84792 3.20538C 3.73322 3.59634 3.4847 3.93453 3.14585 4.16077C 2.80699 4.38701 2.39938 4.4869 1.99431 4.44297C 1.71249 4.45041 1.43241 4.39643 1.17353 4.28478C 0.914657 4.17313 0.683179 4.00648 0.495165 3.7964C 0.307151 3.58632 0.167109 3.33784 0.0847528 3.06821C 0.0023962 2.79858 -0.0202959 2.51426 0.018246 2.23498C -0.0192835 1.95484 0.00380814 1.6699 0.0859704 1.39946C 0.168133 1.12903 0.307446 0.879398 0.494469 0.667479C 0.681493 0.455561 0.911863 0.286298 1.16999 0.171151C 1.42811 0.0560045 1.70796 -0.00233825 1.9906 7.18885e-05C 3.18088 7.18885e-05 3.89894 0.813269 3.89894 2.15656L 3.89894 2.45115L 0.878246 2.45115L 0.878246 2.49846C 0.865026 2.65544 0.884761 2.81346 0.936178 2.96237C 0.987595 3.11128 1.06956 3.2478 1.17682 3.36318C 1.28409 3.47857 1.41428 3.57026 1.55905 3.63239C 1.70382 3.69452 1.85997 3.7257 2.0175 3.72395C 2.21945 3.7482 2.42404 3.71184 2.60526 3.61949C 2.78648 3.52714 2.93615 3.38299 3.03522 3.20535L 3.84792 3.20538ZM 0.878224 1.82677L 3.03891 1.82677C 3.04955 1.6832 3.03004 1.53899 2.98163 1.40341C 2.93322 1.26783 2.85699 1.14387 2.75782 1.03951C 2.65866 0.935145 2.53875 0.852681 2.40582 0.797414C 2.27289 0.742148 2.12986 0.715302 1.98594 0.718602C 1.83992 0.716767 1.69502 0.744182 1.55977 0.799229C 1.42451 0.854276 1.30165 0.935843 1.19842 1.03912C 1.09519 1.1424 1.01368 1.2653 0.95869 1.40057C 0.903702 1.53585 0.876347 1.68076 0.878246 1.82677L 0.878224 1.82677Z" transform="translate(95.6748 9.60229)" fill="white"/>
</g>
</g>
</g>
</g>
</g>
</g>
</svg>

