<svg width="127" height="38" viewBox="0 0 127 38" version="1.1" xmlns="http://www.w3.org/2000/svg" xmlns:xlink="http://www.w3.org/1999/xlink">
<g id="Canvas" fill="none">
<g id="download-android">
<g id="Group">
<g id="Vector">
<path d="M 121.67 37.9999L 4.67961 37.9999C 2.05903 37.9999 0 35.9099 0 33.2499L 0 4.74998C 0 2.08999 2.05903 0 4.67961 0L 121.67 0C 124.291 0 126.35 2.08999 126.35 4.74998L 126.35 33.2499C 126.35 35.8149 124.291 37.9999 121.67 37.9999Z" transform="translate(0.25 0)" fill="black"/>
</g>
</g>
<g id="Group_2">
<g id="Group_3">
<g id="Vector_2">
<path d="M 121.67 0.759998C 123.823 0.759998 125.601 2.56499 125.601 4.74998L 125.601 33.2499C 125.601 35.4349 123.823 37.2399 121.67 37.2399L 4.67961 37.2399C 2.52699 37.2399 0.748739 35.4349 0.748739 33.2499L 0.748739 4.74998C 0.748739 2.56499 2.52699 0.759998 4.67961 0.759998L 121.67 0.759998ZM 121.67 0L 4.67961 0C 2.05903 0 0 2.08999 0 4.74998L 0 33.2499C 0 35.9099 2.05903 37.9999 4.67961 37.9999L 121.67 37.9999C 124.291 37.9999 126.35 35.9099 126.35 33.2499L 126.35 4.74998C 126.35 2.18499 124.291 0 121.67 0Z" transform="translate(0.25 0)" fill="#A6A6A6"/>
</g>
</g>
</g>
<g id="Group_4">
<g id="Vector_3">
<path d="M 5.69998 3.13499C 5.69998 3.89499 5.50998 4.55999 5.03498 5.03498C 4.46499 5.60498 3.79999 5.88998 2.94499 5.88998C 2.08999 5.88998 1.42499 5.60498 0.854997 5.03498C 0.284998 4.46499 1.44958e-06 3.79999 1.44958e-06 2.94499C 1.44958e-06 2.08999 0.284998 1.42499 0.854997 0.854996C 1.42499 0.284998 2.08999 -3.62395e-07 2.94499 -3.62395e-07C 3.32499 -3.62395e-07 3.70499 0.0950004 4.08499 0.285C 4.46499 0.474999 4.74998 0.664997 4.93998 0.949997L 4.46498 1.42499C 4.08499 0.949997 3.60999 0.759998 2.94499 0.759998C 2.37499 0.759998 1.805 0.949997 1.425 1.42499C 0.949998 1.80499 0.759998 2.37499 0.759998 3.03999C 0.759998 3.70499 0.949998 4.27499 1.425 4.65498C 1.9 5.03498 2.37499 5.31998 2.94499 5.31998C 3.60999 5.31998 4.08499 5.12998 4.55999 4.65498C 4.84499 4.36998 5.03498 3.98999 5.03498 3.51499L 2.94499 3.51499L 2.94499 2.84999L 5.69998 2.84999C 5.69998 2.84999 5.69998 3.03999 5.69998 3.13499Z" transform="translate(39.5791 6.55493)" fill="white"/>
<path d="M 5.69998 3.13499C 5.69998 3.89499 5.50998 4.55999 5.03498 5.03498C 4.46499 5.60498 3.79999 5.88998 2.94499 5.88998C 2.08999 5.88998 1.42499 5.60498 0.854997 5.03498C 0.284998 4.46499 1.44958e-06 3.79999 1.44958e-06 2.94499C 1.44958e-06 2.08999 0.284998 1.42499 0.854997 0.854996C 1.42499 0.284998 2.08999 -3.62395e-07 2.94499 -3.62395e-07C 3.32499 -3.62395e-07 3.70499 0.0950004 4.08499 0.285C 4.46499 0.474999 4.74998 0.664997 4.93998 0.949997L 4.46498 1.42499C 4.08499 0.949997 3.60999 0.759998 2.94499 0.759998C 2.37499 0.759998 1.805 0.949997 1.425 1.42499C 0.949998 1.80499 0.759998 2.37499 0.759998 3.03999C 0.759998 3.70499 0.949998 4.27499 1.425 4.65498C 1.9 5.03498 2.37499 5.31998 2.94499 5.31998C 3.60999 5.31998 4.08499 5.12998 4.55999 4.65498C 4.84499 4.36998 5.03498 3.98999 5.03498 3.51499L 2.94499 3.51499L 2.94499 2.84999L 5.69998 2.84999C 5.69998 2.84999 5.69998 3.03999 5.69998 3.13499Z" stroke-width="0.2" stroke-miterlimit="10" transform="translate(39.5791 6.55493)" stroke="white"/>
</g>
<g id="Vector_4">
<path d="M 3.32499 0.664999L 0.759997 0.664999L 0.759997 2.46999L 3.13499 2.46999L 3.13499 3.13499L 0.759997 3.13499L 0.759997 4.93998L 3.32499 4.93998L 3.32499 5.69998L 0 5.69998L 0 0L 3.32499 0L 3.32499 0.664999Z" transform="translate(46.3242 6.6499)" fill="white"/>
<path d="M 3.32499 0.664999L 0.759997 0.664999L 0.759997 2.46999L 3.13499 2.46999L 3.13499 3.13499L 0.759997 3.13499L 0.759997 4.93998L 3.32499 4.93998L 3.32499 5.69998L 0 5.69998L 0 0L 3.32499 0L 3.32499 0.664999Z" stroke-width="0.2" stroke-miterlimit="10" transform="translate(46.3242 6.6499)" stroke="white"/>
</g>
<g id="Vector_5">
<path d="M 2.375 5.69998L 1.61499 5.69998L 1.61499 0.664999L -7.2479e-07 0.664999L -7.2479e-07 0L 3.98999 0L 3.98999 0.664999L 2.375 0.664999L 2.375 5.69998Z" transform="translate(50.4097 6.6499)" fill="white"/>
<path d="M 2.375 5.69998L 1.61499 5.69998L 1.61499 0.664999L -7.2479e-07 0.664999L -7.2479e-07 0L 3.98999 0L 3.98999 0.664999L 2.375 0.664999L 2.375 5.69998Z" stroke-width="0.2" stroke-miterlimit="10" transform="translate(50.4097 6.6499)" stroke="white"/>
</g>
<g id="Vector_6">
<path d="M 1.44958e-06 5.69998L 1.44958e-06 0L 0.759995 0L 0.759995 5.69998L 1.44958e-06 5.69998Z" transform="translate(57.1543 6.6499)" fill="white"/>
<path d="M 1.44958e-06 5.69998L 1.44958e-06 0L 0.759995 0L 0.759995 5.69998L 1.44958e-06 5.69998Z" stroke-width="0.2" stroke-miterlimit="10" transform="translate(57.1543 6.6499)" stroke="white"/>
</g>
<g id="Vector_7">
<path d="M 2.37499 5.69998L 1.615 5.69998L 1.615 0.664999L -1.44958e-06 0.664999L -1.44958e-06 0L 3.89498 0L 3.89498 0.664999L 2.27999 0.664999L 2.27999 5.69998L 2.37499 5.69998Z" transform="translate(58.77 6.6499)" fill="white"/>
<path d="M 2.37499 5.69998L 1.615 5.69998L 1.615 0.664999L -1.44958e-06 0.664999L -1.44958e-06 0L 3.89498 0L 3.89498 0.664999L 2.27999 0.664999L 2.27999 5.69998L 2.37499 5.69998Z" stroke-width="0.2" stroke-miterlimit="10" transform="translate(58.77 6.6499)" stroke="white"/>
</g>
<g id="Vector_8">
<path d="M 5.03498 5.03498C 4.46498 5.60498 3.79999 5.88998 2.94499 5.88998C 2.08999 5.88998 1.42499 5.60498 0.854994 5.03498C 0.284996 4.46499 2.89916e-06 3.79999 2.89916e-06 2.94499C 2.89916e-06 2.08999 0.284996 1.42499 0.854994 0.854996C 1.42499 0.284998 2.08999 -3.62395e-07 2.94499 -3.62395e-07C 3.79999 -3.62395e-07 4.46498 0.284998 5.03498 0.854996C 5.60498 1.42499 5.88998 2.08999 5.88998 2.94499C 5.88998 3.79999 5.60498 4.46499 5.03498 5.03498ZM 1.425 4.55999C 1.805 4.93998 2.37499 5.22498 2.94499 5.22498C 3.51499 5.22498 4.08499 5.03498 4.46499 4.55999C 4.84498 4.17999 5.12998 3.60999 5.12998 2.94499C 5.12998 2.27999 4.93998 1.70999 4.46499 1.32999C 4.08499 0.949996 3.51499 0.664998 2.94499 0.664998C 2.37499 0.664998 1.805 0.854996 1.425 1.32999C 1.045 1.70999 0.759996 2.27999 0.759996 2.94499C 0.759996 3.60999 0.95 4.17999 1.425 4.55999Z" transform="translate(65.1338 6.55493)" fill="white"/>
<path d="M 5.03498 5.03498C 4.46498 5.60498 3.79999 5.88998 2.94499 5.88998C 2.08999 5.88998 1.42499 5.60498 0.854994 5.03498C 0.284996 4.46499 2.89916e-06 3.79999 2.89916e-06 2.94499C 2.89916e-06 2.08999 0.284996 1.42499 0.854994 0.854996C 1.42499 0.284998 2.08999 -3.62395e-07 2.94499 -3.62395e-07C 3.79999 -3.62395e-07 4.46498 0.284998 5.03498 0.854996C 5.60498 1.42499 5.88998 2.08999 5.88998 2.94499C 5.88998 3.79999 5.60498 4.46499 5.03498 5.03498ZM 1.425 4.55999C 1.805 4.93998 2.37499 5.22498 2.94499 5.22498C 3.51499 5.22498 4.08499 5.03498 4.46499 4.55999C 4.84498 4.17999 5.12998 3.60999 5.12998 2.94499C 5.12998 2.27999 4.93998 1.70999 4.46499 1.32999C 4.08499 0.949996 3.51499 0.664998 2.94499 0.664998C 2.37499 0.664998 1.805 0.854996 1.425 1.32999C 1.045 1.70999 0.759996 2.27999 0.759996 2.94499C 0.759996 3.60999 0.95 4.17999 1.425 4.55999Z" stroke-width="0.2" stroke-miterlimit="10" transform="translate(65.1338 6.55493)" stroke="white"/>
</g>
<g id="Vector_9">
<path d="M -1.44958e-06 5.69998L -1.44958e-06 0L 0.854997 0L 3.60999 4.46499L 3.60999 3.32499L 3.60999 0L 4.36998 0L 4.36998 5.69998L 3.60999 5.69998L 0.665001 1.045L 0.665001 2.18499L 0.665001 5.69998L -1.44958e-06 5.69998Z" transform="translate(72.0693 6.6499)" fill="white"/>
<path d="M -1.44958e-06 5.69998L -1.44958e-06 0L 0.854997 0L 3.60999 4.46499L 3.60999 3.32499L 3.60999 0L 4.36998 0L 4.36998 5.69998L 3.60999 5.69998L 0.665001 1.045L 0.665001 2.18499L 0.665001 5.69998L -1.44958e-06 5.69998Z" stroke-width="0.2" stroke-miterlimit="10" transform="translate(72.0693 6.6499)" stroke="white"/>
</g>
</g>
<g id="Vector_10">
<path d="M 25.6499 4.46498C 23.3699 4.46498 21.5649 6.17498 21.5649 8.54997C 21.5649 10.83 23.3699 12.635 25.6499 12.635C 27.9299 12.635 29.7349 10.925 29.7349 8.54997C 29.7349 6.07998 27.9299 4.46498 25.6499 4.46498ZM 25.6499 10.925C 24.4149 10.925 23.3699 9.87997 23.3699 8.45497C 23.3699 7.02998 24.4149 5.98498 25.6499 5.98498C 26.8849 5.98498 27.9299 6.93498 27.9299 8.45497C 27.9299 9.87997 26.8849 10.925 25.6499 10.925ZM 16.8149 4.46498C 14.535 4.46498 12.73 6.17498 12.73 8.54997C 12.73 10.83 14.535 12.635 16.8149 12.635C 19.0949 12.635 20.8999 10.925 20.8999 8.54997C 20.8999 6.07998 19.0949 4.46498 16.8149 4.46498ZM 16.8149 10.925C 15.58 10.925 14.535 9.87997 14.535 8.45497C 14.535 7.02998 15.58 5.98498 16.8149 5.98498C 18.0499 5.98498 19.0949 6.93498 19.0949 8.45497C 19.0949 9.87997 18.0499 10.925 16.8149 10.925ZM 6.26998 5.69998L 6.26998 7.40998L 10.355 7.40998C 10.26 8.35997 9.87997 9.11997 9.40497 9.59497C 8.83497 10.165 7.88498 10.83 6.26998 10.83C 3.70499 10.83 1.80499 8.83497 1.80499 6.26998C 1.80499 3.70499 3.79999 1.70999 6.26998 1.70999C 7.59998 1.70999 8.64497 2.27999 9.40497 2.94499L 10.64 1.70999C 9.59497 0.759997 8.26497 3.62395e-07 6.36498 3.62395e-07C 2.94499 3.62395e-07 -1.44958e-06 2.84999 -1.44958e-06 6.26998C -1.44958e-06 9.68997 2.94499 12.54 6.36498 12.54C 8.26497 12.54 9.59497 11.97 10.735 10.735C 11.875 9.59497 12.255 7.97997 12.255 6.74498C 12.255 6.36498 12.255 5.98498 12.16 5.69998L 6.26998 5.69998L 6.26998 5.69998ZM 49.3998 7.02998C 49.0198 6.07998 48.0698 4.46498 45.9799 4.46498C 43.8899 4.46498 42.1799 6.07998 42.1799 8.54997C 42.1799 10.83 43.8899 12.635 46.1699 12.635C 47.9748 12.635 49.1148 11.495 49.4948 10.83L 48.1649 9.87997C 47.6899 10.545 47.1198 11.02 46.1699 11.02C 45.2199 11.02 44.6499 10.64 44.1749 9.78497L 49.5898 7.50498L 49.3998 7.02998ZM 43.8899 8.35997C 43.8899 6.83998 45.1249 5.98498 45.9799 5.98498C 46.6449 5.98498 47.3098 6.36498 47.4998 6.83998L 43.8899 8.35997ZM 39.4249 12.255L 41.2299 12.255L 41.2299 0.379999L 39.4249 0.379999L 39.4249 12.255ZM 36.5749 5.31998C 36.0999 4.84498 35.3399 4.36999 34.3899 4.36999C 32.3949 4.36999 30.4949 6.17498 30.4949 8.45497C 30.4949 10.735 32.2999 12.445 34.3899 12.445C 35.3399 12.445 36.0999 11.97 36.4799 11.495L 36.5749 11.495L 36.5749 12.065C 36.5749 13.585 35.7199 14.44 34.3899 14.44C 33.3449 14.44 32.5849 13.68 32.3949 13.015L 30.8749 13.68C 31.3499 14.725 32.4899 16.0549 34.4849 16.0549C 36.5749 16.0549 38.2849 14.8199 38.2849 11.875L 38.2849 4.65498L 36.5749 4.65498L 36.5749 5.31998L 36.5749 5.31998ZM 34.4849 10.925C 33.2499 10.925 32.2049 9.87997 32.2049 8.45497C 32.2049 7.02998 33.2499 5.98498 34.4849 5.98498C 35.7199 5.98498 36.6699 7.02998 36.6699 8.45497C 36.6699 9.87997 35.7199 10.925 34.4849 10.925ZM 57.6648 0.379999L 53.3898 0.379999L 53.3898 12.255L 55.1948 12.255L 55.1948 7.78997L 57.6648 7.78997C 59.6598 7.78997 61.5598 6.36498 61.5598 4.08499C 61.5598 1.80499 59.6598 0.379999 57.6648 0.379999ZM 57.7598 6.07998L 55.1948 6.07998L 55.1948 1.99499L 57.7598 1.99499C 59.0898 1.99499 59.8498 3.13499 59.8498 3.98999C 59.7548 5.03498 58.9948 6.07998 57.7598 6.07998ZM 68.6848 4.36999C 67.3548 4.36999 66.0248 4.93998 65.5498 6.17498L 67.1648 6.83998C 67.5448 6.17498 68.1148 5.98498 68.7798 5.98498C 69.7298 5.98498 70.5848 6.55498 70.6798 7.50498L 70.6798 7.59997C 70.3948 7.40997 69.6348 7.12498 68.8748 7.12498C 67.1648 7.12498 65.4548 8.07497 65.4548 9.78497C 65.4548 11.4 66.8798 12.445 68.3998 12.445C 69.6348 12.445 70.2048 11.875 70.6798 11.305L 70.7748 11.305L 70.7748 12.255L 72.4848 12.255L 72.4848 7.69498C 72.2948 5.60498 70.6798 4.36999 68.6848 4.36999ZM 68.4948 10.925C 67.9248 10.925 67.0698 10.64 67.0698 9.87997C 67.0698 8.92997 68.1148 8.64497 68.9698 8.64497C 69.7298 8.64497 70.1098 8.83497 70.5848 9.02497C 70.3948 10.165 69.4448 10.925 68.4948 10.925ZM 78.4697 4.65498L 76.4748 9.78497L 76.3798 9.78497L 74.2898 4.65498L 72.3898 4.65498L 75.5248 11.875L 73.7198 15.8649L 75.5248 15.8649L 80.3697 4.65498L 78.4697 4.65498ZM 62.5098 12.255L 64.3148 12.255L 64.3148 0.379999L 62.5098 0.379999L 62.5098 12.255Z" transform="translate(39.2944 16.2449)" fill="white"/>
</g>
<g id="Group_5">
<g id="Vector_11">
<path d="M 0.474998 0C 0.189999 0.284999 -3.62395e-07 0.759997 -3.62395e-07 1.33L -3.62395e-07 22.3249C -3.62395e-07 22.8949 0.189999 23.3699 0.474998 23.6549L 0.569998 23.7499L 12.35 11.97L 12.35 11.875L 12.35 11.78L 0.474998 0Z" transform="translate(9.65479 7.12524)" fill="url(#paint0_linear)"/>
</g>
<g id="Vector_12">
<path d="M 3.89499 8.07497L 1.44958e-06 4.17999L 1.44958e-06 3.98999L 1.44958e-06 3.89499L 3.89499 -7.2479e-07L 3.98999 0.0949993L 8.64497 2.75499C 9.97497 3.51499 9.97497 4.74998 8.64497 5.50998L 3.89499 8.07497Z" transform="translate(22.0049 15.01)" fill="url(#paint1_linear)"/>
</g>
<g id="Vector_13">
<path d="M 15.8649 3.98999L 11.875 0L -3.62395e-07 11.875C 0.474998 12.35 1.14 12.35 1.99499 11.97L 15.8649 3.98999Z" transform="translate(10.1299 18.9998)" fill="url(#paint2_linear)"/>
</g>
<g id="Vector_14">
<path d="M 15.8649 8.19726L 1.99499 0.312288C 1.14 -0.16271 0.474998 -0.0677103 -3.62395e-07 0.407288L 11.875 12.1873L 15.8649 8.19726Z" transform="translate(10.1299 6.8125)" fill="url(#paint3_linear)"/>
</g>
<g id="Group_6">
<g id="Vector_15" opacity="0.2">
<path d="M 15.7699 -1.44958e-06L 1.99499 7.78997C 1.235 8.26497 0.569998 8.16997 0.0949997 7.78997L -3.62395e-07 7.88498L 0.0949997 7.97997C 0.569998 8.35997 1.235 8.45497 1.99499 7.97997L 15.7699 -1.44958e-06Z" transform="translate(10.1289 22.895)" fill="black"/>
</g>
<g id="Vector_16" opacity="0.12">
<path d="M 0.379998 1.33C 0.0949993 1.045 0 0.57 0 1.44958e-06L 0 0.0949997C 0 0.664998 0.189999 1.14 0.474998 1.425L 0.474998 1.33L 0.379998 1.33Z" transform="translate(9.74902 29.3547)" fill="black"/>
</g>
</g>
<g id="Vector_17" opacity="0.12">
<path d="M 4.74998 1.235L 0 3.89499L 0.0949982 3.98999L 4.74998 1.33C 5.41498 0.949997 5.69998 0.474998 5.69998 0C 5.69998 0.474998 5.31998 0.854997 4.74998 1.235Z" transform="translate(25.8999 18.9998)" fill="black"/>
</g>
<g id="Vector_18" opacity="0.25">
<path d="M 2.37499 0.410778L 20.8999 10.9557C 21.4699 11.3357 21.8499 11.7157 21.8499 12.1907C 21.8499 11.7157 21.5649 11.2407 20.8999 10.8607L 2.37499 0.315778C 1.045 -0.444219 0 0.220778 0 1.74077L 0 1.83577C 0 0.315778 1.045 -0.349219 2.37499 0.410778Z" transform="translate(9.75 6.80908)" fill="white"/>
</g>
</g>
</g>
</g>
<defs>

<linearGradient id="paint0_linear" x2="1" gradientUnits="userSpaceOnUse" gradientTransform="matrix(-15.9432 15.9432 15.9432 15.9432 3.33306 -6.8224)">
<stop stop-color="#00A0FF"/>
<stop offset="0.00657445" stop-color="#00A1FF"/>
<stop offset="0.2601" stop-color="#00BEFF"/>
<stop offset="0.5122" stop-color="#00D2FF"/>
<stop offset="0.7604" stop-color="#00DFFF"/>
<stop offset="1" stop-color="#00E3FF"/>
</linearGradient>
<linearGradient id="paint1_linear" x2="1" gradientUnits="userSpaceOnUse" gradientTransform="translate(10.3876 -7.50217) scale(-22.987 22.987)">
<stop stop-color="#FFE000"/>
<stop offset="0.4087" stop-color="#FFBD00"/>
<stop offset="0.7754" stop-color="#FFA500"/>
<stop offset="1" stop-color="#FF9C00"/>
</linearGradient>
<linearGradient id="paint2_linear" x2="1" gradientUnits="userSpaceOnUse" gradientTransform="matrix(-21.6203 21.6203 21.6203 21.6203 2.89545 -8.62887)">
<stop stop-color="#FF3A44"/>
<stop offset="1" stop-color="#C31162"/>
</linearGradient>
<linearGradient id="paint3_linear" x2="1" gradientUnits="userSpaceOnUse" gradientTransform="matrix(9.65444 9.65434 9.65434 -9.65444 -7.77473 -1.81808)">
<stop stop-color="#32A071"/>
<stop offset="0.0685" stop-color="#2DA771"/>
<stop offset="0.4762" stop-color="#15CF74"/>
<stop offset="0.8009" stop-color="#06E775"/>
<stop offset="1" stop-color="#00F076"/>
</linearGradient>

</defs>
</svg>

