<svg xmlns="http://www.w3.org/2000/svg" viewBox="0 0 775.81 120"><g data-name="レイヤー 2"><g data-name="レイヤー 1"><g fill="#151219"><path d="M135.6 94.68V34.49h7.89l.55 5.63.46-.7c2.42-3.62 7.56-6 13.12-6 11.17 0 19.27 9 19.27 21.42s-8.1 21.5-19.27 21.5c-5.34 0-10.48-2.34-12.8-5.83l-.55-.83v25zM156 41c-6.56 0-11.71 4.73-11.71 10.76V58c0 6 5.15 10.77 11.71 10.77 7.33 0 12.06-5.45 12.06-13.87S163.31 41 156 41zM188 75.35V34.49h7.81l.64 6.56.46-.93a11.89 11.89 0 0111-6.4 11.48 11.48 0 014.06.69v7.72a27.89 27.89 0 00-3.62-.26c-7.71 0-11.62 4.32-11.62 12.84v20.64zM238.86 76.38c-12.26 0-21.16-9-21.16-21.5s8.9-21.42 21.16-21.42S260 42.47 260 54.88s-8.87 21.5-21.14 21.5zm0-35.37c-7.25 0-12.31 5.7-12.31 13.87 0 8.35 4.95 13.95 12.31 13.95s12.32-5.6 12.32-13.95c0-8.17-5.06-13.88-12.32-13.88zM289.73 95.71c-10.39 0-18-5.2-20-13.56l8.19-2.15c1.71 5.33 5.93 8.27 11.88 8.27 7.65 0 12.41-4.89 12.41-12.75v-6.59l-.55.78c-2.52 3.58-7.59 5.81-13.24 5.81-11.11 0-19.17-8.83-19.17-21s8.24-21.07 19.17-21.07c5.65 0 10.86 2.34 13.3 6l.46.7.55-5.63h7.8v40.72c.01 12.63-7.96 20.47-20.8 20.47zm.43-54.7c-7.1 0-12.06 5.56-12.06 13.52s5 13.53 12.06 13.53c6.57 0 11.71-4.69 11.71-10.68v-5.7c0-5.98-5.14-10.68-11.71-10.68zM340.27 76.38c-11.16 0-19.26-9-19.26-21.5s8.1-21.42 19.26-21.42c5.61 0 10.8 2.34 13.21 6l.47.7.54-5.63h7.81v40.82h-7.81l-.49-5.63-.47.7c-2.46 3.58-7.65 5.96-13.26 5.96zM341.91 41c-7.21 0-12.05 5.57-12.05 13.87s4.73 13.87 12.05 13.87c6.68 0 11.72-4.63 11.72-10.77v-6.2c0-6.03-5.15-10.77-11.72-10.77zM395.46 76.38c-10 0-14.52-4.77-14.52-15.46V42h-7.16v-7.51h7.16V24.31h8.68v10.18h11.21V42h-11.21v18.7c0 6.18 1.95 8.26 7.74 8.26a19.37 19.37 0 003.79-.34v7.21a24.44 24.44 0 01-5.69.55zM430.31 76.38c-12.36 0-21-8.73-21-21.24s8.9-21.68 21.16-21.68c11.67 0 19.52 8 19.52 20a23.42 23.42 0 01-.26 3.45h-31.66v.33c.8 7.39 5.43 11.76 12.41 11.76 4.9 0 8.62-2.18 10.76-6.29l7.81 2.09c-2.73 7.2-9.91 11.58-18.74 11.58zm.17-35.8c-6.17 0-10.53 3.53-12 9.68l-.09.37h22.91l-.06-.35c-.95-6.28-4.79-9.7-10.76-9.7z"/></g><path d="M35.53 120a85.73 85.73 0 01-17.29-3.49c-6.22-1.82-14.5-5-14.57-11.6 0-4.73 2.7-8.78 8.38-12.39a79.16 79.16 0 018-4.22c2.44-1.12 7.33-3.26 11-4.64V24.87L9 22.49v63.28A4.24 4.24 0 014.52 90 4.25 4.25 0 010 85.77V17.45a4.53 4.53 0 014.52-4.52A4 4 0 015 13l31 3.35a4.51 4.51 0 014 4.5V80c4.27-1.73 8.41-3.51 12-5.15 11.35-5.18 19-10.46 23.35-16.19 5.28-6.87 6.09-15.38 5.84-21.3a31.33 31.33 0 00-6.27-17.58 27.5 27.5 0 00-10.48-8.63 31.05 31.05 0 00-8.32-2.43c-3-.41-4.48-2.55-4.32-4.69s1.92-3.75 4.44-4c4.32-.36 7.52.73 11.88 2.68a38.81 38.81 0 0114.31 11.6 40.85 40.85 0 018 22.62A44.85 44.85 0 0188 54.34a36.81 36.81 0 01-5.44 9.83C74.64 74.5 60.6 80.88 56 83c-4.34 2-14 6-15.9 6.76v25.74a4.54 4.54 0 01-1.55 3.41 4.59 4.59 0 01-2.84 1.09zm-4.48-26.6c-2.76 1-7 2.56-8.6 3.3s-6.08 2.83-8.06 4.55c-.5.43-2.08 1.93-1.69 3.15s2.23 1.87 9.52 3.83c2.59.7 5.63 1.37 8.83 2z" fill="#380953"/><path d="M478.68 95.16v-7.22a23.05 23.05 0 002.58.17c4 0 5.51-1.55 5.51-6.36V34.62h8.6V82c0 9.64-3.79 13.59-12.22 13.59a21.19 21.19 0 01-4.47-.43zm6.71-73.1a5.72 5.72 0 115.68 5.68 5.62 5.62 0 01-5.68-5.68zM506.2 54.92c0-12.56 8.95-21.33 21.07-21.33s21.07 8.77 21.07 21.33-8.94 21.41-21.07 21.41-21.07-8.77-21.07-21.41zm33.37 0c0-8.35-5.16-13.85-12.3-13.85S515 46.57 515 54.92s5.16 13.93 12.3 13.93 12.27-5.51 12.27-13.93zM594.44 34.62V75.3h-7.74l-.52-5.3h-.26c-2.58 4-7.48 6.37-12.9 6.37-8.34 0-14.27-5.68-14.27-16.08V34.62h8.6v22.53c0 8.43 3.09 11.44 8.34 11.44 6 0 10.15-3.87 10.15-12v-22zM632 34.53v7.66a27.86 27.86 0 00-3.61-.26c-7.49 0-11.61 4.13-11.61 12.81V75.3h-8.6V34.62h7.74l.6 6.19h.26a11.79 11.79 0 0111.18-7 11.38 11.38 0 014.04.72zM678.63 49.67V75.3H670V52.68c0-8.34-3.1-11.44-8.6-11.44-6.28 0-10.41 4-10.41 12V75.3h-8.6V34.62h7.83l.52 5.33h.26c2.58-4 7.4-6.36 13.08-6.36 8.79 0 14.55 5.76 14.55 16.08zM728.51 57H697c.68 8 5.76 12 12.38 12a11.44 11.44 0 0010.75-6.28l7.74 2.07c-2.67 7-9.72 11.52-18.66 11.52-12.21 0-20.9-8.6-20.9-21.16 0-12.72 9-21.58 21.07-21.58 11.35 0 19.44 7.82 19.44 19.95a23.43 23.43 0 01-.31 3.48zm-31.22-6.3h22.88c-.95-6.88-5.08-10.06-10.84-10.06-6.11 0-10.66 3.53-12.04 10.06zM775.81 34.62l-24 59.94H743l7.65-19.09-16.38-40.85h9.2L754.91 65h.26l11.69-30.36z" fill="#301059"/></g></g></svg>