<svg xmlns="http://www.w3.org/2000/svg" viewBox="0 0 125 108"><defs><style>.cls-1{fill:#62e1be;opacity:.5}.cls-11,.cls-16,.cls-2{fill:#fff}.cls-3{fill:#b1f0de}.cls-4{fill:#12bcb1}.cls-10,.cls-14,.cls-18,.cls-19,.cls-20,.cls-21,.cls-5,.cls-6,.cls-7,.cls-8,.cls-9{fill:none}.cls-11,.cls-14,.cls-18,.cls-5,.cls-9{stroke:#12bcb1}.cls-19,.cls-20,.cls-21,.cls-5,.cls-6,.cls-7,.cls-8{stroke-linecap:round}.cls-5{stroke-linejoin:round}.cls-6{stroke:#71e0c4}.cls-10,.cls-11,.cls-14,.cls-18,.cls-19,.cls-20,.cls-21,.cls-6,.cls-7,.cls-8,.cls-9{stroke-miterlimit:10}.cls-7,.cls-8{stroke:#ccfffb}.cls-8{stroke-width:.8px}.cls-10{stroke:#00aec2}.cls-10,.cls-11,.cls-14{stroke-width:.75px}.cls-12{fill:#00b7aa}.cls-13{fill:#faffff}.cls-15{fill:#f9fbfe}.cls-16{opacity:.6}.cls-17{fill:#f6f973}.cls-18{stroke-width:1.12px}.cls-19{stroke:#2ec4ba}.cls-19,.cls-20,.cls-21{stroke-width:2.04px}.cls-20{stroke:#89e8cd}.cls-21{stroke:#c4f2e6}</style></defs><g id="Language_Icons" data-name="Language Icons"><circle class="cls-1" cx="63.91" cy="60.66" r="46.84"/><path class="cls-2" d="M93.38 41.88H34.45a1.65 1.65.0 0 0-1.65 1.65V96c8.13 6.82 18.62 11.47 30.08 11.47 12.45.0 23.76-4.29 32.15-12.21V43.53A1.65 1.65.0 0 0 93.38 41.88z"/><path class="cls-3" d="M34.89 41.88h58A2.09 2.09.0 0 1 95 44v9.38a0 0 0 0 1 0 0H32.8a0 0 0 0 1 0 0V44A2.09 2.09.0 0 1 34.89 41.88z"/><circle class="cls-4" cx="90.19" cy="10.06" r="1.04"/><circle class="cls-4" cx="15.91" cy="27.85" r="1.04"/><circle class="cls-4" cx="64.82" cy="13.82" r="1.68"/><circle class="cls-4" cx="17.59" cy="60.66" r="1.68"/><circle class="cls-4" cx="111.27" cy="60.66" r="1.68"/><path class="cls-5" d="M32.8 53.34H91.99z"/><path class="cls-6" d="M4.96 38.65h5.46z"/><path class="cls-6" d="M7.69 41.38V35.92z"/><path class="cls-6" d="M117.91 78.03H123.37z"/><path class="cls-6" d="M120.64 80.76V75.3z"/><path class="cls-6" d="M45.43 1.65v1.4z"/><path class="cls-6" d="M45.43 6.63V8.03z"/><path class="cls-6" d="M48.68 4.9H47.28z"/><path class="cls-6" d="M43.67 4.9H42.26z"/><path class="cls-6" d="M47.77 2.55 46.78 3.55z"/><path class="cls-6" d="M47.77 7.13 46.78 6.13z"/><path class="cls-6" d="M43.07 2.55 44.06 3.55z"/><path class="cls-6" d="M43.07 7.13 44.06 6.13z"/><circle class="cls-6" cx="98.88" cy="9.2" r="2.1"/><path class="cls-7" d="M98.22 17.92H103.68z"/><path class="cls-7" d="M100.95 20.66V15.19z"/><path class="cls-8" d="M122.12 64.44V65.57z"/><path class="cls-8" d="M122.12 68.46V69.6z"/><path class="cls-8" d="M124.75 67.07H123.62z"/><path class="cls-8" d="M120.7 67.07H119.57z"/><path class="cls-8" d="M124.02 65.17 123.21 65.98z"/><path class="cls-8" d="M124.02 68.86 123.21 68.06z"/><path class="cls-8" d="M120.22 65.17 121.02 65.98z"/><path class="cls-8" d="M120.22 68.86 121.02 68.06z"/><circle class="cls-7" cx="2.85" cy="29.95" r="2.1"/><ellipse class="cls-5" cx="38.96" cy="47.59" rx="1.05" ry="1.04"/><ellipse class="cls-5" cx="43.02" cy="47.59" rx="1.05" ry="1.04"/><ellipse class="cls-5" cx="47.08" cy="47.59" rx="1.05" ry="1.04"/><path class="cls-9" d="M17.75 53.34a46.87 46.87.0 0 1 38.59-38.9"/><path class="cls-9" d="M110.24 68.28a46.85 46.85.0 0 1-92.61-1"/><path class="cls-9" d="M71.55 14.42A46.86 46.86.0 0 1 110.36 53.8"/><path class="cls-5" d="M93.38 41.88H34.45a1.65 1.65.0 0 0-1.65 1.65V96c8.13 6.82 18.62 11.47 30.08 11.47 12.45.0 23.76-4.29 32.15-12.21V43.53A1.65 1.65.0 0 0 93.38 41.88z"/><path class="cls-3" d="M73.38 105.64c.07-1.17.12-2.35.12-3.8.0-3.7-3.3-9.45-10.87-9.45h-.06a12.22 12.22.0 0 0-4.66.87 9.69 9.69.0 0 0-5.09 8c0 1.59.07 2.86.14 4.14a28.48 28.48.0 0 0 10 1.86A32.55 32.55.0 0 0 73.38 105.64z"/><path class="cls-3" d="M72.26 95.46c.69-.77.44-1.47.67-2.08.12-.31-.2-.33-.66-.18a4.31 4.31.0 0 0-1 .72 4.12 4.12.0 0 0-.28.31A10 10 0 0 1 72.26 95.46z"/><circle class="cls-10" cx="57.47" cy="100.64" r="4.39"/><circle class="cls-11" cx="57.47" cy="100.64" r="4.39"/><path class="cls-12" d="M57.3 100.55c0 .8-.17 1.44-1 1.61s-2-.56-2-1.35a1.82 1.82.0 0 1 1.6-1.69A1.43 1.43.0 0 1 57.3 100.55z"/><circle class="cls-10" cx="70.13" cy="100.64" r="4.39"/><path class="cls-13" d="M56.29 100.22a.5.5.0 0 1-.51.42c-.23.0-.33-.19-.33-.42a.42.42.0 1 1 .84.0z"/><circle class="cls-11" cx="70.13" cy="100.64" r="4.39"/><path class="cls-12" d="M70.46 100.55c0 .8.0 1.27 1 1.44s2-.39 2-1.18a1.82 1.82.0 0 0-1.6-1.69A1.44 1.44.0 0 0 70.46 100.55z"/><path class="cls-13" d="M72.37 99.92a.51.51.0 0 1-.06.65c-.17.17-.38.11-.54-.06a.41.41.0 0 1 0-.59A.42.42.0 0 1 72.37 99.92z"/><path class="cls-14" d="M72.39 95.61a3.71 3.71.0 0 0 .29-.27c.82-.82.53-1.55.77-2.19s-1.37-.05-2.19.77a4.12 4.12.0 0 0-.28.31A9.71 9.71.0 0 1 72.39 95.61z"/><path class="cls-3" d="M54.67 93.42a2.78 2.78.0 0 0 .66 1.88 10.43 10.43.0 0 1 1.18-1.11A2.89 2.89.0 0 0 54.67 93.42z"/><path class="cls-14" d="M55.33 95.3A9.65 9.65.0 0 1 56.82 94v0c-.81-.82-2.42-1.41-2.18-.77S54.56 94.5 55.33 95.3z"/><path class="cls-15" d="M63.67 105.06a1.8 1.8.0 0 0-.57.11v.35a.62.62.0 0 0 1.24.0v-.35A2.68 2.68.0 0 0 63.67 105.06z"/><path class="cls-14" d="M65.37 104.91c-.62.61-1 .15-1.7.15s-1.24.62-1.7-.15 1-1.7 1.7-1.7S66 104.29 65.37 104.91z"/><path class="cls-4" d="M65 103c0 .46-.57.83-1.28.83s-1.27-.37-1.27-.83.57-.56 1.27-.56S65 102.53 65 103z"/><path class="cls-16" d="M64.19 102.9c0 .12-.21.23-.47.23s-.46-.11-.46-.23.27-.13.52-.13S64.19 102.77 64.19 102.9z"/><path class="cls-14" d="M74.49 105.24c.07-1.21.13-2.43.13-3.94.0-3.69-3.3-9.44-10.87-9.44h-.06c-7.57.0-10.87 5.75-10.87 9.44.0 1.6.07 2.86.14 4.14a28.48 28.48.0 0 0 10 1.86A32 32 0 0 0 74.49 105.24z"/><path class="cls-17" d="M71.76 81.9c.64-.07 1.31-.1 2-.22a11.39 11.39.0 0 0 5.11-2.46A9.5 9.5.0 0 0 81.59 71a7.73 7.73.0 0 0-3.49-5.51 9.13 9.13.0 0 0-7-1.26 10.7 10.7.0 0 0-5 2.13 11.73 11.73.0 0 0-1 1.16 10.58 10.58.0 0 0-1.7 3.21h-.62q-.16.42-.3.84H54.56c-.34.68-.78 1.63-1 2.25-.17.42-.05.74.47.74h4.77c-.25.35-.45.65-.67.92a5.32 5.32.0 0 1-.94.85A4.55 4.55.0 0 1 53 77.91 3.86 3.86.0 0 1 49.63 74a5.23 5.23.0 0 1 2.22-4.48 6.6 6.6.0 0 1 1.22-1 4.33 4.33.0 0 1 4.48-.37 3.32 3.32.0 0 1 1.16.94c.32.37.35.35.72.25 1.25-.32 2.21-.58 3.36-.89A7.61 7.61.0 0 0 60 65.16 8.49 8.49.0 0 0 53.49 64a10.86 10.86.0 0 0-4.92 2.22 12.7 12.7.0 0 0-1.08 1.22 9.72 9.72.0 0 0-2.1 7.24 7.74 7.74.0 0 0 3.14 5.49 8.75 8.75.0 0 0 6.64 1.63 10 10 0 0 0 5-2.13 10.86 10.86.0 0 0 1.09-1.24 10.06 10.06.0 0 0 1.05-1.74c0 .16.12.32.17.48a12.36 12.36.0 0 0 .76-1.31 7.82 7.82.0 0 0 2.46 3.92A9.28 9.28.0 0 0 71.76 81.9zm-4.48-9a5.42 5.42.0 0 1 2.19-3.39 5.51 5.51.0 0 1 3.06-1.75 4.08 4.08.0 0 1 5 3.29 6.13 6.13.0 0 1 .07.82A5.28 5.28.0 0 1 75.38 76a6.06 6.06.0 0 1-1.84 1.42 4.54 4.54.0 0 1-4 .15A4.06 4.06.0 0 1 67.28 73z"/><path class="cls-18" d="M82.51 70.14A7.68 7.68.0 0 0 79 64.62a9.22 9.22.0 0 0-7-1.26 10.37 10.37.0 0 0-6.92 4.13 10.58 10.58.0 0 0-1.7 3.21h-8a.67.67.0 0 0-.62.4c-.35.64-.94 1.93-1.26 2.69-.17.42-.05.74.47.74h4.77c-.25.35-.45.65-.67.92a4.56 4.56.0 0 1-4.2 1.63 3.88 3.88.0 0 1-3.34-3.88 5.28 5.28.0 0 1 2.52-4.7 4.33 4.33.0 0 1 4.48-.37 3.32 3.32.0 0 1 1.16.94c.32.37.35.35.72.25l4.15-1.09c.29-.07.39-.2.25-.42A7.75 7.75.0 0 0 61 64.33a8.52 8.52.0 0 0-6.55-1.21 11 11 0 0 0-6.92 4.27 9.72 9.72.0 0 0-2.1 7.24 7.74 7.74.0 0 0 3.14 5.49 8.75 8.75.0 0 0 6.64 1.63 10.26 10.26.0 0 0 7-4.2 10.73 10.73.0 0 0 1.05-1.74 7.82 7.82.0 0 0 2.46 3.92 9.28 9.28.0 0 0 6 2.17h0c.64-.07 1.31-.1 2-.22a11.33 11.33.0 0 0 5.93-3.17A9.52 9.52.0 0 0 82.51 70.14zm-8 6.5a4.53 4.53.0 0 1-4 .14 4.06 4.06.0 0 1-2.27-4.67 5.4 5.4.0 0 1 4.33-4.3 4.08 4.08.0 0 1 5 3.29 6.13 6.13.0 0 1 .07.82A5.42 5.42.0 0 1 74.5 76.64z"/><path class="cls-19" d="M45.27 86.26H64.6z"/><path class="cls-20" d="M68.26 86.26H74.41z"/><path class="cls-21" d="M78.13 86.26H82.22z"/></g></svg>