<svg xmlns="http://www.w3.org/2000/svg" viewBox="0 0 125 108"><defs><style>.cls-4{fill:#e1326d}.cls-14,.cls-6,.cls-7,.cls-8,.cls-9{fill:none}.cls-15,.cls-6,.cls-9{stroke:#e1326d}.cls-14,.cls-15,.cls-6,.cls-7,.cls-8,.cls-9{stroke-linecap:round}.cls-6,.cls-7,.cls-8{stroke-miterlimit:10}.cls-7,.cls-8{stroke:#f5e4ea}.cls-8{stroke-width:.8px}.cls-14,.cls-15,.cls-9{stroke-linejoin:round}.cls-11{fill:#f2447e}.cls-14{stroke:#f2447e;stroke-width:.4px}.cls-13{fill:#fccfde}.cls-15{fill:#fbb6cd}</style></defs><g id="Language_Icons" data-name="Language Icons"><circle cx="63.93" cy="60.64" r="46.84" fill="#ef598d" opacity=".5"/><path d="M93.82 41.87H34.89a1.65 1.65 0 00-1.65 1.65v52.55a47.1 47.1 0 0030.08 11.41c12.45 0 23.76-4.29 32.15-12.21V43.52a1.65 1.65 0 00-1.65-1.65z" fill="#fff"/><path fill="#f13976" opacity=".6" d="M33.24 42.18h62.23v11.6H33.24z"/><circle class="cls-4" cx="89.69" cy="10.04" r="1.04"/><circle class="cls-4" cx="15.4" cy="27.83" r="1.04"/><circle class="cls-4" cx="64.32" cy="13.8" r="1.68"/><circle class="cls-4" cx="17.09" cy="60.64" r="1.68"/><circle class="cls-4" cx="110.77" cy="60.64" r="1.68"/><g opacity=".7"><path class="cls-6" d="M4.96 38.63h5.46M7.69 41.36V35.9M117.91 78.01h5.46M120.64 80.74v-5.46M45.43 1.63v1.4M45.43 6.61v1.41M48.68 4.89h-1.4M43.67 4.89h-1.41M47.77 2.54l-.99.99M47.77 7.11l-.99-1M43.07 2.54l.99.99M43.07 7.11l.99-1"/><circle class="cls-6" cx="98.88" cy="9.18" r="2.1"/></g><path class="cls-7" d="M98.22 17.91h5.46M100.95 20.64v-5.46"/><path class="cls-8" d="M122.12 64.42v1.14M122.12 68.44v1.14M124.75 67.05h-1.13M120.7 67.05h-1.13M124.02 65.16l-.81.8M124.02 68.84l-.81-.8M120.22 65.16l.8.8M120.22 68.84l.8-.8"/><circle class="cls-7" cx="2.85" cy="29.94" r="2.1"/><path class="cls-6" d="M17.66 53.32a46.88 46.88 0 0138.59-38.9M110.15 68.26a46.85 46.85 0 01-92.61-1.05M71.46 14.4a46.88 46.88 0 0138.81 39.38"/><path class="cls-9" d="M33.9 53.32h59.2M93.82 41.87H34.89a1.65 1.65 0 00-1.65 1.65v52.55a47.1 47.1 0 0030.08 11.41c12.45 0 23.76-4.29 32.15-12.21V43.52a1.65 1.65 0 00-1.65-1.65z"/><path d="M70.17 90.28c1-8.82 7.79-13.47 11.29-13.86 3-.34 4.59-.26 6.37 1.06a.36.36 0 00.55-.09l.35-.59a.45.45 0 00-.06-.53c-1-1.09-4.77-4.52-12.65-3.76-11.44 1.12-20.57 16.31-21.76 34.17 3 .82 7.05.82 10.29.82a34.55 34.55 0 008.79-.94c-1.41-3.77-3.83-10.15-3.17-16.28z" fill="#f56d9a"/><path class="cls-9" d="M70.26 89.34c1.08-8.85 8.06-12.88 12-13.31a7.47 7.47 0 015.77 1.68.41.41 0 00.62-.08l.39-.59a.43.43 0 00-.04-.54 19.09 19.09 0 00-12.62-4.86c-13 0-22.21 16.68-23.55 34.59a45.49 45.49 0 0020.75.14c-1.58-3.78-4.07-10.89-3.32-17.03z"/><path class="cls-11" d="M47.27 97.58a.42.42 0 00-.45.36l-.33 2.79a.43.43 0 00.36.47l2.72.33a.41.41 0 00.46-.34l.51-2.9a.43.43 0 00-.38-.49zM53.38 89.21l.85-2a.42.42 0 00-.21-.54l-2.48-1.13a.43.43 0 00-.56.22l-.9 2.17a.4.4 0 00.23.55l2.54 1a.41.41 0 00.53-.27zM58.23 79.28a.42.42 0 00.55-.08l1.4-1.66a.41.41 0 00-.09-.61l-1.83-1.21a.43.43 0 00-.54.07l-1.45 1.61a.42.42 0 00.08.63zM66 72.38a.43.43 0 00.53.09l1.63-.93a.43.43 0 00.1-.64L67 69.58a.43.43 0 00-.51-.09l-1.62.83a.42.42 0 00-.13.64zM77.33 68.09L75.11 68a.41.41 0 00-.42.5l.25 1.22a.41.41 0 00.42.33l2.13-.05a.42.42 0 00.4-.48l-.17-1.07a.42.42 0 00-.39-.36zM84 71.09v.27a.41.41 0 00.22.39l1.44.77a.41.41 0 00.55-.13.42.42 0 00-.1-.57l-1.44-1a.41.41 0 00-.67.27zM83.77 77.6a.42.42 0 00-.54.36v.19a.42.42 0 00.34.44l1.09.23a.42.42 0 00.5-.37v-.07a.41.41 0 00-.28-.43zM80.09 79l-1.09.25a.41.41 0 00-.26.6l.44.82a.41.41 0 00.62.13l.77-.61a.42.42 0 00.15-.43l-.12-.48a.43.43 0 00-.51-.28zM77 85l.45-.79a.41.41 0 000-.44l-1-1.54a.41.41 0 00-.62-.08l-.85.77a.4.4 0 000 .58l1.42 1.57A.42.42 0 0077 85zM73.81 87.72l-.56 1.13a.41.41 0 00.1.5L75 90.79a.42.42 0 00.68-.22l.35-1.45a.42.42 0 00-.15-.43l-1.47-1.12a.42.42 0 00-.6.15zM73.45 95.89l2.13.92a.42.42 0 00.58-.41l-.09-1.47a.42.42 0 00-.22-.34l-1.95-1a.42.42 0 00-.61.35l-.09 1.58a.4.4 0 00.25.37zM74.48 103a.4.4 0 00.37.3l2.81.16a.42.42 0 00.4-.6l-1-1.93a.4.4 0 00-.37-.24h-2.31a.42.42 0 00-.4.53z"/><path d="M44.26 68.08l7-3.64a.17.17 0 01.14 0l3 1.65a.18.18 0 01.07.17l-2.35 8.3a.15.15 0 01-.19.1l-8.09-2.81a.15.15 0 01-.09-.16l.41-3.5a.12.12 0 01.1-.11z" stroke="#f2447e" stroke-width=".4" fill="#f56d9a" stroke-linejoin="round" stroke-linecap="round"/><path class="cls-13" d="M47.11 70.74l-1.39.72a.14.14 0 000 .25l4.61 1.6zM48.08 70.24l3.26 2.64-.26-4.19-3 1.55zM52.12 68.15a.17.17 0 00-.09.16l.19 3.69 1.23-4.51zM50.42 67.92a.13.13 0 000-.25l-1.6-.55-.57 1.94zM49.48 66.78l1.52.52-.09-1.51-1.44.74a.13.13 0 00.01.25zM46 68.55l1 .78.52-1.77-1.52.76a.14.14 0 000 .23zM53.09 66.68a.15.15 0 000-.25l-.92-.51.07 1.19zM46.18 70.25a.14.14 0 000-.23l-.67-.55-.14 1.19z"/><path class="cls-14" d="M45.08 71.56l5.16 1.79a.14.14 0 00.13-.24L47 70.42a.16.16 0 00-.15 0l-1.74.9a.14.14 0 00-.03.24zM47.42 70.09l3.77 3a.14.14 0 00.23-.11l-.3-4.64a.14.14 0 00-.2-.11l-3.5 1.81zM53.34 67l-1.62.84a.11.11 0 00-.07.13l.22 4.29a.14.14 0 00.27 0l1.39-5.13a.14.14 0 00-.19-.13zM47.68 69.34l2.74-1.42a.13.13 0 000-.25L48.29 67a.13.13 0 00-.17.09l-.63 2.14a.13.13 0 00.19.11zM50.74 65.38l-1.94 1a.14.14 0 000 .25l2 .7a.13.13 0 00.18-.13l-.11-1.71a.13.13 0 00-.13-.11zM45.32 68.4l1.38 1.12a.14.14 0 00.22-.07l.63-2.16a.13.13 0 00-.19-.16l-2 1a.14.14 0 00-.04.27zM53.14 66.28l-1.44-.8a.14.14 0 00-.2.13l.09 1.49a.14.14 0 00.2.12l1.35-.7a.13.13 0 000-.24zM44.91 70.77l1.32-.68a.14.14 0 000-.23L45.12 69a.13.13 0 00-.22.09l-.19 1.59a.14.14 0 00.2.09z"/><circle class="cls-15" cx="39" cy="47.98" r="1.04"/><circle class="cls-15" cx="43.01" cy="47.98" r="1.04"/><circle class="cls-15" cx="47.03" cy="47.98" r="1.04"/></g></svg>