<svg xmlns="http://www.w3.org/2000/svg" viewBox="0 0 125 108"><defs><style>.cls-10{fill:#fff}.cls-3{fill:#ecbf00}.cls-12,.cls-6,.cls-7,.cls-8,.cls-9{fill:none}.cls-10,.cls-11,.cls-12,.cls-6,.cls-7{stroke:#ecbf00}.cls-10,.cls-11,.cls-12,.cls-6,.cls-7,.cls-8,.cls-9{stroke-linecap:round}.cls-6,.cls-7,.cls-8,.cls-9{stroke-miterlimit:10}.cls-7,.cls-9{stroke-width:.8px}.cls-8,.cls-9{stroke:#fff1a6}.cls-10,.cls-11,.cls-12{stroke-linejoin:round}.cls-11{fill:#f1d846}</style></defs><g id="Language_Icons" data-name="Language Icons"><circle cx="63.93" cy="60.66" r="46.84" fill="#f9d700" opacity=".5"/><path d="M93.82 41.88H34.89a1.65 1.65 0 00-1.65 1.65v52.52c8.14 6.82 18.63 11.45 30.08 11.45a46.69 46.69 0 0032.15-12.79V43.53a1.65 1.65 0 00-1.65-1.65z" fill="#fff"/><circle class="cls-3" cx="89.69" cy="10.06" r="1.04"/><circle class="cls-3" cx="15.4" cy="27.85" r="1.04"/><circle class="cls-3" cx="64.32" cy="13.82" r="1.68"/><circle class="cls-3" cx="17.09" cy="60.66" r="1.68"/><circle class="cls-3" cx="110.77" cy="60.66" r="1.68"/><path fill="#ffe037" opacity=".8" d="M33.24 42.2h62.23v11.6H33.24z"/><g opacity=".7"><path class="cls-6" d="M4.96 38.65h5.46M7.69 41.38v-5.46M117.91 78.03h5.46M120.64 80.76V75.3"/><path class="cls-7" d="M45.43 1.65v1.4M45.43 6.63v1.4M48.68 4.9h-1.4M43.67 4.9h-1.41M47.77 2.55l-.99 1M47.77 7.13l-.99-1M43.07 2.55l.99 1M43.07 7.13l.99-1"/><circle class="cls-6" cx="98.88" cy="9.2" r="2.1"/></g><path class="cls-8" d="M98.22 17.92h5.46M100.95 20.66v-5.47"/><path class="cls-9" d="M122.12 64.44v1.13M122.12 68.46v1.14M124.75 67.07h-1.13M120.7 67.07h-1.13M124.02 65.17l-.81.81M124.02 68.86l-.81-.8M120.22 65.17l.8.81M120.22 68.86l.8-.8"/><circle class="cls-8" cx="2.85" cy="29.95" r="2.1"/><path class="cls-10" d="M45 79.39V83c0 1.7.3 2 1.09 2h1.67v1.85h-2.42c-1.9 0-3-1-3-3.09v-4.39c0-1.2-.12-1.86-1.16-2v-1.16c1-.2 1.16-.85 1.16-2.06V70c0-2.1 1.1-3.1 3-3.1h2.42v1.85h-1.67c-.79 0-1.08.27-1.08 1.94v3.5a3 3 0 01-1.55 2.63A3 3 0 0145 79.39z"/><path class="cls-11" d="M54.26 81.16l1.06-1.08a.4.4 0 01.61 0 1.74 1.74 0 001.34.65c.8 0 1.63-.65 1.63-2v-9.65a.39.39 0 01.39-.38h1.91a.38.38 0 01.39.38v9.62a4.14 4.14 0 01-4.28 4.46 3.88 3.88 0 01-3.09-1.49.44.44 0 01.04-.51zM65.3 81l.7-1.31a.47.47 0 01.69-.14 6.86 6.86 0 003.08 1.26 1.69 1.69 0 001.85-1.56c0-1-.87-1.76-2.58-2.45-1.92-.77-3.83-2-3.83-4.4 0-1.81 1.34-3.91 4.58-3.91a7.08 7.08 0 014.07 1.37.5.5 0 01.13.67l-.78 1.16c-.16.24-.47.41-.71.24a6.7 6.7 0 00-2.83-1.12 1.62 1.62 0 00-1.79 1.43c0 1 .75 1.61 2.4 2.28 2 .79 4.26 2 4.26 4.6 0 2.1-1.82 4-4.69 4a6.53 6.53 0 01-4.48-1.59c-.15-.15-.26-.25-.07-.53z"/><path class="cls-10" d="M83.85 74.15v-3.5c0-1.67-.28-1.94-1.1-1.94H81.1v-1.85h2.43c1.89 0 3 1 3 3.1v4.19c0 1.21.14 1.86 1.18 2.06v1.16c-1 .14-1.18.8-1.18 2v4.36c0 2-1.08 3.09-3 3.09H81.1V85h1.65c.82 0 1.1-.27 1.1-1.94v-3.67a3 3 0 011.53-2.61 3 3 0 01-1.53-2.63z"/><path class="cls-12" d="M33.9 53.34h59.2M38.02 45.84l1.83 1.91-1.83 1.83M40.44 50.16h2.75"/><path class="cls-6" d="M17.66 53.34a46.87 46.87 0 0138.59-38.9M110.15 68.28a46.85 46.85 0 01-92.61-1M71.46 14.42a46.87 46.87 0 0138.81 39.38"/><path d="M93.82 41.88H34.89a1.65 1.65 0 00-1.65 1.65v52.52c8.14 6.82 18.63 11.45 30.08 11.45 12.45 0 23.76-4.29 32.15-12.21V43.53a1.65 1.65 0 00-1.65-1.65z" stroke-miterlimit="10" stroke="#ecbf00" fill="none"/></g></svg>